G04 #@! TF.GenerationSoftware,KiCad,Pcbnew,(2018-01-14 revision 63e55e918)-makepkg*
G04 #@! TF.CreationDate,2018-02-22T22:40:35+00:00*
G04 #@! TF.ProjectId,Test nixie bearing,54657374206E69786965206265617269,rev?*
G04 #@! TF.SameCoordinates,Original*
G04 #@! TF.FileFunction,Copper,L1,Top,Signal*
G04 #@! TF.FilePolarity,Positive*
%FSLAX46Y46*%
G04 Gerber Fmt 4.6, Leading zero omitted, Abs format (unit mm)*
G04 Created by KiCad (PCBNEW (2018-01-14 revision 63e55e918)-makepkg) date 02/22/18 22:40:35*
%MOMM*%
%LPD*%
G01*
G04 APERTURE LIST*
%ADD10O,1.000000X22.000000*%
%ADD11C,6.100000*%
%ADD12C,1.200000*%
%ADD13C,1.800000*%
%ADD14O,1.000000X3.750000*%
%ADD15O,3.750000X1.000000*%
%ADD16C,1.000000*%
%ADD17C,1.000000*%
%ADD18O,18.000000X1.000000*%
%ADD19C,1.700000*%
%ADD20O,1.000000X21.000000*%
%ADD21O,19.000000X1.000000*%
%ADD22C,0.250000*%
G04 APERTURE END LIST*
D10*
X84000000Y-130500000D03*
D11*
X73000000Y-131000000D03*
D12*
X73000000Y-123000000D03*
X76810000Y-123916352D03*
X79583870Y-126455483D03*
X80941670Y-130035707D03*
X69282215Y-123916352D03*
X78304981Y-136988085D03*
X66416130Y-126455483D03*
X67695019Y-136988085D03*
X80480129Y-133836839D03*
X65058330Y-130035707D03*
X71085475Y-138767534D03*
X65519871Y-133836839D03*
X74914525Y-138767534D03*
D13*
X73000000Y-120840000D03*
X75540000Y-120840000D03*
X78080000Y-120840000D03*
X80620000Y-120840000D03*
X67920000Y-120840000D03*
X70460000Y-120840000D03*
X65380000Y-120840000D03*
X80620000Y-141160000D03*
X78080000Y-141160000D03*
X75540000Y-141160000D03*
X70460000Y-141160000D03*
X67920000Y-141160000D03*
X65380000Y-141160000D03*
X73000000Y-141160000D03*
D14*
X89000000Y-116600000D03*
X89000000Y-111400000D03*
X109000000Y-111400000D03*
X109000000Y-116600000D03*
D15*
X101600000Y-124000000D03*
X96400000Y-124000000D03*
X96400000Y-104000000D03*
X101650000Y-104000000D03*
D16*
X92000000Y-107000000D03*
D17*
X94999901Y-104000099D02*
X89000099Y-109999901D01*
D18*
X52500000Y-68500000D03*
D16*
X92000000Y-121000000D03*
D17*
X89000099Y-118000099D02*
X94999901Y-123999901D01*
D16*
X106000000Y-107000000D03*
D17*
X103000099Y-104000099D02*
X108999901Y-109999901D01*
D12*
X100914525Y-121767534D03*
X91519871Y-116836839D03*
X97085475Y-121767534D03*
X91058330Y-113035707D03*
X106480129Y-116836839D03*
X93695019Y-119988085D03*
X92416130Y-109455483D03*
X104304981Y-119988085D03*
X95282215Y-106916352D03*
X106941670Y-113035707D03*
X105583870Y-109455483D03*
X102810000Y-106916352D03*
X99000000Y-106000000D03*
D11*
X99000000Y-114000000D03*
D19*
X99000000Y-108500000D03*
X101560000Y-109130000D03*
X103530000Y-110870000D03*
X104460000Y-113330000D03*
X104140000Y-115940000D03*
X102640000Y-118110000D03*
X100310000Y-119340000D03*
X97680000Y-119340000D03*
X95350000Y-118110000D03*
X93860000Y-115940000D03*
X93540000Y-113330000D03*
X94470000Y-110870000D03*
X96440000Y-109130000D03*
D14*
X103000000Y-130600000D03*
X103000000Y-125400000D03*
X123000000Y-125400000D03*
X123000000Y-130600000D03*
D15*
X115600000Y-138000000D03*
X110400000Y-138000000D03*
X110400000Y-118000000D03*
X115650000Y-118000000D03*
D16*
X106000000Y-121000000D03*
D17*
X108999901Y-118000099D02*
X103000099Y-123999901D01*
D16*
X120000000Y-135000000D03*
D17*
X122999901Y-132000099D02*
X117000099Y-137999901D01*
D16*
X106000000Y-135000000D03*
D17*
X103000099Y-132000099D02*
X108999901Y-137999901D01*
D20*
X62500000Y-106000000D03*
D12*
X114914525Y-135767534D03*
X105519871Y-130836839D03*
X111085475Y-135767534D03*
X105058330Y-127035707D03*
X120480129Y-130836839D03*
X107695019Y-133988085D03*
X106416130Y-123455483D03*
X118304981Y-133988085D03*
X109282215Y-120916352D03*
X120941670Y-127035707D03*
X119583870Y-123455483D03*
X116810000Y-120916352D03*
X113000000Y-120000000D03*
D11*
X113000000Y-128000000D03*
D19*
X113000000Y-122500000D03*
X115560000Y-123130000D03*
X117530000Y-124870000D03*
X118460000Y-127330000D03*
X118140000Y-129940000D03*
X116640000Y-132110000D03*
X114310000Y-133340000D03*
X111680000Y-133340000D03*
X109350000Y-132110000D03*
X107860000Y-129940000D03*
X107540000Y-127330000D03*
X108470000Y-124870000D03*
X110440000Y-123130000D03*
D14*
X117000000Y-116600000D03*
X117000000Y-111400000D03*
X137000000Y-111400000D03*
X137000000Y-116600000D03*
D15*
X129600000Y-124000000D03*
X124400000Y-124000000D03*
X124400000Y-104000000D03*
X129650000Y-104000000D03*
D16*
X120000000Y-107000000D03*
D17*
X122999901Y-104000099D02*
X117000099Y-109999901D01*
D16*
X134000000Y-121000000D03*
D17*
X136999901Y-118000099D02*
X131000099Y-123999901D01*
D16*
X120000000Y-121000000D03*
D17*
X117000099Y-118000099D02*
X122999901Y-123999901D01*
D16*
X134000000Y-107000000D03*
D17*
X131000099Y-104000099D02*
X136999901Y-109999901D01*
D12*
X128914525Y-121767534D03*
X119519871Y-116836839D03*
X125085475Y-121767534D03*
X119058330Y-113035707D03*
X134480129Y-116836839D03*
X121695019Y-119988085D03*
X120416130Y-109455483D03*
X132304981Y-119988085D03*
X123282215Y-106916352D03*
X134941670Y-113035707D03*
X133583870Y-109455483D03*
X130810000Y-106916352D03*
X127000000Y-106000000D03*
D11*
X127000000Y-114000000D03*
D19*
X127000000Y-108500000D03*
X129560000Y-109130000D03*
X131530000Y-110870000D03*
X132460000Y-113330000D03*
X132140000Y-115940000D03*
X130640000Y-118110000D03*
X128310000Y-119340000D03*
X125680000Y-119340000D03*
X123350000Y-118110000D03*
X121860000Y-115940000D03*
X121540000Y-113330000D03*
X122470000Y-110870000D03*
X124440000Y-109130000D03*
D13*
X52000000Y-141160000D03*
X44380000Y-141160000D03*
X46920000Y-141160000D03*
X49460000Y-141160000D03*
X54540000Y-141160000D03*
X57080000Y-141160000D03*
X59620000Y-141160000D03*
X44380000Y-120840000D03*
X49460000Y-120840000D03*
X46920000Y-120840000D03*
X59620000Y-120840000D03*
X57080000Y-120840000D03*
X54540000Y-120840000D03*
X52000000Y-120840000D03*
D12*
X53914525Y-138767534D03*
X44519871Y-133836839D03*
X50085475Y-138767534D03*
X44058330Y-130035707D03*
X59480129Y-133836839D03*
X46695019Y-136988085D03*
X45416130Y-126455483D03*
X57304981Y-136988085D03*
X48282215Y-123916352D03*
X59941670Y-130035707D03*
X58583870Y-126455483D03*
X55810000Y-123916352D03*
X52000000Y-123000000D03*
D11*
X52000000Y-131000000D03*
D14*
X103000000Y-102600000D03*
X103000000Y-97400000D03*
X123000000Y-97400000D03*
X123000000Y-102600000D03*
D15*
X115600000Y-110000000D03*
X110400000Y-110000000D03*
X110400000Y-90000000D03*
X115650000Y-90000000D03*
D18*
X52500000Y-118500000D03*
X52500000Y-93500000D03*
D21*
X73000000Y-93500000D03*
X73500000Y-68500000D03*
D12*
X114914525Y-107767534D03*
X105519871Y-102836839D03*
X111085475Y-107767534D03*
X105058330Y-99035707D03*
X120480129Y-102836839D03*
X107695019Y-105988085D03*
X106416130Y-95455483D03*
X118304981Y-105988085D03*
X109282215Y-92916352D03*
X120941670Y-99035707D03*
X119583870Y-95455483D03*
X116810000Y-92916352D03*
X113000000Y-92000000D03*
D11*
X113000000Y-100000000D03*
D19*
X113000000Y-94500000D03*
X115560000Y-95130000D03*
X117530000Y-96870000D03*
X118460000Y-99330000D03*
X118140000Y-101940000D03*
X116640000Y-104110000D03*
X114310000Y-105340000D03*
X111680000Y-105340000D03*
X109350000Y-104110000D03*
X107860000Y-101940000D03*
X107540000Y-99330000D03*
X108470000Y-96870000D03*
X110440000Y-95130000D03*
D14*
X117000000Y-88600000D03*
X117000000Y-83400000D03*
X137000000Y-83400000D03*
X137000000Y-88600000D03*
D15*
X129600000Y-96000000D03*
X124400000Y-96000000D03*
X124400000Y-76000000D03*
X129650000Y-76000000D03*
D20*
X62500000Y-131000000D03*
D16*
X134000000Y-93000000D03*
D17*
X136999901Y-90000099D02*
X131000099Y-95999901D01*
D16*
X120000000Y-93000000D03*
D17*
X117000099Y-90000099D02*
X122999901Y-95999901D01*
D16*
X134000000Y-79000000D03*
D17*
X131000099Y-76000099D02*
X136999901Y-81999901D01*
D12*
X128914525Y-93767534D03*
X119519871Y-88836839D03*
X125085475Y-93767534D03*
X119058330Y-85035707D03*
X134480129Y-88836839D03*
X121695019Y-91988085D03*
X120416130Y-81455483D03*
X132304981Y-91988085D03*
X123282215Y-78916352D03*
X134941670Y-85035707D03*
X133583870Y-81455483D03*
X130810000Y-78916352D03*
X127000000Y-78000000D03*
D11*
X127000000Y-86000000D03*
D19*
X127000000Y-80500000D03*
X129560000Y-81130000D03*
X131530000Y-82870000D03*
X132460000Y-85330000D03*
X132140000Y-87940000D03*
X130640000Y-90110000D03*
X128310000Y-91340000D03*
X125680000Y-91340000D03*
X123350000Y-90110000D03*
X121860000Y-87940000D03*
X121540000Y-85330000D03*
X122470000Y-82870000D03*
X124440000Y-81130000D03*
D14*
X89000000Y-88600000D03*
X89000000Y-83400000D03*
X109000000Y-83400000D03*
X109000000Y-88600000D03*
D15*
X101600000Y-96000000D03*
X96400000Y-96000000D03*
X96400000Y-76000000D03*
X101650000Y-76000000D03*
D16*
X92000000Y-79000000D03*
D17*
X94999901Y-76000099D02*
X89000099Y-81999901D01*
D16*
X106000000Y-93000000D03*
D17*
X108999901Y-90000099D02*
X103000099Y-95999901D01*
D16*
X92000000Y-93000000D03*
D17*
X89000099Y-90000099D02*
X94999901Y-95999901D01*
D10*
X84000000Y-81000000D03*
D12*
X100914525Y-93767534D03*
X91519871Y-88836839D03*
X97085475Y-93767534D03*
X91058330Y-85035707D03*
X106480129Y-88836839D03*
X93695019Y-91988085D03*
X92416130Y-81455483D03*
X104304981Y-91988085D03*
X95282215Y-78916352D03*
X106941670Y-85035707D03*
X105583870Y-81455483D03*
X102810000Y-78916352D03*
X99000000Y-78000000D03*
D11*
X99000000Y-86000000D03*
D19*
X99000000Y-80500000D03*
X101560000Y-81130000D03*
X103530000Y-82870000D03*
X104460000Y-85330000D03*
X104140000Y-87940000D03*
X102640000Y-90110000D03*
X100310000Y-91340000D03*
X97680000Y-91340000D03*
X95350000Y-90110000D03*
X93860000Y-87940000D03*
X93540000Y-85330000D03*
X94470000Y-82870000D03*
X96440000Y-81130000D03*
D14*
X103000000Y-74600000D03*
X103000000Y-69400000D03*
X123000000Y-69400000D03*
X123000000Y-74600000D03*
D15*
X115600000Y-82000000D03*
X110400000Y-82000000D03*
X110400000Y-62000000D03*
X115650000Y-62000000D03*
D20*
X62500000Y-81000000D03*
D16*
X120000000Y-79000000D03*
D17*
X122999901Y-76000099D02*
X117000099Y-81999901D01*
D16*
X106000000Y-79000000D03*
D17*
X103000099Y-76000099D02*
X108999901Y-81999901D01*
D21*
X73000000Y-118500000D03*
D12*
X114914525Y-79767534D03*
X105519871Y-74836839D03*
X111085475Y-79767534D03*
X105058330Y-71035707D03*
X120480129Y-74836839D03*
X107695019Y-77988085D03*
X106416130Y-67455483D03*
X118304981Y-77988085D03*
X109282215Y-64916352D03*
X120941670Y-71035707D03*
X119583870Y-67455483D03*
X116810000Y-64916352D03*
X113000000Y-64000000D03*
D11*
X113000000Y-72000000D03*
D19*
X113000000Y-66500000D03*
X115560000Y-67130000D03*
X117530000Y-68870000D03*
X118460000Y-71330000D03*
X118140000Y-73940000D03*
X116640000Y-76110000D03*
X114310000Y-77340000D03*
X111680000Y-77340000D03*
X109350000Y-76110000D03*
X107860000Y-73940000D03*
X107540000Y-71330000D03*
X108470000Y-68870000D03*
X110440000Y-67130000D03*
D14*
X117000000Y-60600000D03*
X117000000Y-55400000D03*
X137000000Y-55400000D03*
X137000000Y-60600000D03*
D15*
X129600000Y-68000000D03*
X124400000Y-68000000D03*
X124400000Y-48000000D03*
X129650000Y-48000000D03*
D16*
X120000000Y-51000000D03*
D17*
X122999901Y-48000099D02*
X117000099Y-53999901D01*
D16*
X134000000Y-65000000D03*
D17*
X136999901Y-62000099D02*
X131000099Y-67999901D01*
D16*
X120000000Y-65000000D03*
D17*
X117000099Y-62000099D02*
X122999901Y-67999901D01*
D16*
X134000000Y-51000000D03*
D17*
X131000099Y-48000099D02*
X136999901Y-53999901D01*
D12*
X128914525Y-65767534D03*
X119519871Y-60836839D03*
X125085475Y-65767534D03*
X119058330Y-57035707D03*
X134480129Y-60836839D03*
X121695019Y-63988085D03*
X120416130Y-53455483D03*
X132304981Y-63988085D03*
X123282215Y-50916352D03*
X134941670Y-57035707D03*
X133583870Y-53455483D03*
X130810000Y-50916352D03*
X127000000Y-50000000D03*
D11*
X127000000Y-58000000D03*
D19*
X127000000Y-52500000D03*
X129560000Y-53130000D03*
X131530000Y-54870000D03*
X132460000Y-57330000D03*
X132140000Y-59940000D03*
X130640000Y-62110000D03*
X128310000Y-63340000D03*
X125680000Y-63340000D03*
X123350000Y-62110000D03*
X121860000Y-59940000D03*
X121540000Y-57330000D03*
X122470000Y-54870000D03*
X124440000Y-53130000D03*
D14*
X89000000Y-60600000D03*
X89000000Y-55400000D03*
X109000000Y-55400000D03*
X109000000Y-60600000D03*
D15*
X101600000Y-68000000D03*
X96400000Y-68000000D03*
X96400000Y-48000000D03*
X101650000Y-48000000D03*
D16*
X92000000Y-51000000D03*
D17*
X94999901Y-48000099D02*
X89000099Y-53999901D01*
D16*
X106000000Y-65000000D03*
D17*
X108999901Y-62000099D02*
X103000099Y-67999901D01*
D16*
X92000000Y-65000000D03*
D17*
X89000099Y-62000099D02*
X94999901Y-67999901D01*
D16*
X106000000Y-51000000D03*
D17*
X103000099Y-48000099D02*
X108999901Y-53999901D01*
D12*
X100914525Y-65767534D03*
X91519871Y-60836839D03*
X97085475Y-65767534D03*
X91058330Y-57035707D03*
X106480129Y-60836839D03*
X93695019Y-63988085D03*
X92416130Y-53455483D03*
X104304981Y-63988085D03*
X95282215Y-50916352D03*
X106941670Y-57035707D03*
X105583870Y-53455483D03*
X102810000Y-50916352D03*
X99000000Y-50000000D03*
D11*
X99000000Y-58000000D03*
D19*
X99000000Y-52500000D03*
X101560000Y-53130000D03*
X103530000Y-54870000D03*
X104460000Y-57330000D03*
X104140000Y-59940000D03*
X102640000Y-62110000D03*
X100310000Y-63340000D03*
X97680000Y-63340000D03*
X95350000Y-62110000D03*
X93860000Y-59940000D03*
X93540000Y-57330000D03*
X94470000Y-54870000D03*
X96440000Y-53130000D03*
D13*
X52000000Y-116160000D03*
X44380000Y-116160000D03*
X46920000Y-116160000D03*
X49460000Y-116160000D03*
X54540000Y-116160000D03*
X57080000Y-116160000D03*
X59620000Y-116160000D03*
X44380000Y-95840000D03*
X49460000Y-95840000D03*
X46920000Y-95840000D03*
X59620000Y-95840000D03*
X57080000Y-95840000D03*
X54540000Y-95840000D03*
X52000000Y-95840000D03*
D12*
X53914525Y-113767534D03*
X44519871Y-108836839D03*
X50085475Y-113767534D03*
X44058330Y-105035707D03*
X59480129Y-108836839D03*
X46695019Y-111988085D03*
X45416130Y-101455483D03*
X57304981Y-111988085D03*
X48282215Y-98916352D03*
X59941670Y-105035707D03*
X58583870Y-101455483D03*
X55810000Y-98916352D03*
X52000000Y-98000000D03*
D11*
X52000000Y-106000000D03*
D13*
X73000000Y-116160000D03*
X65380000Y-116160000D03*
X67920000Y-116160000D03*
X70460000Y-116160000D03*
X75540000Y-116160000D03*
X78080000Y-116160000D03*
X80620000Y-116160000D03*
X65380000Y-95840000D03*
X70460000Y-95840000D03*
X67920000Y-95840000D03*
X80620000Y-95840000D03*
X78080000Y-95840000D03*
X75540000Y-95840000D03*
X73000000Y-95840000D03*
D12*
X74914525Y-113767534D03*
X65519871Y-108836839D03*
X71085475Y-113767534D03*
X65058330Y-105035707D03*
X80480129Y-108836839D03*
X67695019Y-111988085D03*
X66416130Y-101455483D03*
X78304981Y-111988085D03*
X69282215Y-98916352D03*
X80941670Y-105035707D03*
X79583870Y-101455483D03*
X76810000Y-98916352D03*
X73000000Y-98000000D03*
D11*
X73000000Y-106000000D03*
D13*
X52000000Y-91160000D03*
X44380000Y-91160000D03*
X46920000Y-91160000D03*
X49460000Y-91160000D03*
X54540000Y-91160000D03*
X57080000Y-91160000D03*
X59620000Y-91160000D03*
X44380000Y-70840000D03*
X49460000Y-70840000D03*
X46920000Y-70840000D03*
X59620000Y-70840000D03*
X57080000Y-70840000D03*
X54540000Y-70840000D03*
X52000000Y-70840000D03*
D12*
X53914525Y-88767534D03*
X44519871Y-83836839D03*
X50085475Y-88767534D03*
X44058330Y-80035707D03*
X59480129Y-83836839D03*
X46695019Y-86988085D03*
X45416130Y-76455483D03*
X57304981Y-86988085D03*
X48282215Y-73916352D03*
X59941670Y-80035707D03*
X58583870Y-76455483D03*
X55810000Y-73916352D03*
X52000000Y-73000000D03*
D11*
X52000000Y-81000000D03*
D13*
X73000000Y-91160000D03*
X65380000Y-91160000D03*
X67920000Y-91160000D03*
X70460000Y-91160000D03*
X75540000Y-91160000D03*
X78080000Y-91160000D03*
X80620000Y-91160000D03*
X65380000Y-70840000D03*
X70460000Y-70840000D03*
X67920000Y-70840000D03*
X80620000Y-70840000D03*
X78080000Y-70840000D03*
X75540000Y-70840000D03*
X73000000Y-70840000D03*
D12*
X74914525Y-88767534D03*
X65519871Y-83836839D03*
X71085475Y-88767534D03*
X65058330Y-80035707D03*
X80480129Y-83836839D03*
X67695019Y-86988085D03*
X66416130Y-76455483D03*
X78304981Y-86988085D03*
X69282215Y-73916352D03*
X80941670Y-80035707D03*
X79583870Y-76455483D03*
X76810000Y-73916352D03*
X73000000Y-73000000D03*
D11*
X73000000Y-81000000D03*
D10*
X84000000Y-106500000D03*
D22*
X103530000Y-54870000D02*
X104944517Y-53455483D01*
X104944517Y-53455483D02*
X105583870Y-53455483D01*
X104460000Y-57330000D02*
X106647377Y-57330000D01*
X106647377Y-57330000D02*
X106941670Y-57035707D01*
X106480129Y-60836839D02*
X105036839Y-60836839D01*
X105036839Y-60836839D02*
X104140000Y-59940000D01*
X104304981Y-63988085D02*
X102640000Y-62323104D01*
X102640000Y-62323104D02*
X102640000Y-62110000D01*
X100914525Y-65767534D02*
X100914525Y-63944525D01*
X100914525Y-63944525D02*
X100310000Y-63340000D01*
X97085475Y-65767534D02*
X97085475Y-63934525D01*
X97085475Y-63934525D02*
X97680000Y-63340000D01*
X93695019Y-63988085D02*
X95350000Y-62333104D01*
X95350000Y-62333104D02*
X95350000Y-62110000D01*
X93860000Y-59940000D02*
X92416710Y-59940000D01*
X92416710Y-59940000D02*
X91519871Y-60836839D01*
X91058330Y-57035707D02*
X93245707Y-57035707D01*
X93245707Y-57035707D02*
X93540000Y-57330000D01*
X94470000Y-54870000D02*
X93055483Y-53455483D01*
X93055483Y-53455483D02*
X92416130Y-53455483D01*
X96440000Y-53130000D02*
X95282215Y-51972215D01*
X95282215Y-51972215D02*
X95282215Y-50916352D01*
X99000000Y-52500000D02*
X99000000Y-50000000D01*
X128914525Y-65767534D02*
X128914525Y-63944525D01*
X128914525Y-63944525D02*
X128310000Y-63340000D01*
X130640000Y-62110000D02*
X132304981Y-63774981D01*
X132304981Y-63774981D02*
X132304981Y-63988085D01*
X132140000Y-59940000D02*
X133036839Y-60836839D01*
X133036839Y-60836839D02*
X134480129Y-60836839D01*
X132460000Y-57330000D02*
X134647377Y-57330000D01*
X134647377Y-57330000D02*
X134941670Y-57035707D01*
X131530000Y-54870000D02*
X132944517Y-53455483D01*
X132944517Y-53455483D02*
X133583870Y-53455483D01*
X129560000Y-53130000D02*
X130810000Y-51880000D01*
X130810000Y-51880000D02*
X130810000Y-50916352D01*
X124440000Y-53130000D02*
X123282215Y-51972215D01*
X123282215Y-51972215D02*
X123282215Y-50916352D01*
X122470000Y-54870000D02*
X121055483Y-53455483D01*
X121055483Y-53455483D02*
X120416130Y-53455483D01*
X119058330Y-57035707D02*
X121245707Y-57035707D01*
X121245707Y-57035707D02*
X121540000Y-57330000D01*
X121860000Y-59940000D02*
X120416710Y-59940000D01*
X120416710Y-59940000D02*
X119519871Y-60836839D01*
X123350000Y-62110000D02*
X121695019Y-63764981D01*
X121695019Y-63764981D02*
X121695019Y-63988085D01*
X125680000Y-63340000D02*
X125680000Y-65173009D01*
X125680000Y-65173009D02*
X125085475Y-65767534D01*
X127000000Y-52500000D02*
X127000000Y-51297919D01*
X127000000Y-51297919D02*
X127000000Y-50000000D01*
X114310000Y-77340000D02*
X114310000Y-79163009D01*
X114310000Y-79163009D02*
X114914525Y-79767534D01*
X116640000Y-76110000D02*
X118304981Y-77774981D01*
X118304981Y-77774981D02*
X118304981Y-77988085D01*
X120480129Y-74836839D02*
X119583290Y-73940000D01*
X119583290Y-73940000D02*
X118140000Y-73940000D01*
X118460000Y-71330000D02*
X120647377Y-71330000D01*
X120647377Y-71330000D02*
X120941670Y-71035707D01*
X117530000Y-68870000D02*
X118944517Y-67455483D01*
X118944517Y-67455483D02*
X119583870Y-67455483D01*
X115560000Y-67130000D02*
X116810000Y-65880000D01*
X116810000Y-65880000D02*
X116810000Y-64916352D01*
X113000000Y-66500000D02*
X113000000Y-64000000D01*
X110440000Y-67130000D02*
X109282215Y-65972215D01*
X109282215Y-65972215D02*
X109282215Y-64916352D01*
X108470000Y-68870000D02*
X107055483Y-67455483D01*
X107055483Y-67455483D02*
X106416130Y-67455483D01*
X107540000Y-71330000D02*
X105352623Y-71330000D01*
X105352623Y-71330000D02*
X105058330Y-71035707D01*
X107860000Y-73940000D02*
X106416710Y-73940000D01*
X106416710Y-73940000D02*
X105519871Y-74836839D01*
X107695019Y-77988085D02*
X109350000Y-76333104D01*
X109350000Y-76333104D02*
X109350000Y-76110000D01*
X111680000Y-77340000D02*
X111680000Y-79173009D01*
X111680000Y-79173009D02*
X111085475Y-79767534D01*
X101560000Y-81130000D02*
X102810000Y-79880000D01*
X102810000Y-79880000D02*
X102810000Y-78916352D01*
X103530000Y-82870000D02*
X104944517Y-81455483D01*
X104944517Y-81455483D02*
X105583870Y-81455483D01*
X106941670Y-85035707D02*
X104754293Y-85035707D01*
X104754293Y-85035707D02*
X104460000Y-85330000D01*
X104140000Y-87940000D02*
X105583290Y-87940000D01*
X105583290Y-87940000D02*
X106480129Y-88836839D01*
X102640000Y-90110000D02*
X104304981Y-91774981D01*
X104304981Y-91774981D02*
X104304981Y-91988085D01*
X100310000Y-91340000D02*
X100310000Y-93163009D01*
X100310000Y-93163009D02*
X100914525Y-93767534D01*
X97680000Y-91340000D02*
X97680000Y-93173009D01*
X97680000Y-93173009D02*
X97085475Y-93767534D01*
X95350000Y-90110000D02*
X93695019Y-91764981D01*
X93695019Y-91764981D02*
X93695019Y-91988085D01*
X93860000Y-87940000D02*
X92416710Y-87940000D01*
X92416710Y-87940000D02*
X91519871Y-88836839D01*
X93540000Y-85330000D02*
X91352623Y-85330000D01*
X91352623Y-85330000D02*
X91058330Y-85035707D01*
X94470000Y-82870000D02*
X93055483Y-81455483D01*
X93055483Y-81455483D02*
X92416130Y-81455483D01*
X96440000Y-81130000D02*
X95282215Y-79972215D01*
X95282215Y-79972215D02*
X95282215Y-78916352D01*
X99000000Y-80500000D02*
X99000000Y-78000000D01*
X119519871Y-88836839D02*
X120416710Y-87940000D01*
X120416710Y-87940000D02*
X121860000Y-87940000D01*
X121540000Y-85330000D02*
X119352623Y-85330000D01*
X119352623Y-85330000D02*
X119058330Y-85035707D01*
X122470000Y-82870000D02*
X121055483Y-81455483D01*
X121055483Y-81455483D02*
X120416130Y-81455483D01*
X124440000Y-81130000D02*
X123282215Y-79972215D01*
X123282215Y-79972215D02*
X123282215Y-78916352D01*
X127000000Y-80500000D02*
X127000000Y-79297919D01*
X127000000Y-79297919D02*
X127000000Y-78000000D01*
X130810000Y-78916352D02*
X130810000Y-79880000D01*
X130810000Y-79880000D02*
X129560000Y-81130000D01*
X131530000Y-82870000D02*
X132944517Y-81455483D01*
X132944517Y-81455483D02*
X133583870Y-81455483D01*
X132460000Y-85330000D02*
X134647377Y-85330000D01*
X134647377Y-85330000D02*
X134941670Y-85035707D01*
X132140000Y-87940000D02*
X133036839Y-88836839D01*
X133036839Y-88836839D02*
X134480129Y-88836839D01*
X130640000Y-90110000D02*
X132304981Y-91774981D01*
X132304981Y-91774981D02*
X132304981Y-91988085D01*
X121695019Y-91988085D02*
X123350000Y-90333104D01*
X123350000Y-90333104D02*
X123350000Y-90110000D01*
X125085475Y-93767534D02*
X125085475Y-91934525D01*
X125085475Y-91934525D02*
X125680000Y-91340000D01*
X128914525Y-93767534D02*
X128914525Y-91944525D01*
X128914525Y-91944525D02*
X128310000Y-91340000D01*
X117530000Y-96870000D02*
X118944517Y-95455483D01*
X118944517Y-95455483D02*
X119583870Y-95455483D01*
X115560000Y-95130000D02*
X116810000Y-93880000D01*
X116810000Y-93880000D02*
X116810000Y-92916352D01*
X113000000Y-94500000D02*
X113000000Y-92000000D01*
X110440000Y-95130000D02*
X109282215Y-93972215D01*
X109282215Y-93972215D02*
X109282215Y-92916352D01*
X108470000Y-96870000D02*
X107055483Y-95455483D01*
X107055483Y-95455483D02*
X106416130Y-95455483D01*
X107540000Y-99330000D02*
X105352623Y-99330000D01*
X105352623Y-99330000D02*
X105058330Y-99035707D01*
X107860000Y-101940000D02*
X106416710Y-101940000D01*
X106416710Y-101940000D02*
X105519871Y-102836839D01*
X109350000Y-104110000D02*
X107695019Y-105764981D01*
X107695019Y-105764981D02*
X107695019Y-105988085D01*
X118460000Y-99330000D02*
X120647377Y-99330000D01*
X120647377Y-99330000D02*
X120941670Y-99035707D01*
X118140000Y-101940000D02*
X119036839Y-102836839D01*
X119036839Y-102836839D02*
X120480129Y-102836839D01*
X116640000Y-104110000D02*
X118304981Y-105774981D01*
X118304981Y-105774981D02*
X118304981Y-105988085D01*
X114310000Y-105340000D02*
X114310000Y-107163009D01*
X114310000Y-107163009D02*
X114914525Y-107767534D01*
X111680000Y-105340000D02*
X111680000Y-107173009D01*
X111680000Y-107173009D02*
X111085475Y-107767534D01*
X125085475Y-121767534D02*
X125085475Y-119934525D01*
X125085475Y-119934525D02*
X125680000Y-119340000D01*
X128310000Y-119340000D02*
X128310000Y-121163009D01*
X128310000Y-121163009D02*
X128914525Y-121767534D01*
X130640000Y-118110000D02*
X132304981Y-119774981D01*
X132304981Y-119774981D02*
X132304981Y-119988085D01*
X132140000Y-115940000D02*
X133583290Y-115940000D01*
X133583290Y-115940000D02*
X134480129Y-116836839D01*
X132460000Y-113330000D02*
X134647377Y-113330000D01*
X134647377Y-113330000D02*
X134941670Y-113035707D01*
X131530000Y-110870000D02*
X132944517Y-109455483D01*
X132944517Y-109455483D02*
X133583870Y-109455483D01*
X129560000Y-109130000D02*
X130810000Y-107880000D01*
X130810000Y-107880000D02*
X130810000Y-106916352D01*
X127000000Y-108500000D02*
X127000000Y-106000000D01*
X124440000Y-109130000D02*
X123282215Y-107972215D01*
X123282215Y-107972215D02*
X123282215Y-106916352D01*
X122470000Y-110870000D02*
X121055483Y-109455483D01*
X121055483Y-109455483D02*
X120416130Y-109455483D01*
X121540000Y-113330000D02*
X119352623Y-113330000D01*
X119352623Y-113330000D02*
X119058330Y-113035707D01*
X119519871Y-116836839D02*
X120416710Y-115940000D01*
X120416710Y-115940000D02*
X121860000Y-115940000D01*
X121695019Y-119988085D02*
X123350000Y-118333104D01*
X123350000Y-118333104D02*
X123350000Y-118110000D01*
X111085475Y-135767534D02*
X111085475Y-133934525D01*
X111085475Y-133934525D02*
X111680000Y-133340000D01*
X114914525Y-135767534D02*
X114914525Y-133944525D01*
X114914525Y-133944525D02*
X114310000Y-133340000D01*
X116640000Y-132110000D02*
X118304981Y-133774981D01*
X118304981Y-133774981D02*
X118304981Y-133988085D01*
X120480129Y-130836839D02*
X119036839Y-130836839D01*
X119036839Y-130836839D02*
X118140000Y-129940000D01*
X118460000Y-127330000D02*
X120647377Y-127330000D01*
X120647377Y-127330000D02*
X120941670Y-127035707D01*
X117530000Y-124870000D02*
X118944517Y-123455483D01*
X118944517Y-123455483D02*
X119583870Y-123455483D01*
X115560000Y-123130000D02*
X116810000Y-121880000D01*
X116810000Y-121880000D02*
X116810000Y-120916352D01*
X113000000Y-122500000D02*
X113000000Y-120000000D01*
X110440000Y-123130000D02*
X109282215Y-121972215D01*
X109282215Y-121972215D02*
X109282215Y-120916352D01*
X108470000Y-124870000D02*
X107055483Y-123455483D01*
X107055483Y-123455483D02*
X106416130Y-123455483D01*
X107540000Y-127330000D02*
X105352623Y-127330000D01*
X105352623Y-127330000D02*
X105058330Y-127035707D01*
X107860000Y-129940000D02*
X106416710Y-129940000D01*
X106416710Y-129940000D02*
X105519871Y-130836839D01*
X107695019Y-133988085D02*
X109350000Y-132333104D01*
X109350000Y-132333104D02*
X109350000Y-132110000D01*
X97085475Y-121767534D02*
X97085475Y-119934525D01*
X97085475Y-119934525D02*
X97680000Y-119340000D01*
X93500000Y-119960000D02*
X93666934Y-119960000D01*
X93666934Y-119960000D02*
X93695019Y-119988085D01*
X95350000Y-118110000D02*
X93500000Y-119960000D01*
X91519871Y-116836839D02*
X92416710Y-115940000D01*
X92416710Y-115940000D02*
X93860000Y-115940000D01*
X93540000Y-113330000D02*
X91352623Y-113330000D01*
X91352623Y-113330000D02*
X91058330Y-113035707D01*
X92416130Y-109455483D02*
X93830647Y-110870000D01*
X93830647Y-110870000D02*
X94470000Y-110870000D01*
X96440000Y-109130000D02*
X95282215Y-107972215D01*
X95282215Y-107972215D02*
X95282215Y-106916352D01*
X99000000Y-108500000D02*
X99000000Y-106000000D01*
X101560000Y-109130000D02*
X102810000Y-107880000D01*
X102810000Y-107880000D02*
X102810000Y-106916352D01*
X103530000Y-110870000D02*
X104944517Y-109455483D01*
X104944517Y-109455483D02*
X105583870Y-109455483D01*
X104460000Y-113330000D02*
X106647377Y-113330000D01*
X106647377Y-113330000D02*
X106941670Y-113035707D01*
X106480129Y-116836839D02*
X105583290Y-115940000D01*
X105583290Y-115940000D02*
X104140000Y-115940000D01*
X104304981Y-119988085D02*
X102640000Y-118323104D01*
X102640000Y-118323104D02*
X102640000Y-118110000D01*
X100914525Y-121767534D02*
X100914525Y-119944525D01*
X100914525Y-119944525D02*
X100310000Y-119340000D01*
X73000000Y-98000000D02*
X73000000Y-95840000D01*
X69282215Y-98916352D02*
X69282215Y-97017785D01*
X69282215Y-97017785D02*
X70460000Y-95840000D01*
X66416130Y-101455483D02*
X67920000Y-99951613D01*
X67920000Y-99951613D02*
X67920000Y-95840000D01*
X76810000Y-98916352D02*
X76810000Y-97110000D01*
X76810000Y-97110000D02*
X75540000Y-95840000D01*
X79583870Y-101455483D02*
X79583870Y-97343870D01*
X79583870Y-97343870D02*
X78080000Y-95840000D01*
X80941670Y-105035707D02*
X80941670Y-96161670D01*
X80941670Y-96161670D02*
X80620000Y-95840000D01*
X65058330Y-105035707D02*
X65058330Y-96161670D01*
X65058330Y-96161670D02*
X65380000Y-95840000D01*
X80480129Y-108836839D02*
X80480129Y-116020129D01*
X80480129Y-116020129D02*
X80620000Y-116160000D01*
X78080000Y-116160000D02*
X78080000Y-112213066D01*
X78080000Y-112213066D02*
X78304981Y-111988085D01*
X75540000Y-116160000D02*
X75540000Y-114393009D01*
X75540000Y-114393009D02*
X74914525Y-113767534D01*
X65519871Y-108836839D02*
X65519871Y-116020129D01*
X65519871Y-116020129D02*
X65380000Y-116160000D01*
X67920000Y-116160000D02*
X67920000Y-112213066D01*
X67920000Y-112213066D02*
X67695019Y-111988085D01*
X70460000Y-116160000D02*
X70460000Y-114393009D01*
X70460000Y-114393009D02*
X71085475Y-113767534D01*
X80941670Y-130035707D02*
X80941670Y-121161670D01*
X80941670Y-121161670D02*
X80620000Y-120840000D01*
X78080000Y-120840000D02*
X78080000Y-124951613D01*
X78080000Y-124951613D02*
X79583870Y-126455483D01*
X75540000Y-120840000D02*
X75540000Y-122646352D01*
X75540000Y-122646352D02*
X76810000Y-123916352D01*
X73000000Y-120840000D02*
X73000000Y-123000000D01*
X69282215Y-123916352D02*
X69282215Y-122017785D01*
X69282215Y-122017785D02*
X70460000Y-120840000D01*
X66416130Y-126455483D02*
X67920000Y-124951613D01*
X67920000Y-124951613D02*
X67920000Y-120840000D01*
X65058330Y-130035707D02*
X65058330Y-121161670D01*
X65058330Y-121161670D02*
X65380000Y-120840000D01*
X80620000Y-141160000D02*
X80620000Y-133976710D01*
X80620000Y-133976710D02*
X80480129Y-133836839D01*
X78080000Y-141160000D02*
X78080000Y-137213066D01*
X78080000Y-137213066D02*
X78304981Y-136988085D01*
X75540000Y-141160000D02*
X75540000Y-139393009D01*
X75540000Y-139393009D02*
X74914525Y-138767534D01*
X70460000Y-141160000D02*
X70460000Y-139393009D01*
X70460000Y-139393009D02*
X71085475Y-138767534D01*
X67920000Y-141160000D02*
X67920000Y-137213066D01*
X67920000Y-137213066D02*
X67695019Y-136988085D01*
X65380000Y-141160000D02*
X65380000Y-133976710D01*
X65380000Y-133976710D02*
X65519871Y-133836839D01*
X59480129Y-133836839D02*
X59480129Y-141020129D01*
X59480129Y-141020129D02*
X59620000Y-141160000D01*
X57080000Y-141160000D02*
X57080000Y-137213066D01*
X57080000Y-137213066D02*
X57304981Y-136988085D01*
X53914525Y-138767534D02*
X53914525Y-140534525D01*
X53914525Y-140534525D02*
X54540000Y-141160000D01*
X44519871Y-133836839D02*
X44519871Y-141020129D01*
X44519871Y-141020129D02*
X44380000Y-141160000D01*
X46920000Y-141160000D02*
X46920000Y-137213066D01*
X46920000Y-137213066D02*
X46695019Y-136988085D01*
X49460000Y-141160000D02*
X49460000Y-139393009D01*
X49460000Y-139393009D02*
X50085475Y-138767534D01*
X59941670Y-130035707D02*
X59941670Y-121161670D01*
X59941670Y-121161670D02*
X59620000Y-120840000D01*
X57080000Y-120840000D02*
X57080000Y-124951613D01*
X57080000Y-124951613D02*
X58583870Y-126455483D01*
X55810000Y-123916352D02*
X55810000Y-122110000D01*
X55810000Y-122110000D02*
X54540000Y-120840000D01*
X44058330Y-130035707D02*
X44058330Y-121161670D01*
X44058330Y-121161670D02*
X44380000Y-120840000D01*
X44519871Y-108836839D02*
X44519871Y-116020129D01*
X44519871Y-116020129D02*
X44380000Y-116160000D01*
X46695019Y-111988085D02*
X46695019Y-115935019D01*
X46695019Y-115935019D02*
X46920000Y-116160000D01*
X50085475Y-113767534D02*
X49460000Y-114393009D01*
X49460000Y-114393009D02*
X49460000Y-116160000D01*
X53914525Y-113767534D02*
X53914525Y-115534525D01*
X53914525Y-115534525D02*
X54540000Y-116160000D01*
X57304981Y-111988085D02*
X57304981Y-115935019D01*
X57304981Y-115935019D02*
X57080000Y-116160000D01*
X59480129Y-108836839D02*
X59480129Y-116020129D01*
X59480129Y-116020129D02*
X59620000Y-116160000D01*
X44058330Y-105035707D02*
X44058330Y-96161670D01*
X44058330Y-96161670D02*
X44380000Y-95840000D01*
X59941670Y-105035707D02*
X59941670Y-96161670D01*
X59941670Y-96161670D02*
X59620000Y-95840000D01*
X57080000Y-95840000D02*
X57080000Y-99951613D01*
X57080000Y-99951613D02*
X58583870Y-101455483D01*
X55810000Y-98916352D02*
X55810000Y-97110000D01*
X55810000Y-97110000D02*
X54540000Y-95840000D01*
X52000000Y-95840000D02*
X52000000Y-98000000D01*
X48282215Y-98916352D02*
X48282215Y-97017785D01*
X48282215Y-97017785D02*
X49460000Y-95840000D01*
X45416130Y-101455483D02*
X46920000Y-99951613D01*
X46920000Y-99951613D02*
X46920000Y-95840000D01*
X46695019Y-86988085D02*
X46695019Y-90935019D01*
X46695019Y-90935019D02*
X46920000Y-91160000D01*
X44519871Y-83836839D02*
X44519871Y-91020129D01*
X44519871Y-91020129D02*
X44380000Y-91160000D01*
X50085475Y-88767534D02*
X49460000Y-89393009D01*
X49460000Y-89393009D02*
X49460000Y-91160000D01*
X53914525Y-88767534D02*
X53914525Y-90534525D01*
X53914525Y-90534525D02*
X54540000Y-91160000D01*
X57304981Y-86988085D02*
X57304981Y-90935019D01*
X57304981Y-90935019D02*
X57080000Y-91160000D01*
X59480129Y-83836839D02*
X59480129Y-91020129D01*
X59480129Y-91020129D02*
X59620000Y-91160000D01*
X65380000Y-91160000D02*
X65380000Y-83976710D01*
X65380000Y-83976710D02*
X65519871Y-83836839D01*
X67695019Y-86988085D02*
X67695019Y-90935019D01*
X67695019Y-90935019D02*
X67920000Y-91160000D01*
X71085475Y-88767534D02*
X70460000Y-89393009D01*
X70460000Y-89393009D02*
X70460000Y-91160000D01*
X74914525Y-88767534D02*
X75540000Y-89393009D01*
X75540000Y-89393009D02*
X75540000Y-91160000D01*
X78304981Y-86988085D02*
X78304981Y-90935019D01*
X78304981Y-90935019D02*
X78080000Y-91160000D01*
X80480129Y-83836839D02*
X80480129Y-91020129D01*
X80480129Y-91020129D02*
X80620000Y-91160000D01*
X80941670Y-80035707D02*
X80941670Y-71161670D01*
X80941670Y-71161670D02*
X80620000Y-70840000D01*
X78080000Y-70840000D02*
X78080000Y-74951613D01*
X78080000Y-74951613D02*
X79583870Y-76455483D01*
X75540000Y-70840000D02*
X75540000Y-72646352D01*
X75540000Y-72646352D02*
X76810000Y-73916352D01*
X73000000Y-73000000D02*
X73000000Y-70840000D01*
X69282215Y-73916352D02*
X69282215Y-72017785D01*
X69282215Y-72017785D02*
X70460000Y-70840000D01*
X66416130Y-76455483D02*
X67920000Y-74951613D01*
X67920000Y-74951613D02*
X67920000Y-70840000D01*
X65058330Y-80035707D02*
X65058330Y-71161670D01*
X65058330Y-71161670D02*
X65380000Y-70840000D01*
X59941670Y-80035707D02*
X59941670Y-71161670D01*
X59941670Y-71161670D02*
X59620000Y-70840000D01*
X57080000Y-70840000D02*
X57080000Y-74951613D01*
X57080000Y-74951613D02*
X58583870Y-76455483D01*
X55810000Y-73916352D02*
X55810000Y-72110000D01*
X55810000Y-72110000D02*
X54540000Y-70840000D01*
X44058330Y-80035707D02*
X44058330Y-71161670D01*
X44058330Y-71161670D02*
X44380000Y-70840000D01*
X46920000Y-70840000D02*
X45416130Y-72343870D01*
X45416130Y-72343870D02*
X45416130Y-76455483D01*
X48282215Y-73916352D02*
X48282215Y-72017785D01*
X48282215Y-72017785D02*
X49460000Y-70840000D01*
X52000000Y-73000000D02*
X52000000Y-70840000D01*
X46920000Y-120840000D02*
X46920000Y-124951613D01*
X46920000Y-124951613D02*
X45416130Y-126455483D01*
X48282215Y-123916352D02*
X48282215Y-122017785D01*
X48282215Y-122017785D02*
X49460000Y-120840000D01*
X52000000Y-123000000D02*
X52000000Y-120840000D01*
M02*
