G04 #@! TF.GenerationSoftware,KiCad,Pcbnew,(2018-01-14 revision 63e55e918)-makepkg*
G04 #@! TF.CreationDate,2018-02-22T22:40:35+00:00*
G04 #@! TF.ProjectId,Test nixie bearing,54657374206E69786965206265617269,rev?*
G04 #@! TF.SameCoordinates,Original*
G04 #@! TF.FileFunction,Legend,Bot*
G04 #@! TF.FilePolarity,Positive*
%FSLAX46Y46*%
G04 Gerber Fmt 4.6, Leading zero omitted, Abs format (unit mm)*
G04 Created by KiCad (PCBNEW (2018-01-14 revision 63e55e918)-makepkg) date 02/22/18 22:40:35*
%MOMM*%
%LPD*%
G01*
G04 APERTURE LIST*
%ADD10C,0.150000*%
G04 APERTURE END LIST*
D10*
X98110923Y-110856704D02*
X98110923Y-110056704D01*
X97806161Y-110056704D01*
X97729971Y-110094800D01*
X97691876Y-110132895D01*
X97653780Y-110209085D01*
X97653780Y-110323371D01*
X97691876Y-110399561D01*
X97729971Y-110437657D01*
X97806161Y-110475752D01*
X98110923Y-110475752D01*
X96853780Y-110856704D02*
X97120447Y-110475752D01*
X97310923Y-110856704D02*
X97310923Y-110056704D01*
X97006161Y-110056704D01*
X96929971Y-110094800D01*
X96891876Y-110132895D01*
X96853780Y-110209085D01*
X96853780Y-110323371D01*
X96891876Y-110399561D01*
X96929971Y-110437657D01*
X97006161Y-110475752D01*
X97310923Y-110475752D01*
X95847219Y-111318780D02*
X95751980Y-111318780D01*
X95656742Y-111366400D01*
X95609123Y-111414019D01*
X95561504Y-111509257D01*
X95513885Y-111699733D01*
X95513885Y-111937828D01*
X95561504Y-112128304D01*
X95609123Y-112223542D01*
X95656742Y-112271161D01*
X95751980Y-112318780D01*
X95847219Y-112318780D01*
X95942457Y-112271161D01*
X95990076Y-112223542D01*
X96037695Y-112128304D01*
X96085314Y-111937828D01*
X96085314Y-111699733D01*
X96037695Y-111509257D01*
X95990076Y-111414019D01*
X95942457Y-111366400D01*
X95847219Y-111318780D01*
X95405876Y-113944380D02*
X95215400Y-113944380D01*
X95120161Y-113896761D01*
X95072542Y-113849142D01*
X94977304Y-113706285D01*
X94929685Y-113515809D01*
X94929685Y-113134857D01*
X94977304Y-113039619D01*
X95024923Y-112992000D01*
X95120161Y-112944380D01*
X95310638Y-112944380D01*
X95405876Y-112992000D01*
X95453495Y-113039619D01*
X95501114Y-113134857D01*
X95501114Y-113372952D01*
X95453495Y-113468190D01*
X95405876Y-113515809D01*
X95310638Y-113563428D01*
X95120161Y-113563428D01*
X95024923Y-113515809D01*
X94977304Y-113468190D01*
X94929685Y-113372952D01*
X95539238Y-115252552D02*
X95634476Y-115204933D01*
X95682095Y-115157314D01*
X95729714Y-115062076D01*
X95729714Y-115014457D01*
X95682095Y-114919219D01*
X95634476Y-114871600D01*
X95539238Y-114823980D01*
X95348761Y-114823980D01*
X95253523Y-114871600D01*
X95205904Y-114919219D01*
X95158285Y-115014457D01*
X95158285Y-115062076D01*
X95205904Y-115157314D01*
X95253523Y-115204933D01*
X95348761Y-115252552D01*
X95539238Y-115252552D01*
X95634476Y-115300171D01*
X95682095Y-115347790D01*
X95729714Y-115443028D01*
X95729714Y-115633504D01*
X95682095Y-115728742D01*
X95634476Y-115776361D01*
X95539238Y-115823980D01*
X95348761Y-115823980D01*
X95253523Y-115776361D01*
X95205904Y-115728742D01*
X95158285Y-115633504D01*
X95158285Y-115443028D01*
X95205904Y-115347790D01*
X95253523Y-115300171D01*
X95348761Y-115252552D01*
X96793333Y-116525780D02*
X96126666Y-116525780D01*
X96555238Y-117525780D01*
X97869723Y-117262380D02*
X98060200Y-117262380D01*
X98155438Y-117310000D01*
X98203057Y-117357619D01*
X98298295Y-117500476D01*
X98345914Y-117690952D01*
X98345914Y-118071904D01*
X98298295Y-118167142D01*
X98250676Y-118214761D01*
X98155438Y-118262380D01*
X97964961Y-118262380D01*
X97869723Y-118214761D01*
X97822104Y-118167142D01*
X97774485Y-118071904D01*
X97774485Y-117833809D01*
X97822104Y-117738571D01*
X97869723Y-117690952D01*
X97964961Y-117643333D01*
X98155438Y-117643333D01*
X98250676Y-117690952D01*
X98298295Y-117738571D01*
X98345914Y-117833809D01*
X99625504Y-117262380D02*
X100101695Y-117262380D01*
X100149314Y-117738571D01*
X100101695Y-117690952D01*
X100006457Y-117643333D01*
X99768361Y-117643333D01*
X99673123Y-117690952D01*
X99625504Y-117738571D01*
X99577885Y-117833809D01*
X99577885Y-118071904D01*
X99625504Y-118167142D01*
X99673123Y-118214761D01*
X99768361Y-118262380D01*
X100006457Y-118262380D01*
X100101695Y-118214761D01*
X100149314Y-118167142D01*
X101374923Y-116782914D02*
X101374923Y-117449580D01*
X101613019Y-116401961D02*
X101851114Y-117116247D01*
X101232066Y-117116247D01*
X102914733Y-115001780D02*
X102295685Y-115001780D01*
X102629019Y-115382733D01*
X102486161Y-115382733D01*
X102390923Y-115430352D01*
X102343304Y-115477971D01*
X102295685Y-115573209D01*
X102295685Y-115811304D01*
X102343304Y-115906542D01*
X102390923Y-115954161D01*
X102486161Y-116001780D01*
X102771876Y-116001780D01*
X102867114Y-115954161D01*
X102914733Y-115906542D01*
X101184333Y-110882104D02*
X101184333Y-110082104D01*
X100879571Y-110082104D01*
X100803380Y-110120200D01*
X100765285Y-110158295D01*
X100727190Y-110234485D01*
X100727190Y-110348771D01*
X100765285Y-110424961D01*
X100803380Y-110463057D01*
X100879571Y-110501152D01*
X101184333Y-110501152D01*
X100003380Y-110882104D02*
X100384333Y-110882104D01*
X100384333Y-110082104D01*
X103095714Y-112912619D02*
X103048095Y-112865000D01*
X102952857Y-112817380D01*
X102714761Y-112817380D01*
X102619523Y-112865000D01*
X102571904Y-112912619D01*
X102524285Y-113007857D01*
X102524285Y-113103095D01*
X102571904Y-113245952D01*
X103143333Y-113817380D01*
X102524285Y-113817380D01*
X101965485Y-112217180D02*
X102536914Y-112217180D01*
X102251200Y-112217180D02*
X102251200Y-111217180D01*
X102346438Y-111360038D01*
X102441676Y-111455276D01*
X102536914Y-111502895D01*
X99238095Y-110356666D02*
X98761904Y-110356666D01*
X99333333Y-110642380D02*
X99000000Y-109642380D01*
X98666666Y-110642380D01*
X112110923Y-124856704D02*
X112110923Y-124056704D01*
X111806161Y-124056704D01*
X111729971Y-124094800D01*
X111691876Y-124132895D01*
X111653780Y-124209085D01*
X111653780Y-124323371D01*
X111691876Y-124399561D01*
X111729971Y-124437657D01*
X111806161Y-124475752D01*
X112110923Y-124475752D01*
X110853780Y-124856704D02*
X111120447Y-124475752D01*
X111310923Y-124856704D02*
X111310923Y-124056704D01*
X111006161Y-124056704D01*
X110929971Y-124094800D01*
X110891876Y-124132895D01*
X110853780Y-124209085D01*
X110853780Y-124323371D01*
X110891876Y-124399561D01*
X110929971Y-124437657D01*
X111006161Y-124475752D01*
X111310923Y-124475752D01*
X109847219Y-125318780D02*
X109751980Y-125318780D01*
X109656742Y-125366400D01*
X109609123Y-125414019D01*
X109561504Y-125509257D01*
X109513885Y-125699733D01*
X109513885Y-125937828D01*
X109561504Y-126128304D01*
X109609123Y-126223542D01*
X109656742Y-126271161D01*
X109751980Y-126318780D01*
X109847219Y-126318780D01*
X109942457Y-126271161D01*
X109990076Y-126223542D01*
X110037695Y-126128304D01*
X110085314Y-125937828D01*
X110085314Y-125699733D01*
X110037695Y-125509257D01*
X109990076Y-125414019D01*
X109942457Y-125366400D01*
X109847219Y-125318780D01*
X109405876Y-127944380D02*
X109215400Y-127944380D01*
X109120161Y-127896761D01*
X109072542Y-127849142D01*
X108977304Y-127706285D01*
X108929685Y-127515809D01*
X108929685Y-127134857D01*
X108977304Y-127039619D01*
X109024923Y-126992000D01*
X109120161Y-126944380D01*
X109310638Y-126944380D01*
X109405876Y-126992000D01*
X109453495Y-127039619D01*
X109501114Y-127134857D01*
X109501114Y-127372952D01*
X109453495Y-127468190D01*
X109405876Y-127515809D01*
X109310638Y-127563428D01*
X109120161Y-127563428D01*
X109024923Y-127515809D01*
X108977304Y-127468190D01*
X108929685Y-127372952D01*
X109539238Y-129252552D02*
X109634476Y-129204933D01*
X109682095Y-129157314D01*
X109729714Y-129062076D01*
X109729714Y-129014457D01*
X109682095Y-128919219D01*
X109634476Y-128871600D01*
X109539238Y-128823980D01*
X109348761Y-128823980D01*
X109253523Y-128871600D01*
X109205904Y-128919219D01*
X109158285Y-129014457D01*
X109158285Y-129062076D01*
X109205904Y-129157314D01*
X109253523Y-129204933D01*
X109348761Y-129252552D01*
X109539238Y-129252552D01*
X109634476Y-129300171D01*
X109682095Y-129347790D01*
X109729714Y-129443028D01*
X109729714Y-129633504D01*
X109682095Y-129728742D01*
X109634476Y-129776361D01*
X109539238Y-129823980D01*
X109348761Y-129823980D01*
X109253523Y-129776361D01*
X109205904Y-129728742D01*
X109158285Y-129633504D01*
X109158285Y-129443028D01*
X109205904Y-129347790D01*
X109253523Y-129300171D01*
X109348761Y-129252552D01*
X110793333Y-130525780D02*
X110126666Y-130525780D01*
X110555238Y-131525780D01*
X111869723Y-131262380D02*
X112060200Y-131262380D01*
X112155438Y-131310000D01*
X112203057Y-131357619D01*
X112298295Y-131500476D01*
X112345914Y-131690952D01*
X112345914Y-132071904D01*
X112298295Y-132167142D01*
X112250676Y-132214761D01*
X112155438Y-132262380D01*
X111964961Y-132262380D01*
X111869723Y-132214761D01*
X111822104Y-132167142D01*
X111774485Y-132071904D01*
X111774485Y-131833809D01*
X111822104Y-131738571D01*
X111869723Y-131690952D01*
X111964961Y-131643333D01*
X112155438Y-131643333D01*
X112250676Y-131690952D01*
X112298295Y-131738571D01*
X112345914Y-131833809D01*
X113625504Y-131262380D02*
X114101695Y-131262380D01*
X114149314Y-131738571D01*
X114101695Y-131690952D01*
X114006457Y-131643333D01*
X113768361Y-131643333D01*
X113673123Y-131690952D01*
X113625504Y-131738571D01*
X113577885Y-131833809D01*
X113577885Y-132071904D01*
X113625504Y-132167142D01*
X113673123Y-132214761D01*
X113768361Y-132262380D01*
X114006457Y-132262380D01*
X114101695Y-132214761D01*
X114149314Y-132167142D01*
X115374923Y-130782914D02*
X115374923Y-131449580D01*
X115613019Y-130401961D02*
X115851114Y-131116247D01*
X115232066Y-131116247D01*
X116914733Y-129001780D02*
X116295685Y-129001780D01*
X116629019Y-129382733D01*
X116486161Y-129382733D01*
X116390923Y-129430352D01*
X116343304Y-129477971D01*
X116295685Y-129573209D01*
X116295685Y-129811304D01*
X116343304Y-129906542D01*
X116390923Y-129954161D01*
X116486161Y-130001780D01*
X116771876Y-130001780D01*
X116867114Y-129954161D01*
X116914733Y-129906542D01*
X115184333Y-124882104D02*
X115184333Y-124082104D01*
X114879571Y-124082104D01*
X114803380Y-124120200D01*
X114765285Y-124158295D01*
X114727190Y-124234485D01*
X114727190Y-124348771D01*
X114765285Y-124424961D01*
X114803380Y-124463057D01*
X114879571Y-124501152D01*
X115184333Y-124501152D01*
X114003380Y-124882104D02*
X114384333Y-124882104D01*
X114384333Y-124082104D01*
X117095714Y-126912619D02*
X117048095Y-126865000D01*
X116952857Y-126817380D01*
X116714761Y-126817380D01*
X116619523Y-126865000D01*
X116571904Y-126912619D01*
X116524285Y-127007857D01*
X116524285Y-127103095D01*
X116571904Y-127245952D01*
X117143333Y-127817380D01*
X116524285Y-127817380D01*
X115965485Y-126217180D02*
X116536914Y-126217180D01*
X116251200Y-126217180D02*
X116251200Y-125217180D01*
X116346438Y-125360038D01*
X116441676Y-125455276D01*
X116536914Y-125502895D01*
X113238095Y-124356666D02*
X112761904Y-124356666D01*
X113333333Y-124642380D02*
X113000000Y-123642380D01*
X112666666Y-124642380D01*
X126110923Y-110856704D02*
X126110923Y-110056704D01*
X125806161Y-110056704D01*
X125729971Y-110094800D01*
X125691876Y-110132895D01*
X125653780Y-110209085D01*
X125653780Y-110323371D01*
X125691876Y-110399561D01*
X125729971Y-110437657D01*
X125806161Y-110475752D01*
X126110923Y-110475752D01*
X124853780Y-110856704D02*
X125120447Y-110475752D01*
X125310923Y-110856704D02*
X125310923Y-110056704D01*
X125006161Y-110056704D01*
X124929971Y-110094800D01*
X124891876Y-110132895D01*
X124853780Y-110209085D01*
X124853780Y-110323371D01*
X124891876Y-110399561D01*
X124929971Y-110437657D01*
X125006161Y-110475752D01*
X125310923Y-110475752D01*
X123847219Y-111318780D02*
X123751980Y-111318780D01*
X123656742Y-111366400D01*
X123609123Y-111414019D01*
X123561504Y-111509257D01*
X123513885Y-111699733D01*
X123513885Y-111937828D01*
X123561504Y-112128304D01*
X123609123Y-112223542D01*
X123656742Y-112271161D01*
X123751980Y-112318780D01*
X123847219Y-112318780D01*
X123942457Y-112271161D01*
X123990076Y-112223542D01*
X124037695Y-112128304D01*
X124085314Y-111937828D01*
X124085314Y-111699733D01*
X124037695Y-111509257D01*
X123990076Y-111414019D01*
X123942457Y-111366400D01*
X123847219Y-111318780D01*
X123405876Y-113944380D02*
X123215400Y-113944380D01*
X123120161Y-113896761D01*
X123072542Y-113849142D01*
X122977304Y-113706285D01*
X122929685Y-113515809D01*
X122929685Y-113134857D01*
X122977304Y-113039619D01*
X123024923Y-112992000D01*
X123120161Y-112944380D01*
X123310638Y-112944380D01*
X123405876Y-112992000D01*
X123453495Y-113039619D01*
X123501114Y-113134857D01*
X123501114Y-113372952D01*
X123453495Y-113468190D01*
X123405876Y-113515809D01*
X123310638Y-113563428D01*
X123120161Y-113563428D01*
X123024923Y-113515809D01*
X122977304Y-113468190D01*
X122929685Y-113372952D01*
X123539238Y-115252552D02*
X123634476Y-115204933D01*
X123682095Y-115157314D01*
X123729714Y-115062076D01*
X123729714Y-115014457D01*
X123682095Y-114919219D01*
X123634476Y-114871600D01*
X123539238Y-114823980D01*
X123348761Y-114823980D01*
X123253523Y-114871600D01*
X123205904Y-114919219D01*
X123158285Y-115014457D01*
X123158285Y-115062076D01*
X123205904Y-115157314D01*
X123253523Y-115204933D01*
X123348761Y-115252552D01*
X123539238Y-115252552D01*
X123634476Y-115300171D01*
X123682095Y-115347790D01*
X123729714Y-115443028D01*
X123729714Y-115633504D01*
X123682095Y-115728742D01*
X123634476Y-115776361D01*
X123539238Y-115823980D01*
X123348761Y-115823980D01*
X123253523Y-115776361D01*
X123205904Y-115728742D01*
X123158285Y-115633504D01*
X123158285Y-115443028D01*
X123205904Y-115347790D01*
X123253523Y-115300171D01*
X123348761Y-115252552D01*
X124793333Y-116525780D02*
X124126666Y-116525780D01*
X124555238Y-117525780D01*
X125869723Y-117262380D02*
X126060200Y-117262380D01*
X126155438Y-117310000D01*
X126203057Y-117357619D01*
X126298295Y-117500476D01*
X126345914Y-117690952D01*
X126345914Y-118071904D01*
X126298295Y-118167142D01*
X126250676Y-118214761D01*
X126155438Y-118262380D01*
X125964961Y-118262380D01*
X125869723Y-118214761D01*
X125822104Y-118167142D01*
X125774485Y-118071904D01*
X125774485Y-117833809D01*
X125822104Y-117738571D01*
X125869723Y-117690952D01*
X125964961Y-117643333D01*
X126155438Y-117643333D01*
X126250676Y-117690952D01*
X126298295Y-117738571D01*
X126345914Y-117833809D01*
X127625504Y-117262380D02*
X128101695Y-117262380D01*
X128149314Y-117738571D01*
X128101695Y-117690952D01*
X128006457Y-117643333D01*
X127768361Y-117643333D01*
X127673123Y-117690952D01*
X127625504Y-117738571D01*
X127577885Y-117833809D01*
X127577885Y-118071904D01*
X127625504Y-118167142D01*
X127673123Y-118214761D01*
X127768361Y-118262380D01*
X128006457Y-118262380D01*
X128101695Y-118214761D01*
X128149314Y-118167142D01*
X129374923Y-116782914D02*
X129374923Y-117449580D01*
X129613019Y-116401961D02*
X129851114Y-117116247D01*
X129232066Y-117116247D01*
X130914733Y-115001780D02*
X130295685Y-115001780D01*
X130629019Y-115382733D01*
X130486161Y-115382733D01*
X130390923Y-115430352D01*
X130343304Y-115477971D01*
X130295685Y-115573209D01*
X130295685Y-115811304D01*
X130343304Y-115906542D01*
X130390923Y-115954161D01*
X130486161Y-116001780D01*
X130771876Y-116001780D01*
X130867114Y-115954161D01*
X130914733Y-115906542D01*
X129184333Y-110882104D02*
X129184333Y-110082104D01*
X128879571Y-110082104D01*
X128803380Y-110120200D01*
X128765285Y-110158295D01*
X128727190Y-110234485D01*
X128727190Y-110348771D01*
X128765285Y-110424961D01*
X128803380Y-110463057D01*
X128879571Y-110501152D01*
X129184333Y-110501152D01*
X128003380Y-110882104D02*
X128384333Y-110882104D01*
X128384333Y-110082104D01*
X131095714Y-112912619D02*
X131048095Y-112865000D01*
X130952857Y-112817380D01*
X130714761Y-112817380D01*
X130619523Y-112865000D01*
X130571904Y-112912619D01*
X130524285Y-113007857D01*
X130524285Y-113103095D01*
X130571904Y-113245952D01*
X131143333Y-113817380D01*
X130524285Y-113817380D01*
X129965485Y-112217180D02*
X130536914Y-112217180D01*
X130251200Y-112217180D02*
X130251200Y-111217180D01*
X130346438Y-111360038D01*
X130441676Y-111455276D01*
X130536914Y-111502895D01*
X127238095Y-110356666D02*
X126761904Y-110356666D01*
X127333333Y-110642380D02*
X127000000Y-109642380D01*
X126666666Y-110642380D01*
X112110923Y-96856704D02*
X112110923Y-96056704D01*
X111806161Y-96056704D01*
X111729971Y-96094800D01*
X111691876Y-96132895D01*
X111653780Y-96209085D01*
X111653780Y-96323371D01*
X111691876Y-96399561D01*
X111729971Y-96437657D01*
X111806161Y-96475752D01*
X112110923Y-96475752D01*
X110853780Y-96856704D02*
X111120447Y-96475752D01*
X111310923Y-96856704D02*
X111310923Y-96056704D01*
X111006161Y-96056704D01*
X110929971Y-96094800D01*
X110891876Y-96132895D01*
X110853780Y-96209085D01*
X110853780Y-96323371D01*
X110891876Y-96399561D01*
X110929971Y-96437657D01*
X111006161Y-96475752D01*
X111310923Y-96475752D01*
X109847219Y-97318780D02*
X109751980Y-97318780D01*
X109656742Y-97366400D01*
X109609123Y-97414019D01*
X109561504Y-97509257D01*
X109513885Y-97699733D01*
X109513885Y-97937828D01*
X109561504Y-98128304D01*
X109609123Y-98223542D01*
X109656742Y-98271161D01*
X109751980Y-98318780D01*
X109847219Y-98318780D01*
X109942457Y-98271161D01*
X109990076Y-98223542D01*
X110037695Y-98128304D01*
X110085314Y-97937828D01*
X110085314Y-97699733D01*
X110037695Y-97509257D01*
X109990076Y-97414019D01*
X109942457Y-97366400D01*
X109847219Y-97318780D01*
X109405876Y-99944380D02*
X109215400Y-99944380D01*
X109120161Y-99896761D01*
X109072542Y-99849142D01*
X108977304Y-99706285D01*
X108929685Y-99515809D01*
X108929685Y-99134857D01*
X108977304Y-99039619D01*
X109024923Y-98992000D01*
X109120161Y-98944380D01*
X109310638Y-98944380D01*
X109405876Y-98992000D01*
X109453495Y-99039619D01*
X109501114Y-99134857D01*
X109501114Y-99372952D01*
X109453495Y-99468190D01*
X109405876Y-99515809D01*
X109310638Y-99563428D01*
X109120161Y-99563428D01*
X109024923Y-99515809D01*
X108977304Y-99468190D01*
X108929685Y-99372952D01*
X109539238Y-101252552D02*
X109634476Y-101204933D01*
X109682095Y-101157314D01*
X109729714Y-101062076D01*
X109729714Y-101014457D01*
X109682095Y-100919219D01*
X109634476Y-100871600D01*
X109539238Y-100823980D01*
X109348761Y-100823980D01*
X109253523Y-100871600D01*
X109205904Y-100919219D01*
X109158285Y-101014457D01*
X109158285Y-101062076D01*
X109205904Y-101157314D01*
X109253523Y-101204933D01*
X109348761Y-101252552D01*
X109539238Y-101252552D01*
X109634476Y-101300171D01*
X109682095Y-101347790D01*
X109729714Y-101443028D01*
X109729714Y-101633504D01*
X109682095Y-101728742D01*
X109634476Y-101776361D01*
X109539238Y-101823980D01*
X109348761Y-101823980D01*
X109253523Y-101776361D01*
X109205904Y-101728742D01*
X109158285Y-101633504D01*
X109158285Y-101443028D01*
X109205904Y-101347790D01*
X109253523Y-101300171D01*
X109348761Y-101252552D01*
X110793333Y-102525780D02*
X110126666Y-102525780D01*
X110555238Y-103525780D01*
X111869723Y-103262380D02*
X112060200Y-103262380D01*
X112155438Y-103310000D01*
X112203057Y-103357619D01*
X112298295Y-103500476D01*
X112345914Y-103690952D01*
X112345914Y-104071904D01*
X112298295Y-104167142D01*
X112250676Y-104214761D01*
X112155438Y-104262380D01*
X111964961Y-104262380D01*
X111869723Y-104214761D01*
X111822104Y-104167142D01*
X111774485Y-104071904D01*
X111774485Y-103833809D01*
X111822104Y-103738571D01*
X111869723Y-103690952D01*
X111964961Y-103643333D01*
X112155438Y-103643333D01*
X112250676Y-103690952D01*
X112298295Y-103738571D01*
X112345914Y-103833809D01*
X113625504Y-103262380D02*
X114101695Y-103262380D01*
X114149314Y-103738571D01*
X114101695Y-103690952D01*
X114006457Y-103643333D01*
X113768361Y-103643333D01*
X113673123Y-103690952D01*
X113625504Y-103738571D01*
X113577885Y-103833809D01*
X113577885Y-104071904D01*
X113625504Y-104167142D01*
X113673123Y-104214761D01*
X113768361Y-104262380D01*
X114006457Y-104262380D01*
X114101695Y-104214761D01*
X114149314Y-104167142D01*
X115374923Y-102782914D02*
X115374923Y-103449580D01*
X115613019Y-102401961D02*
X115851114Y-103116247D01*
X115232066Y-103116247D01*
X116914733Y-101001780D02*
X116295685Y-101001780D01*
X116629019Y-101382733D01*
X116486161Y-101382733D01*
X116390923Y-101430352D01*
X116343304Y-101477971D01*
X116295685Y-101573209D01*
X116295685Y-101811304D01*
X116343304Y-101906542D01*
X116390923Y-101954161D01*
X116486161Y-102001780D01*
X116771876Y-102001780D01*
X116867114Y-101954161D01*
X116914733Y-101906542D01*
X115184333Y-96882104D02*
X115184333Y-96082104D01*
X114879571Y-96082104D01*
X114803380Y-96120200D01*
X114765285Y-96158295D01*
X114727190Y-96234485D01*
X114727190Y-96348771D01*
X114765285Y-96424961D01*
X114803380Y-96463057D01*
X114879571Y-96501152D01*
X115184333Y-96501152D01*
X114003380Y-96882104D02*
X114384333Y-96882104D01*
X114384333Y-96082104D01*
X117095714Y-98912619D02*
X117048095Y-98865000D01*
X116952857Y-98817380D01*
X116714761Y-98817380D01*
X116619523Y-98865000D01*
X116571904Y-98912619D01*
X116524285Y-99007857D01*
X116524285Y-99103095D01*
X116571904Y-99245952D01*
X117143333Y-99817380D01*
X116524285Y-99817380D01*
X115965485Y-98217180D02*
X116536914Y-98217180D01*
X116251200Y-98217180D02*
X116251200Y-97217180D01*
X116346438Y-97360038D01*
X116441676Y-97455276D01*
X116536914Y-97502895D01*
X113238095Y-96356666D02*
X112761904Y-96356666D01*
X113333333Y-96642380D02*
X113000000Y-95642380D01*
X112666666Y-96642380D01*
X126110923Y-82856704D02*
X126110923Y-82056704D01*
X125806161Y-82056704D01*
X125729971Y-82094800D01*
X125691876Y-82132895D01*
X125653780Y-82209085D01*
X125653780Y-82323371D01*
X125691876Y-82399561D01*
X125729971Y-82437657D01*
X125806161Y-82475752D01*
X126110923Y-82475752D01*
X124853780Y-82856704D02*
X125120447Y-82475752D01*
X125310923Y-82856704D02*
X125310923Y-82056704D01*
X125006161Y-82056704D01*
X124929971Y-82094800D01*
X124891876Y-82132895D01*
X124853780Y-82209085D01*
X124853780Y-82323371D01*
X124891876Y-82399561D01*
X124929971Y-82437657D01*
X125006161Y-82475752D01*
X125310923Y-82475752D01*
X123847219Y-83318780D02*
X123751980Y-83318780D01*
X123656742Y-83366400D01*
X123609123Y-83414019D01*
X123561504Y-83509257D01*
X123513885Y-83699733D01*
X123513885Y-83937828D01*
X123561504Y-84128304D01*
X123609123Y-84223542D01*
X123656742Y-84271161D01*
X123751980Y-84318780D01*
X123847219Y-84318780D01*
X123942457Y-84271161D01*
X123990076Y-84223542D01*
X124037695Y-84128304D01*
X124085314Y-83937828D01*
X124085314Y-83699733D01*
X124037695Y-83509257D01*
X123990076Y-83414019D01*
X123942457Y-83366400D01*
X123847219Y-83318780D01*
X123405876Y-85944380D02*
X123215400Y-85944380D01*
X123120161Y-85896761D01*
X123072542Y-85849142D01*
X122977304Y-85706285D01*
X122929685Y-85515809D01*
X122929685Y-85134857D01*
X122977304Y-85039619D01*
X123024923Y-84992000D01*
X123120161Y-84944380D01*
X123310638Y-84944380D01*
X123405876Y-84992000D01*
X123453495Y-85039619D01*
X123501114Y-85134857D01*
X123501114Y-85372952D01*
X123453495Y-85468190D01*
X123405876Y-85515809D01*
X123310638Y-85563428D01*
X123120161Y-85563428D01*
X123024923Y-85515809D01*
X122977304Y-85468190D01*
X122929685Y-85372952D01*
X123539238Y-87252552D02*
X123634476Y-87204933D01*
X123682095Y-87157314D01*
X123729714Y-87062076D01*
X123729714Y-87014457D01*
X123682095Y-86919219D01*
X123634476Y-86871600D01*
X123539238Y-86823980D01*
X123348761Y-86823980D01*
X123253523Y-86871600D01*
X123205904Y-86919219D01*
X123158285Y-87014457D01*
X123158285Y-87062076D01*
X123205904Y-87157314D01*
X123253523Y-87204933D01*
X123348761Y-87252552D01*
X123539238Y-87252552D01*
X123634476Y-87300171D01*
X123682095Y-87347790D01*
X123729714Y-87443028D01*
X123729714Y-87633504D01*
X123682095Y-87728742D01*
X123634476Y-87776361D01*
X123539238Y-87823980D01*
X123348761Y-87823980D01*
X123253523Y-87776361D01*
X123205904Y-87728742D01*
X123158285Y-87633504D01*
X123158285Y-87443028D01*
X123205904Y-87347790D01*
X123253523Y-87300171D01*
X123348761Y-87252552D01*
X124793333Y-88525780D02*
X124126666Y-88525780D01*
X124555238Y-89525780D01*
X125869723Y-89262380D02*
X126060200Y-89262380D01*
X126155438Y-89310000D01*
X126203057Y-89357619D01*
X126298295Y-89500476D01*
X126345914Y-89690952D01*
X126345914Y-90071904D01*
X126298295Y-90167142D01*
X126250676Y-90214761D01*
X126155438Y-90262380D01*
X125964961Y-90262380D01*
X125869723Y-90214761D01*
X125822104Y-90167142D01*
X125774485Y-90071904D01*
X125774485Y-89833809D01*
X125822104Y-89738571D01*
X125869723Y-89690952D01*
X125964961Y-89643333D01*
X126155438Y-89643333D01*
X126250676Y-89690952D01*
X126298295Y-89738571D01*
X126345914Y-89833809D01*
X127625504Y-89262380D02*
X128101695Y-89262380D01*
X128149314Y-89738571D01*
X128101695Y-89690952D01*
X128006457Y-89643333D01*
X127768361Y-89643333D01*
X127673123Y-89690952D01*
X127625504Y-89738571D01*
X127577885Y-89833809D01*
X127577885Y-90071904D01*
X127625504Y-90167142D01*
X127673123Y-90214761D01*
X127768361Y-90262380D01*
X128006457Y-90262380D01*
X128101695Y-90214761D01*
X128149314Y-90167142D01*
X129374923Y-88782914D02*
X129374923Y-89449580D01*
X129613019Y-88401961D02*
X129851114Y-89116247D01*
X129232066Y-89116247D01*
X130914733Y-87001780D02*
X130295685Y-87001780D01*
X130629019Y-87382733D01*
X130486161Y-87382733D01*
X130390923Y-87430352D01*
X130343304Y-87477971D01*
X130295685Y-87573209D01*
X130295685Y-87811304D01*
X130343304Y-87906542D01*
X130390923Y-87954161D01*
X130486161Y-88001780D01*
X130771876Y-88001780D01*
X130867114Y-87954161D01*
X130914733Y-87906542D01*
X129184333Y-82882104D02*
X129184333Y-82082104D01*
X128879571Y-82082104D01*
X128803380Y-82120200D01*
X128765285Y-82158295D01*
X128727190Y-82234485D01*
X128727190Y-82348771D01*
X128765285Y-82424961D01*
X128803380Y-82463057D01*
X128879571Y-82501152D01*
X129184333Y-82501152D01*
X128003380Y-82882104D02*
X128384333Y-82882104D01*
X128384333Y-82082104D01*
X131095714Y-84912619D02*
X131048095Y-84865000D01*
X130952857Y-84817380D01*
X130714761Y-84817380D01*
X130619523Y-84865000D01*
X130571904Y-84912619D01*
X130524285Y-85007857D01*
X130524285Y-85103095D01*
X130571904Y-85245952D01*
X131143333Y-85817380D01*
X130524285Y-85817380D01*
X129965485Y-84217180D02*
X130536914Y-84217180D01*
X130251200Y-84217180D02*
X130251200Y-83217180D01*
X130346438Y-83360038D01*
X130441676Y-83455276D01*
X130536914Y-83502895D01*
X127238095Y-82356666D02*
X126761904Y-82356666D01*
X127333333Y-82642380D02*
X127000000Y-81642380D01*
X126666666Y-82642380D01*
X98110923Y-82856704D02*
X98110923Y-82056704D01*
X97806161Y-82056704D01*
X97729971Y-82094800D01*
X97691876Y-82132895D01*
X97653780Y-82209085D01*
X97653780Y-82323371D01*
X97691876Y-82399561D01*
X97729971Y-82437657D01*
X97806161Y-82475752D01*
X98110923Y-82475752D01*
X96853780Y-82856704D02*
X97120447Y-82475752D01*
X97310923Y-82856704D02*
X97310923Y-82056704D01*
X97006161Y-82056704D01*
X96929971Y-82094800D01*
X96891876Y-82132895D01*
X96853780Y-82209085D01*
X96853780Y-82323371D01*
X96891876Y-82399561D01*
X96929971Y-82437657D01*
X97006161Y-82475752D01*
X97310923Y-82475752D01*
X95847219Y-83318780D02*
X95751980Y-83318780D01*
X95656742Y-83366400D01*
X95609123Y-83414019D01*
X95561504Y-83509257D01*
X95513885Y-83699733D01*
X95513885Y-83937828D01*
X95561504Y-84128304D01*
X95609123Y-84223542D01*
X95656742Y-84271161D01*
X95751980Y-84318780D01*
X95847219Y-84318780D01*
X95942457Y-84271161D01*
X95990076Y-84223542D01*
X96037695Y-84128304D01*
X96085314Y-83937828D01*
X96085314Y-83699733D01*
X96037695Y-83509257D01*
X95990076Y-83414019D01*
X95942457Y-83366400D01*
X95847219Y-83318780D01*
X95405876Y-85944380D02*
X95215400Y-85944380D01*
X95120161Y-85896761D01*
X95072542Y-85849142D01*
X94977304Y-85706285D01*
X94929685Y-85515809D01*
X94929685Y-85134857D01*
X94977304Y-85039619D01*
X95024923Y-84992000D01*
X95120161Y-84944380D01*
X95310638Y-84944380D01*
X95405876Y-84992000D01*
X95453495Y-85039619D01*
X95501114Y-85134857D01*
X95501114Y-85372952D01*
X95453495Y-85468190D01*
X95405876Y-85515809D01*
X95310638Y-85563428D01*
X95120161Y-85563428D01*
X95024923Y-85515809D01*
X94977304Y-85468190D01*
X94929685Y-85372952D01*
X95539238Y-87252552D02*
X95634476Y-87204933D01*
X95682095Y-87157314D01*
X95729714Y-87062076D01*
X95729714Y-87014457D01*
X95682095Y-86919219D01*
X95634476Y-86871600D01*
X95539238Y-86823980D01*
X95348761Y-86823980D01*
X95253523Y-86871600D01*
X95205904Y-86919219D01*
X95158285Y-87014457D01*
X95158285Y-87062076D01*
X95205904Y-87157314D01*
X95253523Y-87204933D01*
X95348761Y-87252552D01*
X95539238Y-87252552D01*
X95634476Y-87300171D01*
X95682095Y-87347790D01*
X95729714Y-87443028D01*
X95729714Y-87633504D01*
X95682095Y-87728742D01*
X95634476Y-87776361D01*
X95539238Y-87823980D01*
X95348761Y-87823980D01*
X95253523Y-87776361D01*
X95205904Y-87728742D01*
X95158285Y-87633504D01*
X95158285Y-87443028D01*
X95205904Y-87347790D01*
X95253523Y-87300171D01*
X95348761Y-87252552D01*
X96793333Y-88525780D02*
X96126666Y-88525780D01*
X96555238Y-89525780D01*
X97869723Y-89262380D02*
X98060200Y-89262380D01*
X98155438Y-89310000D01*
X98203057Y-89357619D01*
X98298295Y-89500476D01*
X98345914Y-89690952D01*
X98345914Y-90071904D01*
X98298295Y-90167142D01*
X98250676Y-90214761D01*
X98155438Y-90262380D01*
X97964961Y-90262380D01*
X97869723Y-90214761D01*
X97822104Y-90167142D01*
X97774485Y-90071904D01*
X97774485Y-89833809D01*
X97822104Y-89738571D01*
X97869723Y-89690952D01*
X97964961Y-89643333D01*
X98155438Y-89643333D01*
X98250676Y-89690952D01*
X98298295Y-89738571D01*
X98345914Y-89833809D01*
X99625504Y-89262380D02*
X100101695Y-89262380D01*
X100149314Y-89738571D01*
X100101695Y-89690952D01*
X100006457Y-89643333D01*
X99768361Y-89643333D01*
X99673123Y-89690952D01*
X99625504Y-89738571D01*
X99577885Y-89833809D01*
X99577885Y-90071904D01*
X99625504Y-90167142D01*
X99673123Y-90214761D01*
X99768361Y-90262380D01*
X100006457Y-90262380D01*
X100101695Y-90214761D01*
X100149314Y-90167142D01*
X101374923Y-88782914D02*
X101374923Y-89449580D01*
X101613019Y-88401961D02*
X101851114Y-89116247D01*
X101232066Y-89116247D01*
X102914733Y-87001780D02*
X102295685Y-87001780D01*
X102629019Y-87382733D01*
X102486161Y-87382733D01*
X102390923Y-87430352D01*
X102343304Y-87477971D01*
X102295685Y-87573209D01*
X102295685Y-87811304D01*
X102343304Y-87906542D01*
X102390923Y-87954161D01*
X102486161Y-88001780D01*
X102771876Y-88001780D01*
X102867114Y-87954161D01*
X102914733Y-87906542D01*
X101184333Y-82882104D02*
X101184333Y-82082104D01*
X100879571Y-82082104D01*
X100803380Y-82120200D01*
X100765285Y-82158295D01*
X100727190Y-82234485D01*
X100727190Y-82348771D01*
X100765285Y-82424961D01*
X100803380Y-82463057D01*
X100879571Y-82501152D01*
X101184333Y-82501152D01*
X100003380Y-82882104D02*
X100384333Y-82882104D01*
X100384333Y-82082104D01*
X103095714Y-84912619D02*
X103048095Y-84865000D01*
X102952857Y-84817380D01*
X102714761Y-84817380D01*
X102619523Y-84865000D01*
X102571904Y-84912619D01*
X102524285Y-85007857D01*
X102524285Y-85103095D01*
X102571904Y-85245952D01*
X103143333Y-85817380D01*
X102524285Y-85817380D01*
X101965485Y-84217180D02*
X102536914Y-84217180D01*
X102251200Y-84217180D02*
X102251200Y-83217180D01*
X102346438Y-83360038D01*
X102441676Y-83455276D01*
X102536914Y-83502895D01*
X99238095Y-82356666D02*
X98761904Y-82356666D01*
X99333333Y-82642380D02*
X99000000Y-81642380D01*
X98666666Y-82642380D01*
X112110923Y-68856704D02*
X112110923Y-68056704D01*
X111806161Y-68056704D01*
X111729971Y-68094800D01*
X111691876Y-68132895D01*
X111653780Y-68209085D01*
X111653780Y-68323371D01*
X111691876Y-68399561D01*
X111729971Y-68437657D01*
X111806161Y-68475752D01*
X112110923Y-68475752D01*
X110853780Y-68856704D02*
X111120447Y-68475752D01*
X111310923Y-68856704D02*
X111310923Y-68056704D01*
X111006161Y-68056704D01*
X110929971Y-68094800D01*
X110891876Y-68132895D01*
X110853780Y-68209085D01*
X110853780Y-68323371D01*
X110891876Y-68399561D01*
X110929971Y-68437657D01*
X111006161Y-68475752D01*
X111310923Y-68475752D01*
X109847219Y-69318780D02*
X109751980Y-69318780D01*
X109656742Y-69366400D01*
X109609123Y-69414019D01*
X109561504Y-69509257D01*
X109513885Y-69699733D01*
X109513885Y-69937828D01*
X109561504Y-70128304D01*
X109609123Y-70223542D01*
X109656742Y-70271161D01*
X109751980Y-70318780D01*
X109847219Y-70318780D01*
X109942457Y-70271161D01*
X109990076Y-70223542D01*
X110037695Y-70128304D01*
X110085314Y-69937828D01*
X110085314Y-69699733D01*
X110037695Y-69509257D01*
X109990076Y-69414019D01*
X109942457Y-69366400D01*
X109847219Y-69318780D01*
X109405876Y-71944380D02*
X109215400Y-71944380D01*
X109120161Y-71896761D01*
X109072542Y-71849142D01*
X108977304Y-71706285D01*
X108929685Y-71515809D01*
X108929685Y-71134857D01*
X108977304Y-71039619D01*
X109024923Y-70992000D01*
X109120161Y-70944380D01*
X109310638Y-70944380D01*
X109405876Y-70992000D01*
X109453495Y-71039619D01*
X109501114Y-71134857D01*
X109501114Y-71372952D01*
X109453495Y-71468190D01*
X109405876Y-71515809D01*
X109310638Y-71563428D01*
X109120161Y-71563428D01*
X109024923Y-71515809D01*
X108977304Y-71468190D01*
X108929685Y-71372952D01*
X109539238Y-73252552D02*
X109634476Y-73204933D01*
X109682095Y-73157314D01*
X109729714Y-73062076D01*
X109729714Y-73014457D01*
X109682095Y-72919219D01*
X109634476Y-72871600D01*
X109539238Y-72823980D01*
X109348761Y-72823980D01*
X109253523Y-72871600D01*
X109205904Y-72919219D01*
X109158285Y-73014457D01*
X109158285Y-73062076D01*
X109205904Y-73157314D01*
X109253523Y-73204933D01*
X109348761Y-73252552D01*
X109539238Y-73252552D01*
X109634476Y-73300171D01*
X109682095Y-73347790D01*
X109729714Y-73443028D01*
X109729714Y-73633504D01*
X109682095Y-73728742D01*
X109634476Y-73776361D01*
X109539238Y-73823980D01*
X109348761Y-73823980D01*
X109253523Y-73776361D01*
X109205904Y-73728742D01*
X109158285Y-73633504D01*
X109158285Y-73443028D01*
X109205904Y-73347790D01*
X109253523Y-73300171D01*
X109348761Y-73252552D01*
X110793333Y-74525780D02*
X110126666Y-74525780D01*
X110555238Y-75525780D01*
X111869723Y-75262380D02*
X112060200Y-75262380D01*
X112155438Y-75310000D01*
X112203057Y-75357619D01*
X112298295Y-75500476D01*
X112345914Y-75690952D01*
X112345914Y-76071904D01*
X112298295Y-76167142D01*
X112250676Y-76214761D01*
X112155438Y-76262380D01*
X111964961Y-76262380D01*
X111869723Y-76214761D01*
X111822104Y-76167142D01*
X111774485Y-76071904D01*
X111774485Y-75833809D01*
X111822104Y-75738571D01*
X111869723Y-75690952D01*
X111964961Y-75643333D01*
X112155438Y-75643333D01*
X112250676Y-75690952D01*
X112298295Y-75738571D01*
X112345914Y-75833809D01*
X113625504Y-75262380D02*
X114101695Y-75262380D01*
X114149314Y-75738571D01*
X114101695Y-75690952D01*
X114006457Y-75643333D01*
X113768361Y-75643333D01*
X113673123Y-75690952D01*
X113625504Y-75738571D01*
X113577885Y-75833809D01*
X113577885Y-76071904D01*
X113625504Y-76167142D01*
X113673123Y-76214761D01*
X113768361Y-76262380D01*
X114006457Y-76262380D01*
X114101695Y-76214761D01*
X114149314Y-76167142D01*
X115374923Y-74782914D02*
X115374923Y-75449580D01*
X115613019Y-74401961D02*
X115851114Y-75116247D01*
X115232066Y-75116247D01*
X116914733Y-73001780D02*
X116295685Y-73001780D01*
X116629019Y-73382733D01*
X116486161Y-73382733D01*
X116390923Y-73430352D01*
X116343304Y-73477971D01*
X116295685Y-73573209D01*
X116295685Y-73811304D01*
X116343304Y-73906542D01*
X116390923Y-73954161D01*
X116486161Y-74001780D01*
X116771876Y-74001780D01*
X116867114Y-73954161D01*
X116914733Y-73906542D01*
X115184333Y-68882104D02*
X115184333Y-68082104D01*
X114879571Y-68082104D01*
X114803380Y-68120200D01*
X114765285Y-68158295D01*
X114727190Y-68234485D01*
X114727190Y-68348771D01*
X114765285Y-68424961D01*
X114803380Y-68463057D01*
X114879571Y-68501152D01*
X115184333Y-68501152D01*
X114003380Y-68882104D02*
X114384333Y-68882104D01*
X114384333Y-68082104D01*
X117095714Y-70912619D02*
X117048095Y-70865000D01*
X116952857Y-70817380D01*
X116714761Y-70817380D01*
X116619523Y-70865000D01*
X116571904Y-70912619D01*
X116524285Y-71007857D01*
X116524285Y-71103095D01*
X116571904Y-71245952D01*
X117143333Y-71817380D01*
X116524285Y-71817380D01*
X115965485Y-70217180D02*
X116536914Y-70217180D01*
X116251200Y-70217180D02*
X116251200Y-69217180D01*
X116346438Y-69360038D01*
X116441676Y-69455276D01*
X116536914Y-69502895D01*
X113238095Y-68356666D02*
X112761904Y-68356666D01*
X113333333Y-68642380D02*
X113000000Y-67642380D01*
X112666666Y-68642380D01*
X126110923Y-54856704D02*
X126110923Y-54056704D01*
X125806161Y-54056704D01*
X125729971Y-54094800D01*
X125691876Y-54132895D01*
X125653780Y-54209085D01*
X125653780Y-54323371D01*
X125691876Y-54399561D01*
X125729971Y-54437657D01*
X125806161Y-54475752D01*
X126110923Y-54475752D01*
X124853780Y-54856704D02*
X125120447Y-54475752D01*
X125310923Y-54856704D02*
X125310923Y-54056704D01*
X125006161Y-54056704D01*
X124929971Y-54094800D01*
X124891876Y-54132895D01*
X124853780Y-54209085D01*
X124853780Y-54323371D01*
X124891876Y-54399561D01*
X124929971Y-54437657D01*
X125006161Y-54475752D01*
X125310923Y-54475752D01*
X123847219Y-55318780D02*
X123751980Y-55318780D01*
X123656742Y-55366400D01*
X123609123Y-55414019D01*
X123561504Y-55509257D01*
X123513885Y-55699733D01*
X123513885Y-55937828D01*
X123561504Y-56128304D01*
X123609123Y-56223542D01*
X123656742Y-56271161D01*
X123751980Y-56318780D01*
X123847219Y-56318780D01*
X123942457Y-56271161D01*
X123990076Y-56223542D01*
X124037695Y-56128304D01*
X124085314Y-55937828D01*
X124085314Y-55699733D01*
X124037695Y-55509257D01*
X123990076Y-55414019D01*
X123942457Y-55366400D01*
X123847219Y-55318780D01*
X123405876Y-57944380D02*
X123215400Y-57944380D01*
X123120161Y-57896761D01*
X123072542Y-57849142D01*
X122977304Y-57706285D01*
X122929685Y-57515809D01*
X122929685Y-57134857D01*
X122977304Y-57039619D01*
X123024923Y-56992000D01*
X123120161Y-56944380D01*
X123310638Y-56944380D01*
X123405876Y-56992000D01*
X123453495Y-57039619D01*
X123501114Y-57134857D01*
X123501114Y-57372952D01*
X123453495Y-57468190D01*
X123405876Y-57515809D01*
X123310638Y-57563428D01*
X123120161Y-57563428D01*
X123024923Y-57515809D01*
X122977304Y-57468190D01*
X122929685Y-57372952D01*
X123539238Y-59252552D02*
X123634476Y-59204933D01*
X123682095Y-59157314D01*
X123729714Y-59062076D01*
X123729714Y-59014457D01*
X123682095Y-58919219D01*
X123634476Y-58871600D01*
X123539238Y-58823980D01*
X123348761Y-58823980D01*
X123253523Y-58871600D01*
X123205904Y-58919219D01*
X123158285Y-59014457D01*
X123158285Y-59062076D01*
X123205904Y-59157314D01*
X123253523Y-59204933D01*
X123348761Y-59252552D01*
X123539238Y-59252552D01*
X123634476Y-59300171D01*
X123682095Y-59347790D01*
X123729714Y-59443028D01*
X123729714Y-59633504D01*
X123682095Y-59728742D01*
X123634476Y-59776361D01*
X123539238Y-59823980D01*
X123348761Y-59823980D01*
X123253523Y-59776361D01*
X123205904Y-59728742D01*
X123158285Y-59633504D01*
X123158285Y-59443028D01*
X123205904Y-59347790D01*
X123253523Y-59300171D01*
X123348761Y-59252552D01*
X124793333Y-60525780D02*
X124126666Y-60525780D01*
X124555238Y-61525780D01*
X125869723Y-61262380D02*
X126060200Y-61262380D01*
X126155438Y-61310000D01*
X126203057Y-61357619D01*
X126298295Y-61500476D01*
X126345914Y-61690952D01*
X126345914Y-62071904D01*
X126298295Y-62167142D01*
X126250676Y-62214761D01*
X126155438Y-62262380D01*
X125964961Y-62262380D01*
X125869723Y-62214761D01*
X125822104Y-62167142D01*
X125774485Y-62071904D01*
X125774485Y-61833809D01*
X125822104Y-61738571D01*
X125869723Y-61690952D01*
X125964961Y-61643333D01*
X126155438Y-61643333D01*
X126250676Y-61690952D01*
X126298295Y-61738571D01*
X126345914Y-61833809D01*
X127625504Y-61262380D02*
X128101695Y-61262380D01*
X128149314Y-61738571D01*
X128101695Y-61690952D01*
X128006457Y-61643333D01*
X127768361Y-61643333D01*
X127673123Y-61690952D01*
X127625504Y-61738571D01*
X127577885Y-61833809D01*
X127577885Y-62071904D01*
X127625504Y-62167142D01*
X127673123Y-62214761D01*
X127768361Y-62262380D01*
X128006457Y-62262380D01*
X128101695Y-62214761D01*
X128149314Y-62167142D01*
X129374923Y-60782914D02*
X129374923Y-61449580D01*
X129613019Y-60401961D02*
X129851114Y-61116247D01*
X129232066Y-61116247D01*
X130914733Y-59001780D02*
X130295685Y-59001780D01*
X130629019Y-59382733D01*
X130486161Y-59382733D01*
X130390923Y-59430352D01*
X130343304Y-59477971D01*
X130295685Y-59573209D01*
X130295685Y-59811304D01*
X130343304Y-59906542D01*
X130390923Y-59954161D01*
X130486161Y-60001780D01*
X130771876Y-60001780D01*
X130867114Y-59954161D01*
X130914733Y-59906542D01*
X129184333Y-54882104D02*
X129184333Y-54082104D01*
X128879571Y-54082104D01*
X128803380Y-54120200D01*
X128765285Y-54158295D01*
X128727190Y-54234485D01*
X128727190Y-54348771D01*
X128765285Y-54424961D01*
X128803380Y-54463057D01*
X128879571Y-54501152D01*
X129184333Y-54501152D01*
X128003380Y-54882104D02*
X128384333Y-54882104D01*
X128384333Y-54082104D01*
X131095714Y-56912619D02*
X131048095Y-56865000D01*
X130952857Y-56817380D01*
X130714761Y-56817380D01*
X130619523Y-56865000D01*
X130571904Y-56912619D01*
X130524285Y-57007857D01*
X130524285Y-57103095D01*
X130571904Y-57245952D01*
X131143333Y-57817380D01*
X130524285Y-57817380D01*
X129965485Y-56217180D02*
X130536914Y-56217180D01*
X130251200Y-56217180D02*
X130251200Y-55217180D01*
X130346438Y-55360038D01*
X130441676Y-55455276D01*
X130536914Y-55502895D01*
X127238095Y-54356666D02*
X126761904Y-54356666D01*
X127333333Y-54642380D02*
X127000000Y-53642380D01*
X126666666Y-54642380D01*
X98110923Y-54856704D02*
X98110923Y-54056704D01*
X97806161Y-54056704D01*
X97729971Y-54094800D01*
X97691876Y-54132895D01*
X97653780Y-54209085D01*
X97653780Y-54323371D01*
X97691876Y-54399561D01*
X97729971Y-54437657D01*
X97806161Y-54475752D01*
X98110923Y-54475752D01*
X96853780Y-54856704D02*
X97120447Y-54475752D01*
X97310923Y-54856704D02*
X97310923Y-54056704D01*
X97006161Y-54056704D01*
X96929971Y-54094800D01*
X96891876Y-54132895D01*
X96853780Y-54209085D01*
X96853780Y-54323371D01*
X96891876Y-54399561D01*
X96929971Y-54437657D01*
X97006161Y-54475752D01*
X97310923Y-54475752D01*
X95847219Y-55318780D02*
X95751980Y-55318780D01*
X95656742Y-55366400D01*
X95609123Y-55414019D01*
X95561504Y-55509257D01*
X95513885Y-55699733D01*
X95513885Y-55937828D01*
X95561504Y-56128304D01*
X95609123Y-56223542D01*
X95656742Y-56271161D01*
X95751980Y-56318780D01*
X95847219Y-56318780D01*
X95942457Y-56271161D01*
X95990076Y-56223542D01*
X96037695Y-56128304D01*
X96085314Y-55937828D01*
X96085314Y-55699733D01*
X96037695Y-55509257D01*
X95990076Y-55414019D01*
X95942457Y-55366400D01*
X95847219Y-55318780D01*
X95405876Y-57944380D02*
X95215400Y-57944380D01*
X95120161Y-57896761D01*
X95072542Y-57849142D01*
X94977304Y-57706285D01*
X94929685Y-57515809D01*
X94929685Y-57134857D01*
X94977304Y-57039619D01*
X95024923Y-56992000D01*
X95120161Y-56944380D01*
X95310638Y-56944380D01*
X95405876Y-56992000D01*
X95453495Y-57039619D01*
X95501114Y-57134857D01*
X95501114Y-57372952D01*
X95453495Y-57468190D01*
X95405876Y-57515809D01*
X95310638Y-57563428D01*
X95120161Y-57563428D01*
X95024923Y-57515809D01*
X94977304Y-57468190D01*
X94929685Y-57372952D01*
X95539238Y-59252552D02*
X95634476Y-59204933D01*
X95682095Y-59157314D01*
X95729714Y-59062076D01*
X95729714Y-59014457D01*
X95682095Y-58919219D01*
X95634476Y-58871600D01*
X95539238Y-58823980D01*
X95348761Y-58823980D01*
X95253523Y-58871600D01*
X95205904Y-58919219D01*
X95158285Y-59014457D01*
X95158285Y-59062076D01*
X95205904Y-59157314D01*
X95253523Y-59204933D01*
X95348761Y-59252552D01*
X95539238Y-59252552D01*
X95634476Y-59300171D01*
X95682095Y-59347790D01*
X95729714Y-59443028D01*
X95729714Y-59633504D01*
X95682095Y-59728742D01*
X95634476Y-59776361D01*
X95539238Y-59823980D01*
X95348761Y-59823980D01*
X95253523Y-59776361D01*
X95205904Y-59728742D01*
X95158285Y-59633504D01*
X95158285Y-59443028D01*
X95205904Y-59347790D01*
X95253523Y-59300171D01*
X95348761Y-59252552D01*
X96793333Y-60525780D02*
X96126666Y-60525780D01*
X96555238Y-61525780D01*
X97869723Y-61262380D02*
X98060200Y-61262380D01*
X98155438Y-61310000D01*
X98203057Y-61357619D01*
X98298295Y-61500476D01*
X98345914Y-61690952D01*
X98345914Y-62071904D01*
X98298295Y-62167142D01*
X98250676Y-62214761D01*
X98155438Y-62262380D01*
X97964961Y-62262380D01*
X97869723Y-62214761D01*
X97822104Y-62167142D01*
X97774485Y-62071904D01*
X97774485Y-61833809D01*
X97822104Y-61738571D01*
X97869723Y-61690952D01*
X97964961Y-61643333D01*
X98155438Y-61643333D01*
X98250676Y-61690952D01*
X98298295Y-61738571D01*
X98345914Y-61833809D01*
X99625504Y-61262380D02*
X100101695Y-61262380D01*
X100149314Y-61738571D01*
X100101695Y-61690952D01*
X100006457Y-61643333D01*
X99768361Y-61643333D01*
X99673123Y-61690952D01*
X99625504Y-61738571D01*
X99577885Y-61833809D01*
X99577885Y-62071904D01*
X99625504Y-62167142D01*
X99673123Y-62214761D01*
X99768361Y-62262380D01*
X100006457Y-62262380D01*
X100101695Y-62214761D01*
X100149314Y-62167142D01*
X101374923Y-60782914D02*
X101374923Y-61449580D01*
X101613019Y-60401961D02*
X101851114Y-61116247D01*
X101232066Y-61116247D01*
X102914733Y-59001780D02*
X102295685Y-59001780D01*
X102629019Y-59382733D01*
X102486161Y-59382733D01*
X102390923Y-59430352D01*
X102343304Y-59477971D01*
X102295685Y-59573209D01*
X102295685Y-59811304D01*
X102343304Y-59906542D01*
X102390923Y-59954161D01*
X102486161Y-60001780D01*
X102771876Y-60001780D01*
X102867114Y-59954161D01*
X102914733Y-59906542D01*
X101184333Y-54882104D02*
X101184333Y-54082104D01*
X100879571Y-54082104D01*
X100803380Y-54120200D01*
X100765285Y-54158295D01*
X100727190Y-54234485D01*
X100727190Y-54348771D01*
X100765285Y-54424961D01*
X100803380Y-54463057D01*
X100879571Y-54501152D01*
X101184333Y-54501152D01*
X100003380Y-54882104D02*
X100384333Y-54882104D01*
X100384333Y-54082104D01*
X103095714Y-56912619D02*
X103048095Y-56865000D01*
X102952857Y-56817380D01*
X102714761Y-56817380D01*
X102619523Y-56865000D01*
X102571904Y-56912619D01*
X102524285Y-57007857D01*
X102524285Y-57103095D01*
X102571904Y-57245952D01*
X103143333Y-57817380D01*
X102524285Y-57817380D01*
X101965485Y-56217180D02*
X102536914Y-56217180D01*
X102251200Y-56217180D02*
X102251200Y-55217180D01*
X102346438Y-55360038D01*
X102441676Y-55455276D01*
X102536914Y-55502895D01*
X99238095Y-54356666D02*
X98761904Y-54356666D01*
X99333333Y-54642380D02*
X99000000Y-53642380D01*
X98666666Y-54642380D01*
M02*
