G04 #@! TF.GenerationSoftware,KiCad,Pcbnew,(2018-01-14 revision 63e55e918)-makepkg*
G04 #@! TF.CreationDate,2018-02-22T22:40:35+00:00*
G04 #@! TF.ProjectId,Test nixie bearing,54657374206E69786965206265617269,rev?*
G04 #@! TF.SameCoordinates,Original*
G04 #@! TF.FileFunction,Soldermask,Top*
G04 #@! TF.FilePolarity,Negative*
%FSLAX46Y46*%
G04 Gerber Fmt 4.6, Leading zero omitted, Abs format (unit mm)*
G04 Created by KiCad (PCBNEW (2018-01-14 revision 63e55e918)-makepkg) date 02/22/18 22:40:35*
%MOMM*%
%LPD*%
G01*
G04 APERTURE LIST*
%ADD10O,1.400000X22.400000*%
%ADD11C,6.500000*%
%ADD12C,1.600000*%
%ADD13C,2.200000*%
%ADD14O,1.400000X4.150000*%
%ADD15O,4.150000X1.400000*%
%ADD16C,1.400000*%
%ADD17C,1.400000*%
%ADD18O,18.400000X1.400000*%
%ADD19C,2.100000*%
%ADD20O,1.400000X21.400000*%
%ADD21O,19.400000X1.400000*%
G04 APERTURE END LIST*
D10*
X84000000Y-130500000D03*
D11*
X73000000Y-131000000D03*
D12*
X73000000Y-123000000D03*
X76810000Y-123916352D03*
X79583870Y-126455483D03*
X80941670Y-130035707D03*
X69282215Y-123916352D03*
X78304981Y-136988085D03*
X66416130Y-126455483D03*
X67695019Y-136988085D03*
X80480129Y-133836839D03*
X65058330Y-130035707D03*
X71085475Y-138767534D03*
X65519871Y-133836839D03*
X74914525Y-138767534D03*
D13*
X73000000Y-120840000D03*
X75540000Y-120840000D03*
X78080000Y-120840000D03*
X80620000Y-120840000D03*
X67920000Y-120840000D03*
X70460000Y-120840000D03*
X65380000Y-120840000D03*
X80620000Y-141160000D03*
X78080000Y-141160000D03*
X75540000Y-141160000D03*
X70460000Y-141160000D03*
X67920000Y-141160000D03*
X65380000Y-141160000D03*
X73000000Y-141160000D03*
D14*
X89000000Y-116600000D03*
X89000000Y-111400000D03*
X109000000Y-111400000D03*
X109000000Y-116600000D03*
D15*
X101600000Y-124000000D03*
X96400000Y-124000000D03*
X96400000Y-104000000D03*
X101650000Y-104000000D03*
D16*
X92000000Y-107000000D03*
D17*
X94999901Y-104000099D02*
X89000099Y-109999901D01*
D18*
X52500000Y-68500000D03*
D16*
X92000000Y-121000000D03*
D17*
X89000099Y-118000099D02*
X94999901Y-123999901D01*
D16*
X106000000Y-107000000D03*
D17*
X103000099Y-104000099D02*
X108999901Y-109999901D01*
D12*
X100914525Y-121767534D03*
X91519871Y-116836839D03*
X97085475Y-121767534D03*
X91058330Y-113035707D03*
X106480129Y-116836839D03*
X93695019Y-119988085D03*
X92416130Y-109455483D03*
X104304981Y-119988085D03*
X95282215Y-106916352D03*
X106941670Y-113035707D03*
X105583870Y-109455483D03*
X102810000Y-106916352D03*
X99000000Y-106000000D03*
D11*
X99000000Y-114000000D03*
D19*
X99000000Y-108500000D03*
X101560000Y-109130000D03*
X103530000Y-110870000D03*
X104460000Y-113330000D03*
X104140000Y-115940000D03*
X102640000Y-118110000D03*
X100310000Y-119340000D03*
X97680000Y-119340000D03*
X95350000Y-118110000D03*
X93860000Y-115940000D03*
X93540000Y-113330000D03*
X94470000Y-110870000D03*
X96440000Y-109130000D03*
D14*
X103000000Y-130600000D03*
X103000000Y-125400000D03*
X123000000Y-125400000D03*
X123000000Y-130600000D03*
D15*
X115600000Y-138000000D03*
X110400000Y-138000000D03*
X110400000Y-118000000D03*
X115650000Y-118000000D03*
D16*
X106000000Y-121000000D03*
D17*
X108999901Y-118000099D02*
X103000099Y-123999901D01*
D16*
X120000000Y-135000000D03*
D17*
X122999901Y-132000099D02*
X117000099Y-137999901D01*
D16*
X106000000Y-135000000D03*
D17*
X103000099Y-132000099D02*
X108999901Y-137999901D01*
D20*
X62500000Y-106000000D03*
D12*
X114914525Y-135767534D03*
X105519871Y-130836839D03*
X111085475Y-135767534D03*
X105058330Y-127035707D03*
X120480129Y-130836839D03*
X107695019Y-133988085D03*
X106416130Y-123455483D03*
X118304981Y-133988085D03*
X109282215Y-120916352D03*
X120941670Y-127035707D03*
X119583870Y-123455483D03*
X116810000Y-120916352D03*
X113000000Y-120000000D03*
D11*
X113000000Y-128000000D03*
D19*
X113000000Y-122500000D03*
X115560000Y-123130000D03*
X117530000Y-124870000D03*
X118460000Y-127330000D03*
X118140000Y-129940000D03*
X116640000Y-132110000D03*
X114310000Y-133340000D03*
X111680000Y-133340000D03*
X109350000Y-132110000D03*
X107860000Y-129940000D03*
X107540000Y-127330000D03*
X108470000Y-124870000D03*
X110440000Y-123130000D03*
D14*
X117000000Y-116600000D03*
X117000000Y-111400000D03*
X137000000Y-111400000D03*
X137000000Y-116600000D03*
D15*
X129600000Y-124000000D03*
X124400000Y-124000000D03*
X124400000Y-104000000D03*
X129650000Y-104000000D03*
D16*
X120000000Y-107000000D03*
D17*
X122999901Y-104000099D02*
X117000099Y-109999901D01*
D16*
X134000000Y-121000000D03*
D17*
X136999901Y-118000099D02*
X131000099Y-123999901D01*
D16*
X120000000Y-121000000D03*
D17*
X117000099Y-118000099D02*
X122999901Y-123999901D01*
D16*
X134000000Y-107000000D03*
D17*
X131000099Y-104000099D02*
X136999901Y-109999901D01*
D12*
X128914525Y-121767534D03*
X119519871Y-116836839D03*
X125085475Y-121767534D03*
X119058330Y-113035707D03*
X134480129Y-116836839D03*
X121695019Y-119988085D03*
X120416130Y-109455483D03*
X132304981Y-119988085D03*
X123282215Y-106916352D03*
X134941670Y-113035707D03*
X133583870Y-109455483D03*
X130810000Y-106916352D03*
X127000000Y-106000000D03*
D11*
X127000000Y-114000000D03*
D19*
X127000000Y-108500000D03*
X129560000Y-109130000D03*
X131530000Y-110870000D03*
X132460000Y-113330000D03*
X132140000Y-115940000D03*
X130640000Y-118110000D03*
X128310000Y-119340000D03*
X125680000Y-119340000D03*
X123350000Y-118110000D03*
X121860000Y-115940000D03*
X121540000Y-113330000D03*
X122470000Y-110870000D03*
X124440000Y-109130000D03*
D13*
X52000000Y-141160000D03*
X44380000Y-141160000D03*
X46920000Y-141160000D03*
X49460000Y-141160000D03*
X54540000Y-141160000D03*
X57080000Y-141160000D03*
X59620000Y-141160000D03*
X44380000Y-120840000D03*
X49460000Y-120840000D03*
X46920000Y-120840000D03*
X59620000Y-120840000D03*
X57080000Y-120840000D03*
X54540000Y-120840000D03*
X52000000Y-120840000D03*
D12*
X53914525Y-138767534D03*
X44519871Y-133836839D03*
X50085475Y-138767534D03*
X44058330Y-130035707D03*
X59480129Y-133836839D03*
X46695019Y-136988085D03*
X45416130Y-126455483D03*
X57304981Y-136988085D03*
X48282215Y-123916352D03*
X59941670Y-130035707D03*
X58583870Y-126455483D03*
X55810000Y-123916352D03*
X52000000Y-123000000D03*
D11*
X52000000Y-131000000D03*
D14*
X103000000Y-102600000D03*
X103000000Y-97400000D03*
X123000000Y-97400000D03*
X123000000Y-102600000D03*
D15*
X115600000Y-110000000D03*
X110400000Y-110000000D03*
X110400000Y-90000000D03*
X115650000Y-90000000D03*
D18*
X52500000Y-118500000D03*
X52500000Y-93500000D03*
D21*
X73000000Y-93500000D03*
X73500000Y-68500000D03*
D12*
X114914525Y-107767534D03*
X105519871Y-102836839D03*
X111085475Y-107767534D03*
X105058330Y-99035707D03*
X120480129Y-102836839D03*
X107695019Y-105988085D03*
X106416130Y-95455483D03*
X118304981Y-105988085D03*
X109282215Y-92916352D03*
X120941670Y-99035707D03*
X119583870Y-95455483D03*
X116810000Y-92916352D03*
X113000000Y-92000000D03*
D11*
X113000000Y-100000000D03*
D19*
X113000000Y-94500000D03*
X115560000Y-95130000D03*
X117530000Y-96870000D03*
X118460000Y-99330000D03*
X118140000Y-101940000D03*
X116640000Y-104110000D03*
X114310000Y-105340000D03*
X111680000Y-105340000D03*
X109350000Y-104110000D03*
X107860000Y-101940000D03*
X107540000Y-99330000D03*
X108470000Y-96870000D03*
X110440000Y-95130000D03*
D14*
X117000000Y-88600000D03*
X117000000Y-83400000D03*
X137000000Y-83400000D03*
X137000000Y-88600000D03*
D15*
X129600000Y-96000000D03*
X124400000Y-96000000D03*
X124400000Y-76000000D03*
X129650000Y-76000000D03*
D20*
X62500000Y-131000000D03*
D16*
X134000000Y-93000000D03*
D17*
X136999901Y-90000099D02*
X131000099Y-95999901D01*
D16*
X120000000Y-93000000D03*
D17*
X117000099Y-90000099D02*
X122999901Y-95999901D01*
D16*
X134000000Y-79000000D03*
D17*
X131000099Y-76000099D02*
X136999901Y-81999901D01*
D12*
X128914525Y-93767534D03*
X119519871Y-88836839D03*
X125085475Y-93767534D03*
X119058330Y-85035707D03*
X134480129Y-88836839D03*
X121695019Y-91988085D03*
X120416130Y-81455483D03*
X132304981Y-91988085D03*
X123282215Y-78916352D03*
X134941670Y-85035707D03*
X133583870Y-81455483D03*
X130810000Y-78916352D03*
X127000000Y-78000000D03*
D11*
X127000000Y-86000000D03*
D19*
X127000000Y-80500000D03*
X129560000Y-81130000D03*
X131530000Y-82870000D03*
X132460000Y-85330000D03*
X132140000Y-87940000D03*
X130640000Y-90110000D03*
X128310000Y-91340000D03*
X125680000Y-91340000D03*
X123350000Y-90110000D03*
X121860000Y-87940000D03*
X121540000Y-85330000D03*
X122470000Y-82870000D03*
X124440000Y-81130000D03*
D14*
X89000000Y-88600000D03*
X89000000Y-83400000D03*
X109000000Y-83400000D03*
X109000000Y-88600000D03*
D15*
X101600000Y-96000000D03*
X96400000Y-96000000D03*
X96400000Y-76000000D03*
X101650000Y-76000000D03*
D16*
X92000000Y-79000000D03*
D17*
X94999901Y-76000099D02*
X89000099Y-81999901D01*
D16*
X106000000Y-93000000D03*
D17*
X108999901Y-90000099D02*
X103000099Y-95999901D01*
D16*
X92000000Y-93000000D03*
D17*
X89000099Y-90000099D02*
X94999901Y-95999901D01*
D10*
X84000000Y-81000000D03*
D12*
X100914525Y-93767534D03*
X91519871Y-88836839D03*
X97085475Y-93767534D03*
X91058330Y-85035707D03*
X106480129Y-88836839D03*
X93695019Y-91988085D03*
X92416130Y-81455483D03*
X104304981Y-91988085D03*
X95282215Y-78916352D03*
X106941670Y-85035707D03*
X105583870Y-81455483D03*
X102810000Y-78916352D03*
X99000000Y-78000000D03*
D11*
X99000000Y-86000000D03*
D19*
X99000000Y-80500000D03*
X101560000Y-81130000D03*
X103530000Y-82870000D03*
X104460000Y-85330000D03*
X104140000Y-87940000D03*
X102640000Y-90110000D03*
X100310000Y-91340000D03*
X97680000Y-91340000D03*
X95350000Y-90110000D03*
X93860000Y-87940000D03*
X93540000Y-85330000D03*
X94470000Y-82870000D03*
X96440000Y-81130000D03*
D14*
X103000000Y-74600000D03*
X103000000Y-69400000D03*
X123000000Y-69400000D03*
X123000000Y-74600000D03*
D15*
X115600000Y-82000000D03*
X110400000Y-82000000D03*
X110400000Y-62000000D03*
X115650000Y-62000000D03*
D20*
X62500000Y-81000000D03*
D16*
X120000000Y-79000000D03*
D17*
X122999901Y-76000099D02*
X117000099Y-81999901D01*
D16*
X106000000Y-79000000D03*
D17*
X103000099Y-76000099D02*
X108999901Y-81999901D01*
D21*
X73000000Y-118500000D03*
D12*
X114914525Y-79767534D03*
X105519871Y-74836839D03*
X111085475Y-79767534D03*
X105058330Y-71035707D03*
X120480129Y-74836839D03*
X107695019Y-77988085D03*
X106416130Y-67455483D03*
X118304981Y-77988085D03*
X109282215Y-64916352D03*
X120941670Y-71035707D03*
X119583870Y-67455483D03*
X116810000Y-64916352D03*
X113000000Y-64000000D03*
D11*
X113000000Y-72000000D03*
D19*
X113000000Y-66500000D03*
X115560000Y-67130000D03*
X117530000Y-68870000D03*
X118460000Y-71330000D03*
X118140000Y-73940000D03*
X116640000Y-76110000D03*
X114310000Y-77340000D03*
X111680000Y-77340000D03*
X109350000Y-76110000D03*
X107860000Y-73940000D03*
X107540000Y-71330000D03*
X108470000Y-68870000D03*
X110440000Y-67130000D03*
D14*
X117000000Y-60600000D03*
X117000000Y-55400000D03*
X137000000Y-55400000D03*
X137000000Y-60600000D03*
D15*
X129600000Y-68000000D03*
X124400000Y-68000000D03*
X124400000Y-48000000D03*
X129650000Y-48000000D03*
D16*
X120000000Y-51000000D03*
D17*
X122999901Y-48000099D02*
X117000099Y-53999901D01*
D16*
X134000000Y-65000000D03*
D17*
X136999901Y-62000099D02*
X131000099Y-67999901D01*
D16*
X120000000Y-65000000D03*
D17*
X117000099Y-62000099D02*
X122999901Y-67999901D01*
D16*
X134000000Y-51000000D03*
D17*
X131000099Y-48000099D02*
X136999901Y-53999901D01*
D12*
X128914525Y-65767534D03*
X119519871Y-60836839D03*
X125085475Y-65767534D03*
X119058330Y-57035707D03*
X134480129Y-60836839D03*
X121695019Y-63988085D03*
X120416130Y-53455483D03*
X132304981Y-63988085D03*
X123282215Y-50916352D03*
X134941670Y-57035707D03*
X133583870Y-53455483D03*
X130810000Y-50916352D03*
X127000000Y-50000000D03*
D11*
X127000000Y-58000000D03*
D19*
X127000000Y-52500000D03*
X129560000Y-53130000D03*
X131530000Y-54870000D03*
X132460000Y-57330000D03*
X132140000Y-59940000D03*
X130640000Y-62110000D03*
X128310000Y-63340000D03*
X125680000Y-63340000D03*
X123350000Y-62110000D03*
X121860000Y-59940000D03*
X121540000Y-57330000D03*
X122470000Y-54870000D03*
X124440000Y-53130000D03*
D14*
X89000000Y-60600000D03*
X89000000Y-55400000D03*
X109000000Y-55400000D03*
X109000000Y-60600000D03*
D15*
X101600000Y-68000000D03*
X96400000Y-68000000D03*
X96400000Y-48000000D03*
X101650000Y-48000000D03*
D16*
X92000000Y-51000000D03*
D17*
X94999901Y-48000099D02*
X89000099Y-53999901D01*
D16*
X106000000Y-65000000D03*
D17*
X108999901Y-62000099D02*
X103000099Y-67999901D01*
D16*
X92000000Y-65000000D03*
D17*
X89000099Y-62000099D02*
X94999901Y-67999901D01*
D16*
X106000000Y-51000000D03*
D17*
X103000099Y-48000099D02*
X108999901Y-53999901D01*
D12*
X100914525Y-65767534D03*
X91519871Y-60836839D03*
X97085475Y-65767534D03*
X91058330Y-57035707D03*
X106480129Y-60836839D03*
X93695019Y-63988085D03*
X92416130Y-53455483D03*
X104304981Y-63988085D03*
X95282215Y-50916352D03*
X106941670Y-57035707D03*
X105583870Y-53455483D03*
X102810000Y-50916352D03*
X99000000Y-50000000D03*
D11*
X99000000Y-58000000D03*
D19*
X99000000Y-52500000D03*
X101560000Y-53130000D03*
X103530000Y-54870000D03*
X104460000Y-57330000D03*
X104140000Y-59940000D03*
X102640000Y-62110000D03*
X100310000Y-63340000D03*
X97680000Y-63340000D03*
X95350000Y-62110000D03*
X93860000Y-59940000D03*
X93540000Y-57330000D03*
X94470000Y-54870000D03*
X96440000Y-53130000D03*
D13*
X52000000Y-116160000D03*
X44380000Y-116160000D03*
X46920000Y-116160000D03*
X49460000Y-116160000D03*
X54540000Y-116160000D03*
X57080000Y-116160000D03*
X59620000Y-116160000D03*
X44380000Y-95840000D03*
X49460000Y-95840000D03*
X46920000Y-95840000D03*
X59620000Y-95840000D03*
X57080000Y-95840000D03*
X54540000Y-95840000D03*
X52000000Y-95840000D03*
D12*
X53914525Y-113767534D03*
X44519871Y-108836839D03*
X50085475Y-113767534D03*
X44058330Y-105035707D03*
X59480129Y-108836839D03*
X46695019Y-111988085D03*
X45416130Y-101455483D03*
X57304981Y-111988085D03*
X48282215Y-98916352D03*
X59941670Y-105035707D03*
X58583870Y-101455483D03*
X55810000Y-98916352D03*
X52000000Y-98000000D03*
D11*
X52000000Y-106000000D03*
D13*
X73000000Y-116160000D03*
X65380000Y-116160000D03*
X67920000Y-116160000D03*
X70460000Y-116160000D03*
X75540000Y-116160000D03*
X78080000Y-116160000D03*
X80620000Y-116160000D03*
X65380000Y-95840000D03*
X70460000Y-95840000D03*
X67920000Y-95840000D03*
X80620000Y-95840000D03*
X78080000Y-95840000D03*
X75540000Y-95840000D03*
X73000000Y-95840000D03*
D12*
X74914525Y-113767534D03*
X65519871Y-108836839D03*
X71085475Y-113767534D03*
X65058330Y-105035707D03*
X80480129Y-108836839D03*
X67695019Y-111988085D03*
X66416130Y-101455483D03*
X78304981Y-111988085D03*
X69282215Y-98916352D03*
X80941670Y-105035707D03*
X79583870Y-101455483D03*
X76810000Y-98916352D03*
X73000000Y-98000000D03*
D11*
X73000000Y-106000000D03*
D13*
X52000000Y-91160000D03*
X44380000Y-91160000D03*
X46920000Y-91160000D03*
X49460000Y-91160000D03*
X54540000Y-91160000D03*
X57080000Y-91160000D03*
X59620000Y-91160000D03*
X44380000Y-70840000D03*
X49460000Y-70840000D03*
X46920000Y-70840000D03*
X59620000Y-70840000D03*
X57080000Y-70840000D03*
X54540000Y-70840000D03*
X52000000Y-70840000D03*
D12*
X53914525Y-88767534D03*
X44519871Y-83836839D03*
X50085475Y-88767534D03*
X44058330Y-80035707D03*
X59480129Y-83836839D03*
X46695019Y-86988085D03*
X45416130Y-76455483D03*
X57304981Y-86988085D03*
X48282215Y-73916352D03*
X59941670Y-80035707D03*
X58583870Y-76455483D03*
X55810000Y-73916352D03*
X52000000Y-73000000D03*
D11*
X52000000Y-81000000D03*
D13*
X73000000Y-91160000D03*
X65380000Y-91160000D03*
X67920000Y-91160000D03*
X70460000Y-91160000D03*
X75540000Y-91160000D03*
X78080000Y-91160000D03*
X80620000Y-91160000D03*
X65380000Y-70840000D03*
X70460000Y-70840000D03*
X67920000Y-70840000D03*
X80620000Y-70840000D03*
X78080000Y-70840000D03*
X75540000Y-70840000D03*
X73000000Y-70840000D03*
D12*
X74914525Y-88767534D03*
X65519871Y-83836839D03*
X71085475Y-88767534D03*
X65058330Y-80035707D03*
X80480129Y-83836839D03*
X67695019Y-86988085D03*
X66416130Y-76455483D03*
X78304981Y-86988085D03*
X69282215Y-73916352D03*
X80941670Y-80035707D03*
X79583870Y-76455483D03*
X76810000Y-73916352D03*
X73000000Y-73000000D03*
D11*
X73000000Y-81000000D03*
D10*
X84000000Y-106500000D03*
M02*
