M48
;DRILL file {KiCad (2018-01-14 revision 63e55e918)-makepkg} date 02/22/18 22:41:36
;FORMAT={-:-/ absolute / metric / decimal}
FMAT,2
METRIC,TZ
T1C0.700
T2C0.800
T3C0.900
T4C1.000
T5C6.100
%
G90
G05
M71
T1
X105.058Y-127.036
X105.52Y-130.837
X44.058Y-130.036
X44.52Y-133.837
X45.416Y-126.455
X46.695Y-136.988
X48.282Y-123.916
X50.085Y-138.768
X52.Y-123.
X53.915Y-138.768
X55.81Y-123.916
X57.305Y-136.988
X58.584Y-126.455
X59.48Y-133.837
X59.942Y-130.036
X106.416Y-123.455
X107.695Y-133.988
X109.282Y-120.916
X118.305Y-133.988
X120.48Y-130.837
X120.942Y-127.036
X74.915Y-138.768
X111.085Y-135.768
X113.Y-120.
X114.915Y-135.768
X116.81Y-120.916
X119.584Y-123.455
X65.058Y-130.036
X65.52Y-133.837
X71.085Y-138.768
X80.48Y-133.837
X128.915Y-121.768
X104.305Y-119.988
X119.058Y-113.036
X119.52Y-116.837
X125.085Y-121.768
X95.282Y-106.916
X120.416Y-109.455
X121.695Y-119.988
X106.942Y-113.036
X123.282Y-106.916
X99.Y-106.
X102.81Y-106.916
X105.584Y-109.455
X132.305Y-119.988
X134.48Y-116.837
X134.942Y-113.036
X66.416Y-126.455
X93.695Y-119.988
X69.282Y-123.916
X80.942Y-130.036
X91.058Y-113.036
X79.584Y-126.455
X91.52Y-116.837
X67.695Y-136.988
X73.Y-123.
X76.81Y-123.916
X78.305Y-136.988
X92.416Y-109.455
X127.Y-106.
X130.81Y-106.916
X133.584Y-109.455
X97.085Y-121.768
X100.915Y-121.768
X106.48Y-116.837
T2
X105.52Y-102.837
X91.52Y-88.837
X95.282Y-78.916
X97.085Y-93.768
X100.915Y-93.768
X114.915Y-107.768
X119.058Y-85.036
X119.52Y-88.837
X120.416Y-81.455
X121.695Y-91.988
X123.282Y-78.916
X125.085Y-93.768
X127.Y-78.
X44.058Y-105.036
X44.52Y-108.837
X45.416Y-101.455
X46.695Y-111.988
X48.282Y-98.916
X50.085Y-113.768
X52.Y-98.
X53.915Y-113.768
X55.81Y-98.916
X57.305Y-111.988
X58.584Y-101.455
X59.48Y-108.837
X59.942Y-105.036
X128.915Y-93.768
X130.81Y-78.916
X132.305Y-91.988
X133.584Y-81.455
X134.48Y-88.837
X134.942Y-85.036
X65.058Y-105.036
X65.52Y-108.837
X66.416Y-101.455
X67.695Y-111.988
X69.282Y-98.916
X71.085Y-113.768
X74.915Y-113.768
X92.416Y-81.455
X104.305Y-91.988
X73.Y-98.
X76.81Y-98.916
X78.305Y-111.988
X93.695Y-91.988
X105.058Y-99.036
X113.Y-92.
X99.Y-78.
X102.81Y-78.916
X105.584Y-81.455
X106.942Y-85.036
X79.584Y-101.455
X80.48Y-108.837
X80.942Y-105.036
X91.058Y-85.036
X106.48Y-88.837
X106.416Y-95.455
X107.695Y-105.988
X109.282Y-92.916
X111.085Y-107.768
X116.81Y-92.916
X118.305Y-105.988
X119.584Y-95.455
X120.48Y-102.837
X120.942Y-99.036
T3
X44.38Y-70.84
X65.058Y-80.036
X65.38Y-70.84
X65.38Y-91.16
X65.52Y-83.837
X66.416Y-76.455
X67.695Y-86.988
X67.92Y-70.84
X67.92Y-91.16
X69.282Y-73.916
X70.46Y-70.84
X70.46Y-91.16
X71.085Y-88.768
X73.Y-70.84
X73.Y-73.
X73.Y-91.16
X74.915Y-88.768
X75.54Y-70.84
X75.54Y-91.16
X76.81Y-73.916
X78.08Y-70.84
X78.08Y-91.16
X78.305Y-86.988
X79.584Y-76.455
X80.48Y-83.837
X80.62Y-70.84
X80.62Y-91.16
X80.942Y-80.036
X46.92Y-70.84
X49.46Y-70.84
X54.54Y-91.16
X49.46Y-141.16
X75.54Y-95.84
X78.08Y-95.84
X80.62Y-95.84
X44.38Y-120.84
X46.92Y-120.84
X49.46Y-120.84
X65.38Y-95.84
X67.92Y-95.84
X70.46Y-95.84
X44.38Y-141.16
X46.92Y-141.16
X52.Y-141.16
X54.54Y-120.84
X67.92Y-116.16
X70.46Y-116.16
X75.54Y-116.16
X78.08Y-116.16
X80.62Y-116.16
X52.Y-120.84
X131.53Y-82.87
X59.62Y-91.16
X57.08Y-120.84
X59.62Y-120.84
X101.56Y-53.13
X125.68Y-91.34
X128.31Y-91.34
X130.64Y-90.11
X57.08Y-70.84
X59.62Y-70.84
X57.08Y-141.16
X59.62Y-141.16
X57.08Y-91.16
X54.54Y-141.16
X49.46Y-116.16
X73.Y-95.84
X46.92Y-116.16
X121.54Y-85.33
X121.86Y-87.94
X122.47Y-82.87
X123.35Y-90.11
X124.44Y-81.13
X99.Y-52.5
X132.46Y-85.33
X107.54Y-127.33
X107.86Y-129.94
X108.47Y-124.87
X109.35Y-132.11
X110.44Y-123.13
X111.68Y-133.34
X113.Y-122.5
X114.31Y-133.34
X115.56Y-123.13
X95.282Y-50.916
X99.Y-50.
X44.38Y-116.16
X91.058Y-57.036
X91.52Y-60.837
X92.416Y-53.455
X93.54Y-57.33
X93.695Y-63.988
X93.86Y-59.94
X95.35Y-62.11
X97.085Y-65.768
X97.68Y-63.34
X100.31Y-63.34
X100.915Y-65.768
X132.14Y-87.94
X94.47Y-54.87
X96.44Y-53.13
X52.Y-116.16
X44.38Y-91.16
X46.92Y-91.16
X49.46Y-91.16
X52.Y-91.16
X107.54Y-99.33
X107.86Y-101.94
X108.47Y-96.87
X109.35Y-104.11
X110.44Y-95.13
X111.68Y-105.34
X113.Y-94.5
X114.31Y-105.34
X115.56Y-95.13
X116.64Y-132.11
X117.53Y-124.87
X118.14Y-129.94
X118.46Y-127.33
X106.416Y-67.455
X107.54Y-71.33
X107.695Y-77.988
X107.86Y-73.94
X108.47Y-68.87
X109.282Y-64.916
X97.68Y-119.34
X100.31Y-119.34
X102.64Y-118.11
X104.14Y-115.94
X104.46Y-113.33
X109.35Y-76.11
X127.Y-50.
X130.81Y-50.916
X105.058Y-71.036
X105.52Y-74.837
X119.058Y-57.036
X119.52Y-60.837
X120.416Y-53.455
X121.695Y-63.988
X123.282Y-50.916
X125.085Y-65.768
X128.915Y-65.768
X132.305Y-63.988
X133.584Y-53.455
X134.48Y-60.837
X134.942Y-57.036
X116.64Y-104.11
X117.53Y-96.87
X118.14Y-101.94
X118.46Y-99.33
X93.54Y-113.33
X93.86Y-115.94
X94.47Y-110.87
X95.35Y-118.11
X96.44Y-109.13
X67.92Y-141.16
X111.68Y-77.34
X114.31Y-77.34
X115.56Y-67.13
X73.Y-116.16
X110.44Y-67.13
X113.Y-64.
X113.Y-66.5
X65.38Y-120.84
X67.92Y-120.84
X127.Y-52.5
X111.085Y-79.768
X65.38Y-141.16
X114.915Y-79.768
X127.Y-80.5
X99.Y-108.5
X129.56Y-53.13
X101.56Y-109.13
X129.56Y-81.13
X73.Y-120.84
X121.54Y-57.33
X122.47Y-54.87
X124.44Y-53.13
X75.54Y-120.84
X128.31Y-63.34
X78.08Y-120.84
X121.86Y-59.94
X125.68Y-63.34
X80.62Y-120.84
X123.35Y-62.11
X70.46Y-120.84
X75.54Y-141.16
X78.08Y-141.16
X80.62Y-141.16
X130.64Y-62.11
X70.46Y-141.16
X103.53Y-110.87
X131.53Y-54.87
X132.14Y-59.94
X132.46Y-57.33
X73.Y-141.16
X124.44Y-109.13
X99.Y-80.5
X100.31Y-91.34
X101.56Y-81.13
X102.64Y-90.11
X103.53Y-82.87
X104.14Y-87.94
X104.46Y-85.33
X121.54Y-113.33
X121.86Y-115.94
X122.47Y-110.87
X123.35Y-118.11
X118.14Y-73.94
X65.38Y-116.16
X130.64Y-118.11
X116.64Y-76.11
X54.54Y-116.16
X117.53Y-68.87
X57.08Y-116.16
X59.62Y-116.16
X125.68Y-119.34
X128.31Y-119.34
X44.38Y-95.84
X49.46Y-95.84
X132.14Y-115.94
X52.Y-95.84
X116.81Y-64.916
X93.54Y-85.33
X93.86Y-87.94
X94.47Y-82.87
X95.35Y-90.11
X96.44Y-81.13
X46.92Y-95.84
X54.54Y-95.84
X57.08Y-95.84
X59.62Y-95.84
X102.64Y-62.11
X45.416Y-76.455
X46.695Y-86.988
X48.282Y-73.916
X52.Y-70.84
X52.Y-73.
X53.915Y-88.768
X54.54Y-70.84
X55.81Y-73.916
X57.305Y-86.988
X58.584Y-76.455
X59.942Y-80.036
X132.46Y-113.33
X118.46Y-71.33
X97.68Y-91.34
X44.058Y-80.036
X131.53Y-110.87
X118.305Y-77.988
X119.584Y-67.455
X120.48Y-74.837
X120.942Y-71.036
X102.81Y-50.916
X105.584Y-53.455
X106.942Y-57.036
X44.52Y-83.837
X129.56Y-109.13
X104.305Y-63.988
X127.Y-108.5
X103.53Y-54.87
X104.14Y-59.94
X104.46Y-57.33
X106.48Y-60.837
X50.085Y-88.768
X59.48Y-83.837
T5
X73.Y-131.
X73.Y-81.
X113.Y-128.
X127.Y-114.
X99.Y-114.
X52.Y-81.
X52.Y-106.
X113.Y-100.
X127.Y-86.
X52.Y-131.
X99.Y-86.
X73.Y-106.
X99.Y-58.
X113.Y-72.
X127.Y-58.
T4
X84.Y-96.G85X84.Y-117.
G05
X84.Y-70.5G85X84.Y-91.5
G05
X89.Y-82.025G85X89.Y-84.775
G05
X89.Y-87.225G85X89.Y-89.975
G05
X95.Y-76.G85X89.Y-82.
G05
X89.Y-59.225G85X89.Y-61.975
G05
X117.Y-82.025G85X117.Y-84.775
G05
X117.Y-87.225G85X117.Y-89.975
G05
X137.Y-82.025G85X137.Y-84.775
G05
X137.Y-87.225G85X137.Y-89.975
G05
X44.Y-93.5G85X61.Y-93.5
G05
X61.Y-118.5G85X44.Y-118.5
G05
X64.Y-93.5G85X82.Y-93.5
G05
X64.5Y-68.5G85X82.5Y-68.5
G05
X89.Y-54.025G85X89.Y-56.775
G05
X114.275Y-90.G85X117.025Y-90.
G05
X89.Y-62.G85X95.Y-68.
G05
X109.025Y-90.G85X111.775Y-90.
G05
X109.025Y-110.G85X111.775Y-110.
G05
X114.225Y-110.G85X116.975Y-110.
G05
X123.Y-96.025G85X123.Y-98.775
G05
X123.Y-101.225G85X123.Y-103.975
G05
X95.Y-48.G85X89.Y-54.
G05
X103.Y-96.025G85X103.Y-98.775
G05
X103.Y-101.225G85X103.Y-103.975
G05
X123.025Y-96.G85X125.775Y-96.
G05
X103.Y-48.G85X109.Y-54.
G05
X123.025Y-76.G85X125.775Y-76.
G05
X109.Y-62.G85X103.Y-68.
G05
X62.5Y-121.G85X62.5Y-141.
G05
X100.275Y-48.G85X103.025Y-48.
G05
X117.Y-90.G85X123.Y-96.
G05
X95.025Y-48.G85X97.775Y-48.
G05
X95.025Y-68.G85X97.775Y-68.
G05
X100.225Y-68.G85X102.975Y-68.
G05
X109.Y-54.025G85X109.Y-56.775
G05
X109.Y-59.225G85X109.Y-61.975
G05
X128.225Y-96.G85X130.975Y-96.
G05
X128.275Y-76.G85X131.025Y-76.
G05
X131.Y-76.G85X137.Y-82.
G05
X137.Y-90.G85X131.Y-96.
G05
X61.Y-68.5G85X44.Y-68.5
G05
X89.Y-118.G85X95.Y-124.
G05
X109.Y-118.G85X103.Y-124.
G05
X89.Y-90.G85X95.Y-96.
G05
X103.Y-124.025G85X103.Y-126.775
G05
X103.Y-129.225G85X103.Y-131.975
G05
X95.Y-104.G85X89.Y-110.
G05
X95.025Y-76.G85X97.775Y-76.
G05
X100.275Y-104.G85X103.025Y-104.
G05
X62.5Y-96.G85X62.5Y-116.
G05
X103.Y-132.G85X109.Y-138.
G05
X109.025Y-118.G85X111.775Y-118.
G05
X109.025Y-138.G85X111.775Y-138.
G05
X114.275Y-118.G85X117.025Y-118.
G05
X123.Y-132.G85X117.Y-138.
G05
X123.Y-124.025G85X123.Y-126.775
G05
X95.025Y-96.G85X97.775Y-96.
G05
X95.025Y-104.G85X97.775Y-104.
G05
X95.025Y-124.G85X97.775Y-124.
G05
X100.225Y-124.G85X102.975Y-124.
G05
X114.225Y-138.G85X116.975Y-138.
G05
X123.Y-129.225G85X123.Y-131.975
G05
X117.Y-110.025G85X117.Y-112.775
G05
X123.Y-104.G85X117.Y-110.
G05
X117.Y-118.G85X123.Y-124.
G05
X123.025Y-104.G85X125.775Y-104.
G05
X123.025Y-124.G85X125.775Y-124.
G05
X128.225Y-124.G85X130.975Y-124.
G05
X128.275Y-104.G85X131.025Y-104.
G05
X131.Y-104.G85X137.Y-110.
G05
X137.Y-118.G85X131.Y-124.
G05
X137.Y-110.025G85X137.Y-112.775
G05
X137.Y-115.225G85X137.Y-117.975
G05
X100.225Y-96.G85X102.975Y-96.
G05
X117.Y-115.225G85X117.Y-117.975
G05
X103.Y-104.G85X109.Y-110.
G05
X109.Y-115.225G85X109.Y-117.975
G05
X123.025Y-68.G85X125.775Y-68.
G05
X103.Y-76.G85X109.Y-82.
G05
X117.Y-62.G85X123.Y-68.
G05
X64.Y-118.5G85X82.Y-118.5
G05
X89.Y-115.225G85X89.Y-117.975
G05
X117.Y-54.025G85X117.Y-56.775
G05
X117.Y-59.225G85X117.Y-61.975
G05
X123.Y-48.G85X117.Y-54.
G05
X123.025Y-48.G85X125.775Y-48.
G05
X109.Y-82.025G85X109.Y-84.775
G05
X128.225Y-68.G85X130.975Y-68.
G05
X128.275Y-48.G85X131.025Y-48.
G05
X137.Y-54.025G85X137.Y-56.775
G05
X137.Y-59.225G85X137.Y-61.975
G05
X109.Y-90.G85X103.Y-96.
G05
X137.Y-62.G85X131.Y-68.
G05
X100.275Y-76.G85X103.025Y-76.
G05
X131.Y-48.G85X137.Y-54.
G05
X62.5Y-71.G85X62.5Y-91.
G05
X109.025Y-62.G85X111.775Y-62.
G05
X109.025Y-82.G85X111.775Y-82.
G05
X114.225Y-82.G85X116.975Y-82.
G05
X114.275Y-62.G85X117.025Y-62.
G05
X123.Y-76.G85X117.Y-82.
G05
X123.Y-68.025G85X123.Y-70.775
G05
X123.Y-73.225G85X123.Y-75.975
G05
X89.Y-110.025G85X89.Y-112.775
G05
X103.Y-68.025G85X103.Y-70.775
G05
X103.Y-73.225G85X103.Y-75.975
G05
X109.Y-110.025G85X109.Y-112.775
G05
X84.Y-120.G85X84.Y-141.
G05
X109.Y-87.225G85X109.Y-89.975
G05
T0
M30
