G04 #@! TF.GenerationSoftware,KiCad,Pcbnew,(2018-01-14 revision 63e55e918)-makepkg*
G04 #@! TF.CreationDate,2018-02-22T22:40:35+00:00*
G04 #@! TF.ProjectId,Test nixie bearing,54657374206E69786965206265617269,rev?*
G04 #@! TF.SameCoordinates,Original*
G04 #@! TF.FileFunction,Legend,Top*
G04 #@! TF.FilePolarity,Positive*
%FSLAX46Y46*%
G04 Gerber Fmt 4.6, Leading zero omitted, Abs format (unit mm)*
G04 Created by KiCad (PCBNEW (2018-01-14 revision 63e55e918)-makepkg) date 02/22/18 22:40:35*
%MOMM*%
%LPD*%
G01*
G04 APERTURE LIST*
%ADD10C,0.150000*%
G04 APERTURE END LIST*
D10*
X73635000Y-123380000D02*
X72365000Y-123380000D01*
X73000000Y-124650000D02*
X73635000Y-123380000D01*
X72365000Y-123380000D02*
X73000000Y-124650000D01*
X82250000Y-131000000D02*
G75*
G03X82250000Y-131000000I-9250000J0D01*
G01*
X108250000Y-114000000D02*
G75*
G03X108250000Y-114000000I-9250000J0D01*
G01*
X98365000Y-106380000D02*
X99000000Y-107650000D01*
X99000000Y-107650000D02*
X99635000Y-106380000D01*
X99635000Y-106380000D02*
X98365000Y-106380000D01*
X122250000Y-128000000D02*
G75*
G03X122250000Y-128000000I-9250000J0D01*
G01*
X112365000Y-120380000D02*
X113000000Y-121650000D01*
X113000000Y-121650000D02*
X113635000Y-120380000D01*
X113635000Y-120380000D02*
X112365000Y-120380000D01*
X136250000Y-114000000D02*
G75*
G03X136250000Y-114000000I-9250000J0D01*
G01*
X126365000Y-106380000D02*
X127000000Y-107650000D01*
X127000000Y-107650000D02*
X127635000Y-106380000D01*
X127635000Y-106380000D02*
X126365000Y-106380000D01*
X61250000Y-131000000D02*
G75*
G03X61250000Y-131000000I-9250000J0D01*
G01*
X51365000Y-123380000D02*
X52000000Y-124650000D01*
X52000000Y-124650000D02*
X52635000Y-123380000D01*
X52635000Y-123380000D02*
X51365000Y-123380000D01*
X122250000Y-100000000D02*
G75*
G03X122250000Y-100000000I-9250000J0D01*
G01*
X112365000Y-92380000D02*
X113000000Y-93650000D01*
X113000000Y-93650000D02*
X113635000Y-92380000D01*
X113635000Y-92380000D02*
X112365000Y-92380000D01*
X136250000Y-86000000D02*
G75*
G03X136250000Y-86000000I-9250000J0D01*
G01*
X126365000Y-78380000D02*
X127000000Y-79650000D01*
X127000000Y-79650000D02*
X127635000Y-78380000D01*
X127635000Y-78380000D02*
X126365000Y-78380000D01*
X108250000Y-86000000D02*
G75*
G03X108250000Y-86000000I-9250000J0D01*
G01*
X98365000Y-78380000D02*
X99000000Y-79650000D01*
X99000000Y-79650000D02*
X99635000Y-78380000D01*
X99635000Y-78380000D02*
X98365000Y-78380000D01*
X122250000Y-72000000D02*
G75*
G03X122250000Y-72000000I-9250000J0D01*
G01*
X112365000Y-64380000D02*
X113000000Y-65650000D01*
X113000000Y-65650000D02*
X113635000Y-64380000D01*
X113635000Y-64380000D02*
X112365000Y-64380000D01*
X136250000Y-58000000D02*
G75*
G03X136250000Y-58000000I-9250000J0D01*
G01*
X126365000Y-50380000D02*
X127000000Y-51650000D01*
X127000000Y-51650000D02*
X127635000Y-50380000D01*
X127635000Y-50380000D02*
X126365000Y-50380000D01*
X108250000Y-58000000D02*
G75*
G03X108250000Y-58000000I-9250000J0D01*
G01*
X98365000Y-50380000D02*
X99000000Y-51650000D01*
X99000000Y-51650000D02*
X99635000Y-50380000D01*
X99635000Y-50380000D02*
X98365000Y-50380000D01*
X61250000Y-106000000D02*
G75*
G03X61250000Y-106000000I-9250000J0D01*
G01*
X51365000Y-98380000D02*
X52000000Y-99650000D01*
X52000000Y-99650000D02*
X52635000Y-98380000D01*
X52635000Y-98380000D02*
X51365000Y-98380000D01*
X82250000Y-106000000D02*
G75*
G03X82250000Y-106000000I-9250000J0D01*
G01*
X72365000Y-98380000D02*
X73000000Y-99650000D01*
X73000000Y-99650000D02*
X73635000Y-98380000D01*
X73635000Y-98380000D02*
X72365000Y-98380000D01*
X61250000Y-81000000D02*
G75*
G03X61250000Y-81000000I-9250000J0D01*
G01*
X51365000Y-73380000D02*
X52000000Y-74650000D01*
X52000000Y-74650000D02*
X52635000Y-73380000D01*
X52635000Y-73380000D02*
X51365000Y-73380000D01*
X82250000Y-81000000D02*
G75*
G03X82250000Y-81000000I-9250000J0D01*
G01*
X72365000Y-73380000D02*
X73000000Y-74650000D01*
X73000000Y-74650000D02*
X73635000Y-73380000D01*
X73635000Y-73380000D02*
X72365000Y-73380000D01*
X71761904Y-125452380D02*
X71761904Y-126261904D01*
X71809523Y-126357142D01*
X71857142Y-126404761D01*
X71952380Y-126452380D01*
X72142857Y-126452380D01*
X72238095Y-126404761D01*
X72285714Y-126357142D01*
X72333333Y-126261904D01*
X72333333Y-125452380D01*
X73333333Y-126452380D02*
X72761904Y-126452380D01*
X73047619Y-126452380D02*
X73047619Y-125452380D01*
X72952380Y-125595238D01*
X72857142Y-125690476D01*
X72761904Y-125738095D01*
X74285714Y-126452380D02*
X73714285Y-126452380D01*
X74000000Y-126452380D02*
X74000000Y-125452380D01*
X73904761Y-125595238D01*
X73809523Y-125690476D01*
X73714285Y-125738095D01*
X97761904Y-103292380D02*
X97761904Y-104101904D01*
X97809523Y-104197142D01*
X97857142Y-104244761D01*
X97952380Y-104292380D01*
X98142857Y-104292380D01*
X98238095Y-104244761D01*
X98285714Y-104197142D01*
X98333333Y-104101904D01*
X98333333Y-103292380D01*
X99333333Y-104292380D02*
X98761904Y-104292380D01*
X99047619Y-104292380D02*
X99047619Y-103292380D01*
X98952380Y-103435238D01*
X98857142Y-103530476D01*
X98761904Y-103578095D01*
X100285714Y-104292380D02*
X99714285Y-104292380D01*
X100000000Y-104292380D02*
X100000000Y-103292380D01*
X99904761Y-103435238D01*
X99809523Y-103530476D01*
X99714285Y-103578095D01*
X100143066Y-110856704D02*
X100143066Y-110056704D01*
X100447828Y-110056704D01*
X100524019Y-110094800D01*
X100562114Y-110132895D01*
X100600209Y-110209085D01*
X100600209Y-110323371D01*
X100562114Y-110399561D01*
X100524019Y-110437657D01*
X100447828Y-110475752D01*
X100143066Y-110475752D01*
X101324019Y-110856704D02*
X100943066Y-110856704D01*
X100943066Y-110056704D01*
X96866476Y-110856704D02*
X96866476Y-110056704D01*
X97171238Y-110056704D01*
X97247428Y-110094800D01*
X97285523Y-110132895D01*
X97323619Y-110209085D01*
X97323619Y-110323371D01*
X97285523Y-110399561D01*
X97247428Y-110437657D01*
X97171238Y-110475752D01*
X96866476Y-110475752D01*
X98123619Y-110856704D02*
X97856952Y-110475752D01*
X97666476Y-110856704D02*
X97666476Y-110056704D01*
X97971238Y-110056704D01*
X98047428Y-110094800D01*
X98085523Y-110132895D01*
X98123619Y-110209085D01*
X98123619Y-110323371D01*
X98085523Y-110399561D01*
X98047428Y-110437657D01*
X97971238Y-110475752D01*
X97666476Y-110475752D01*
X95751980Y-111318780D02*
X95847219Y-111318780D01*
X95942457Y-111366400D01*
X95990076Y-111414019D01*
X96037695Y-111509257D01*
X96085314Y-111699733D01*
X96085314Y-111937828D01*
X96037695Y-112128304D01*
X95990076Y-112223542D01*
X95942457Y-112271161D01*
X95847219Y-112318780D01*
X95751980Y-112318780D01*
X95656742Y-112271161D01*
X95609123Y-112223542D01*
X95561504Y-112128304D01*
X95513885Y-111937828D01*
X95513885Y-111699733D01*
X95561504Y-111509257D01*
X95609123Y-111414019D01*
X95656742Y-111366400D01*
X95751980Y-111318780D01*
X95024923Y-113944380D02*
X95215400Y-113944380D01*
X95310638Y-113896761D01*
X95358257Y-113849142D01*
X95453495Y-113706285D01*
X95501114Y-113515809D01*
X95501114Y-113134857D01*
X95453495Y-113039619D01*
X95405876Y-112992000D01*
X95310638Y-112944380D01*
X95120161Y-112944380D01*
X95024923Y-112992000D01*
X94977304Y-113039619D01*
X94929685Y-113134857D01*
X94929685Y-113372952D01*
X94977304Y-113468190D01*
X95024923Y-113515809D01*
X95120161Y-113563428D01*
X95310638Y-113563428D01*
X95405876Y-113515809D01*
X95453495Y-113468190D01*
X95501114Y-113372952D01*
X95348761Y-115252552D02*
X95253523Y-115204933D01*
X95205904Y-115157314D01*
X95158285Y-115062076D01*
X95158285Y-115014457D01*
X95205904Y-114919219D01*
X95253523Y-114871600D01*
X95348761Y-114823980D01*
X95539238Y-114823980D01*
X95634476Y-114871600D01*
X95682095Y-114919219D01*
X95729714Y-115014457D01*
X95729714Y-115062076D01*
X95682095Y-115157314D01*
X95634476Y-115204933D01*
X95539238Y-115252552D01*
X95348761Y-115252552D01*
X95253523Y-115300171D01*
X95205904Y-115347790D01*
X95158285Y-115443028D01*
X95158285Y-115633504D01*
X95205904Y-115728742D01*
X95253523Y-115776361D01*
X95348761Y-115823980D01*
X95539238Y-115823980D01*
X95634476Y-115776361D01*
X95682095Y-115728742D01*
X95729714Y-115633504D01*
X95729714Y-115443028D01*
X95682095Y-115347790D01*
X95634476Y-115300171D01*
X95539238Y-115252552D01*
X96126666Y-116525780D02*
X96793333Y-116525780D01*
X96364761Y-117525780D01*
X98250676Y-117262380D02*
X98060200Y-117262380D01*
X97964961Y-117310000D01*
X97917342Y-117357619D01*
X97822104Y-117500476D01*
X97774485Y-117690952D01*
X97774485Y-118071904D01*
X97822104Y-118167142D01*
X97869723Y-118214761D01*
X97964961Y-118262380D01*
X98155438Y-118262380D01*
X98250676Y-118214761D01*
X98298295Y-118167142D01*
X98345914Y-118071904D01*
X98345914Y-117833809D01*
X98298295Y-117738571D01*
X98250676Y-117690952D01*
X98155438Y-117643333D01*
X97964961Y-117643333D01*
X97869723Y-117690952D01*
X97822104Y-117738571D01*
X97774485Y-117833809D01*
X100152495Y-117262380D02*
X99676304Y-117262380D01*
X99628685Y-117738571D01*
X99676304Y-117690952D01*
X99771542Y-117643333D01*
X100009638Y-117643333D01*
X100104876Y-117690952D01*
X100152495Y-117738571D01*
X100200114Y-117833809D01*
X100200114Y-118071904D01*
X100152495Y-118167142D01*
X100104876Y-118214761D01*
X100009638Y-118262380D01*
X99771542Y-118262380D01*
X99676304Y-118214761D01*
X99628685Y-118167142D01*
X101705076Y-116782914D02*
X101705076Y-117449580D01*
X101466980Y-116401961D02*
X101228885Y-117116247D01*
X101847933Y-117116247D01*
X102298866Y-115001780D02*
X102917914Y-115001780D01*
X102584580Y-115382733D01*
X102727438Y-115382733D01*
X102822676Y-115430352D01*
X102870295Y-115477971D01*
X102917914Y-115573209D01*
X102917914Y-115811304D01*
X102870295Y-115906542D01*
X102822676Y-115954161D01*
X102727438Y-116001780D01*
X102441723Y-116001780D01*
X102346485Y-115954161D01*
X102298866Y-115906542D01*
X102575085Y-112912619D02*
X102622704Y-112865000D01*
X102717942Y-112817380D01*
X102956038Y-112817380D01*
X103051276Y-112865000D01*
X103098895Y-112912619D01*
X103146514Y-113007857D01*
X103146514Y-113103095D01*
X103098895Y-113245952D01*
X102527466Y-113817380D01*
X103146514Y-113817380D01*
X102536914Y-112217180D02*
X101965485Y-112217180D01*
X102251200Y-112217180D02*
X102251200Y-111217180D01*
X102155961Y-111360038D01*
X102060723Y-111455276D01*
X101965485Y-111502895D01*
X98761904Y-110356666D02*
X99238095Y-110356666D01*
X98666666Y-110642380D02*
X99000000Y-109642380D01*
X99333333Y-110642380D01*
X111761904Y-117292380D02*
X111761904Y-118101904D01*
X111809523Y-118197142D01*
X111857142Y-118244761D01*
X111952380Y-118292380D01*
X112142857Y-118292380D01*
X112238095Y-118244761D01*
X112285714Y-118197142D01*
X112333333Y-118101904D01*
X112333333Y-117292380D01*
X113333333Y-118292380D02*
X112761904Y-118292380D01*
X113047619Y-118292380D02*
X113047619Y-117292380D01*
X112952380Y-117435238D01*
X112857142Y-117530476D01*
X112761904Y-117578095D01*
X114285714Y-118292380D02*
X113714285Y-118292380D01*
X114000000Y-118292380D02*
X114000000Y-117292380D01*
X113904761Y-117435238D01*
X113809523Y-117530476D01*
X113714285Y-117578095D01*
X114143066Y-124856704D02*
X114143066Y-124056704D01*
X114447828Y-124056704D01*
X114524019Y-124094800D01*
X114562114Y-124132895D01*
X114600209Y-124209085D01*
X114600209Y-124323371D01*
X114562114Y-124399561D01*
X114524019Y-124437657D01*
X114447828Y-124475752D01*
X114143066Y-124475752D01*
X115324019Y-124856704D02*
X114943066Y-124856704D01*
X114943066Y-124056704D01*
X110866476Y-124856704D02*
X110866476Y-124056704D01*
X111171238Y-124056704D01*
X111247428Y-124094800D01*
X111285523Y-124132895D01*
X111323619Y-124209085D01*
X111323619Y-124323371D01*
X111285523Y-124399561D01*
X111247428Y-124437657D01*
X111171238Y-124475752D01*
X110866476Y-124475752D01*
X112123619Y-124856704D02*
X111856952Y-124475752D01*
X111666476Y-124856704D02*
X111666476Y-124056704D01*
X111971238Y-124056704D01*
X112047428Y-124094800D01*
X112085523Y-124132895D01*
X112123619Y-124209085D01*
X112123619Y-124323371D01*
X112085523Y-124399561D01*
X112047428Y-124437657D01*
X111971238Y-124475752D01*
X111666476Y-124475752D01*
X109751980Y-125318780D02*
X109847219Y-125318780D01*
X109942457Y-125366400D01*
X109990076Y-125414019D01*
X110037695Y-125509257D01*
X110085314Y-125699733D01*
X110085314Y-125937828D01*
X110037695Y-126128304D01*
X109990076Y-126223542D01*
X109942457Y-126271161D01*
X109847219Y-126318780D01*
X109751980Y-126318780D01*
X109656742Y-126271161D01*
X109609123Y-126223542D01*
X109561504Y-126128304D01*
X109513885Y-125937828D01*
X109513885Y-125699733D01*
X109561504Y-125509257D01*
X109609123Y-125414019D01*
X109656742Y-125366400D01*
X109751980Y-125318780D01*
X109024923Y-127944380D02*
X109215400Y-127944380D01*
X109310638Y-127896761D01*
X109358257Y-127849142D01*
X109453495Y-127706285D01*
X109501114Y-127515809D01*
X109501114Y-127134857D01*
X109453495Y-127039619D01*
X109405876Y-126992000D01*
X109310638Y-126944380D01*
X109120161Y-126944380D01*
X109024923Y-126992000D01*
X108977304Y-127039619D01*
X108929685Y-127134857D01*
X108929685Y-127372952D01*
X108977304Y-127468190D01*
X109024923Y-127515809D01*
X109120161Y-127563428D01*
X109310638Y-127563428D01*
X109405876Y-127515809D01*
X109453495Y-127468190D01*
X109501114Y-127372952D01*
X109348761Y-129252552D02*
X109253523Y-129204933D01*
X109205904Y-129157314D01*
X109158285Y-129062076D01*
X109158285Y-129014457D01*
X109205904Y-128919219D01*
X109253523Y-128871600D01*
X109348761Y-128823980D01*
X109539238Y-128823980D01*
X109634476Y-128871600D01*
X109682095Y-128919219D01*
X109729714Y-129014457D01*
X109729714Y-129062076D01*
X109682095Y-129157314D01*
X109634476Y-129204933D01*
X109539238Y-129252552D01*
X109348761Y-129252552D01*
X109253523Y-129300171D01*
X109205904Y-129347790D01*
X109158285Y-129443028D01*
X109158285Y-129633504D01*
X109205904Y-129728742D01*
X109253523Y-129776361D01*
X109348761Y-129823980D01*
X109539238Y-129823980D01*
X109634476Y-129776361D01*
X109682095Y-129728742D01*
X109729714Y-129633504D01*
X109729714Y-129443028D01*
X109682095Y-129347790D01*
X109634476Y-129300171D01*
X109539238Y-129252552D01*
X110126666Y-130525780D02*
X110793333Y-130525780D01*
X110364761Y-131525780D01*
X112250676Y-131262380D02*
X112060200Y-131262380D01*
X111964961Y-131310000D01*
X111917342Y-131357619D01*
X111822104Y-131500476D01*
X111774485Y-131690952D01*
X111774485Y-132071904D01*
X111822104Y-132167142D01*
X111869723Y-132214761D01*
X111964961Y-132262380D01*
X112155438Y-132262380D01*
X112250676Y-132214761D01*
X112298295Y-132167142D01*
X112345914Y-132071904D01*
X112345914Y-131833809D01*
X112298295Y-131738571D01*
X112250676Y-131690952D01*
X112155438Y-131643333D01*
X111964961Y-131643333D01*
X111869723Y-131690952D01*
X111822104Y-131738571D01*
X111774485Y-131833809D01*
X114152495Y-131262380D02*
X113676304Y-131262380D01*
X113628685Y-131738571D01*
X113676304Y-131690952D01*
X113771542Y-131643333D01*
X114009638Y-131643333D01*
X114104876Y-131690952D01*
X114152495Y-131738571D01*
X114200114Y-131833809D01*
X114200114Y-132071904D01*
X114152495Y-132167142D01*
X114104876Y-132214761D01*
X114009638Y-132262380D01*
X113771542Y-132262380D01*
X113676304Y-132214761D01*
X113628685Y-132167142D01*
X115705076Y-130782914D02*
X115705076Y-131449580D01*
X115466980Y-130401961D02*
X115228885Y-131116247D01*
X115847933Y-131116247D01*
X116298866Y-129001780D02*
X116917914Y-129001780D01*
X116584580Y-129382733D01*
X116727438Y-129382733D01*
X116822676Y-129430352D01*
X116870295Y-129477971D01*
X116917914Y-129573209D01*
X116917914Y-129811304D01*
X116870295Y-129906542D01*
X116822676Y-129954161D01*
X116727438Y-130001780D01*
X116441723Y-130001780D01*
X116346485Y-129954161D01*
X116298866Y-129906542D01*
X116575085Y-126912619D02*
X116622704Y-126865000D01*
X116717942Y-126817380D01*
X116956038Y-126817380D01*
X117051276Y-126865000D01*
X117098895Y-126912619D01*
X117146514Y-127007857D01*
X117146514Y-127103095D01*
X117098895Y-127245952D01*
X116527466Y-127817380D01*
X117146514Y-127817380D01*
X116536914Y-126217180D02*
X115965485Y-126217180D01*
X116251200Y-126217180D02*
X116251200Y-125217180D01*
X116155961Y-125360038D01*
X116060723Y-125455276D01*
X115965485Y-125502895D01*
X112761904Y-124356666D02*
X113238095Y-124356666D01*
X112666666Y-124642380D02*
X113000000Y-123642380D01*
X113333333Y-124642380D01*
X125761904Y-103292380D02*
X125761904Y-104101904D01*
X125809523Y-104197142D01*
X125857142Y-104244761D01*
X125952380Y-104292380D01*
X126142857Y-104292380D01*
X126238095Y-104244761D01*
X126285714Y-104197142D01*
X126333333Y-104101904D01*
X126333333Y-103292380D01*
X127333333Y-104292380D02*
X126761904Y-104292380D01*
X127047619Y-104292380D02*
X127047619Y-103292380D01*
X126952380Y-103435238D01*
X126857142Y-103530476D01*
X126761904Y-103578095D01*
X128285714Y-104292380D02*
X127714285Y-104292380D01*
X128000000Y-104292380D02*
X128000000Y-103292380D01*
X127904761Y-103435238D01*
X127809523Y-103530476D01*
X127714285Y-103578095D01*
X128143066Y-110856704D02*
X128143066Y-110056704D01*
X128447828Y-110056704D01*
X128524019Y-110094800D01*
X128562114Y-110132895D01*
X128600209Y-110209085D01*
X128600209Y-110323371D01*
X128562114Y-110399561D01*
X128524019Y-110437657D01*
X128447828Y-110475752D01*
X128143066Y-110475752D01*
X129324019Y-110856704D02*
X128943066Y-110856704D01*
X128943066Y-110056704D01*
X124866476Y-110856704D02*
X124866476Y-110056704D01*
X125171238Y-110056704D01*
X125247428Y-110094800D01*
X125285523Y-110132895D01*
X125323619Y-110209085D01*
X125323619Y-110323371D01*
X125285523Y-110399561D01*
X125247428Y-110437657D01*
X125171238Y-110475752D01*
X124866476Y-110475752D01*
X126123619Y-110856704D02*
X125856952Y-110475752D01*
X125666476Y-110856704D02*
X125666476Y-110056704D01*
X125971238Y-110056704D01*
X126047428Y-110094800D01*
X126085523Y-110132895D01*
X126123619Y-110209085D01*
X126123619Y-110323371D01*
X126085523Y-110399561D01*
X126047428Y-110437657D01*
X125971238Y-110475752D01*
X125666476Y-110475752D01*
X123751980Y-111318780D02*
X123847219Y-111318780D01*
X123942457Y-111366400D01*
X123990076Y-111414019D01*
X124037695Y-111509257D01*
X124085314Y-111699733D01*
X124085314Y-111937828D01*
X124037695Y-112128304D01*
X123990076Y-112223542D01*
X123942457Y-112271161D01*
X123847219Y-112318780D01*
X123751980Y-112318780D01*
X123656742Y-112271161D01*
X123609123Y-112223542D01*
X123561504Y-112128304D01*
X123513885Y-111937828D01*
X123513885Y-111699733D01*
X123561504Y-111509257D01*
X123609123Y-111414019D01*
X123656742Y-111366400D01*
X123751980Y-111318780D01*
X123024923Y-113944380D02*
X123215400Y-113944380D01*
X123310638Y-113896761D01*
X123358257Y-113849142D01*
X123453495Y-113706285D01*
X123501114Y-113515809D01*
X123501114Y-113134857D01*
X123453495Y-113039619D01*
X123405876Y-112992000D01*
X123310638Y-112944380D01*
X123120161Y-112944380D01*
X123024923Y-112992000D01*
X122977304Y-113039619D01*
X122929685Y-113134857D01*
X122929685Y-113372952D01*
X122977304Y-113468190D01*
X123024923Y-113515809D01*
X123120161Y-113563428D01*
X123310638Y-113563428D01*
X123405876Y-113515809D01*
X123453495Y-113468190D01*
X123501114Y-113372952D01*
X123348761Y-115252552D02*
X123253523Y-115204933D01*
X123205904Y-115157314D01*
X123158285Y-115062076D01*
X123158285Y-115014457D01*
X123205904Y-114919219D01*
X123253523Y-114871600D01*
X123348761Y-114823980D01*
X123539238Y-114823980D01*
X123634476Y-114871600D01*
X123682095Y-114919219D01*
X123729714Y-115014457D01*
X123729714Y-115062076D01*
X123682095Y-115157314D01*
X123634476Y-115204933D01*
X123539238Y-115252552D01*
X123348761Y-115252552D01*
X123253523Y-115300171D01*
X123205904Y-115347790D01*
X123158285Y-115443028D01*
X123158285Y-115633504D01*
X123205904Y-115728742D01*
X123253523Y-115776361D01*
X123348761Y-115823980D01*
X123539238Y-115823980D01*
X123634476Y-115776361D01*
X123682095Y-115728742D01*
X123729714Y-115633504D01*
X123729714Y-115443028D01*
X123682095Y-115347790D01*
X123634476Y-115300171D01*
X123539238Y-115252552D01*
X124126666Y-116525780D02*
X124793333Y-116525780D01*
X124364761Y-117525780D01*
X126250676Y-117262380D02*
X126060200Y-117262380D01*
X125964961Y-117310000D01*
X125917342Y-117357619D01*
X125822104Y-117500476D01*
X125774485Y-117690952D01*
X125774485Y-118071904D01*
X125822104Y-118167142D01*
X125869723Y-118214761D01*
X125964961Y-118262380D01*
X126155438Y-118262380D01*
X126250676Y-118214761D01*
X126298295Y-118167142D01*
X126345914Y-118071904D01*
X126345914Y-117833809D01*
X126298295Y-117738571D01*
X126250676Y-117690952D01*
X126155438Y-117643333D01*
X125964961Y-117643333D01*
X125869723Y-117690952D01*
X125822104Y-117738571D01*
X125774485Y-117833809D01*
X128152495Y-117262380D02*
X127676304Y-117262380D01*
X127628685Y-117738571D01*
X127676304Y-117690952D01*
X127771542Y-117643333D01*
X128009638Y-117643333D01*
X128104876Y-117690952D01*
X128152495Y-117738571D01*
X128200114Y-117833809D01*
X128200114Y-118071904D01*
X128152495Y-118167142D01*
X128104876Y-118214761D01*
X128009638Y-118262380D01*
X127771542Y-118262380D01*
X127676304Y-118214761D01*
X127628685Y-118167142D01*
X129705076Y-116782914D02*
X129705076Y-117449580D01*
X129466980Y-116401961D02*
X129228885Y-117116247D01*
X129847933Y-117116247D01*
X130298866Y-115001780D02*
X130917914Y-115001780D01*
X130584580Y-115382733D01*
X130727438Y-115382733D01*
X130822676Y-115430352D01*
X130870295Y-115477971D01*
X130917914Y-115573209D01*
X130917914Y-115811304D01*
X130870295Y-115906542D01*
X130822676Y-115954161D01*
X130727438Y-116001780D01*
X130441723Y-116001780D01*
X130346485Y-115954161D01*
X130298866Y-115906542D01*
X130575085Y-112912619D02*
X130622704Y-112865000D01*
X130717942Y-112817380D01*
X130956038Y-112817380D01*
X131051276Y-112865000D01*
X131098895Y-112912619D01*
X131146514Y-113007857D01*
X131146514Y-113103095D01*
X131098895Y-113245952D01*
X130527466Y-113817380D01*
X131146514Y-113817380D01*
X130536914Y-112217180D02*
X129965485Y-112217180D01*
X130251200Y-112217180D02*
X130251200Y-111217180D01*
X130155961Y-111360038D01*
X130060723Y-111455276D01*
X129965485Y-111502895D01*
X126761904Y-110356666D02*
X127238095Y-110356666D01*
X126666666Y-110642380D02*
X127000000Y-109642380D01*
X127333333Y-110642380D01*
X50761904Y-125452380D02*
X50761904Y-126261904D01*
X50809523Y-126357142D01*
X50857142Y-126404761D01*
X50952380Y-126452380D01*
X51142857Y-126452380D01*
X51238095Y-126404761D01*
X51285714Y-126357142D01*
X51333333Y-126261904D01*
X51333333Y-125452380D01*
X52333333Y-126452380D02*
X51761904Y-126452380D01*
X52047619Y-126452380D02*
X52047619Y-125452380D01*
X51952380Y-125595238D01*
X51857142Y-125690476D01*
X51761904Y-125738095D01*
X53285714Y-126452380D02*
X52714285Y-126452380D01*
X53000000Y-126452380D02*
X53000000Y-125452380D01*
X52904761Y-125595238D01*
X52809523Y-125690476D01*
X52714285Y-125738095D01*
X111761904Y-89292380D02*
X111761904Y-90101904D01*
X111809523Y-90197142D01*
X111857142Y-90244761D01*
X111952380Y-90292380D01*
X112142857Y-90292380D01*
X112238095Y-90244761D01*
X112285714Y-90197142D01*
X112333333Y-90101904D01*
X112333333Y-89292380D01*
X113333333Y-90292380D02*
X112761904Y-90292380D01*
X113047619Y-90292380D02*
X113047619Y-89292380D01*
X112952380Y-89435238D01*
X112857142Y-89530476D01*
X112761904Y-89578095D01*
X114285714Y-90292380D02*
X113714285Y-90292380D01*
X114000000Y-90292380D02*
X114000000Y-89292380D01*
X113904761Y-89435238D01*
X113809523Y-89530476D01*
X113714285Y-89578095D01*
X114143066Y-96856704D02*
X114143066Y-96056704D01*
X114447828Y-96056704D01*
X114524019Y-96094800D01*
X114562114Y-96132895D01*
X114600209Y-96209085D01*
X114600209Y-96323371D01*
X114562114Y-96399561D01*
X114524019Y-96437657D01*
X114447828Y-96475752D01*
X114143066Y-96475752D01*
X115324019Y-96856704D02*
X114943066Y-96856704D01*
X114943066Y-96056704D01*
X110866476Y-96856704D02*
X110866476Y-96056704D01*
X111171238Y-96056704D01*
X111247428Y-96094800D01*
X111285523Y-96132895D01*
X111323619Y-96209085D01*
X111323619Y-96323371D01*
X111285523Y-96399561D01*
X111247428Y-96437657D01*
X111171238Y-96475752D01*
X110866476Y-96475752D01*
X112123619Y-96856704D02*
X111856952Y-96475752D01*
X111666476Y-96856704D02*
X111666476Y-96056704D01*
X111971238Y-96056704D01*
X112047428Y-96094800D01*
X112085523Y-96132895D01*
X112123619Y-96209085D01*
X112123619Y-96323371D01*
X112085523Y-96399561D01*
X112047428Y-96437657D01*
X111971238Y-96475752D01*
X111666476Y-96475752D01*
X109751980Y-97318780D02*
X109847219Y-97318780D01*
X109942457Y-97366400D01*
X109990076Y-97414019D01*
X110037695Y-97509257D01*
X110085314Y-97699733D01*
X110085314Y-97937828D01*
X110037695Y-98128304D01*
X109990076Y-98223542D01*
X109942457Y-98271161D01*
X109847219Y-98318780D01*
X109751980Y-98318780D01*
X109656742Y-98271161D01*
X109609123Y-98223542D01*
X109561504Y-98128304D01*
X109513885Y-97937828D01*
X109513885Y-97699733D01*
X109561504Y-97509257D01*
X109609123Y-97414019D01*
X109656742Y-97366400D01*
X109751980Y-97318780D01*
X109024923Y-99944380D02*
X109215400Y-99944380D01*
X109310638Y-99896761D01*
X109358257Y-99849142D01*
X109453495Y-99706285D01*
X109501114Y-99515809D01*
X109501114Y-99134857D01*
X109453495Y-99039619D01*
X109405876Y-98992000D01*
X109310638Y-98944380D01*
X109120161Y-98944380D01*
X109024923Y-98992000D01*
X108977304Y-99039619D01*
X108929685Y-99134857D01*
X108929685Y-99372952D01*
X108977304Y-99468190D01*
X109024923Y-99515809D01*
X109120161Y-99563428D01*
X109310638Y-99563428D01*
X109405876Y-99515809D01*
X109453495Y-99468190D01*
X109501114Y-99372952D01*
X109348761Y-101252552D02*
X109253523Y-101204933D01*
X109205904Y-101157314D01*
X109158285Y-101062076D01*
X109158285Y-101014457D01*
X109205904Y-100919219D01*
X109253523Y-100871600D01*
X109348761Y-100823980D01*
X109539238Y-100823980D01*
X109634476Y-100871600D01*
X109682095Y-100919219D01*
X109729714Y-101014457D01*
X109729714Y-101062076D01*
X109682095Y-101157314D01*
X109634476Y-101204933D01*
X109539238Y-101252552D01*
X109348761Y-101252552D01*
X109253523Y-101300171D01*
X109205904Y-101347790D01*
X109158285Y-101443028D01*
X109158285Y-101633504D01*
X109205904Y-101728742D01*
X109253523Y-101776361D01*
X109348761Y-101823980D01*
X109539238Y-101823980D01*
X109634476Y-101776361D01*
X109682095Y-101728742D01*
X109729714Y-101633504D01*
X109729714Y-101443028D01*
X109682095Y-101347790D01*
X109634476Y-101300171D01*
X109539238Y-101252552D01*
X110126666Y-102525780D02*
X110793333Y-102525780D01*
X110364761Y-103525780D01*
X112250676Y-103262380D02*
X112060200Y-103262380D01*
X111964961Y-103310000D01*
X111917342Y-103357619D01*
X111822104Y-103500476D01*
X111774485Y-103690952D01*
X111774485Y-104071904D01*
X111822104Y-104167142D01*
X111869723Y-104214761D01*
X111964961Y-104262380D01*
X112155438Y-104262380D01*
X112250676Y-104214761D01*
X112298295Y-104167142D01*
X112345914Y-104071904D01*
X112345914Y-103833809D01*
X112298295Y-103738571D01*
X112250676Y-103690952D01*
X112155438Y-103643333D01*
X111964961Y-103643333D01*
X111869723Y-103690952D01*
X111822104Y-103738571D01*
X111774485Y-103833809D01*
X114152495Y-103262380D02*
X113676304Y-103262380D01*
X113628685Y-103738571D01*
X113676304Y-103690952D01*
X113771542Y-103643333D01*
X114009638Y-103643333D01*
X114104876Y-103690952D01*
X114152495Y-103738571D01*
X114200114Y-103833809D01*
X114200114Y-104071904D01*
X114152495Y-104167142D01*
X114104876Y-104214761D01*
X114009638Y-104262380D01*
X113771542Y-104262380D01*
X113676304Y-104214761D01*
X113628685Y-104167142D01*
X115705076Y-102782914D02*
X115705076Y-103449580D01*
X115466980Y-102401961D02*
X115228885Y-103116247D01*
X115847933Y-103116247D01*
X116298866Y-101001780D02*
X116917914Y-101001780D01*
X116584580Y-101382733D01*
X116727438Y-101382733D01*
X116822676Y-101430352D01*
X116870295Y-101477971D01*
X116917914Y-101573209D01*
X116917914Y-101811304D01*
X116870295Y-101906542D01*
X116822676Y-101954161D01*
X116727438Y-102001780D01*
X116441723Y-102001780D01*
X116346485Y-101954161D01*
X116298866Y-101906542D01*
X116575085Y-98912619D02*
X116622704Y-98865000D01*
X116717942Y-98817380D01*
X116956038Y-98817380D01*
X117051276Y-98865000D01*
X117098895Y-98912619D01*
X117146514Y-99007857D01*
X117146514Y-99103095D01*
X117098895Y-99245952D01*
X116527466Y-99817380D01*
X117146514Y-99817380D01*
X116536914Y-98217180D02*
X115965485Y-98217180D01*
X116251200Y-98217180D02*
X116251200Y-97217180D01*
X116155961Y-97360038D01*
X116060723Y-97455276D01*
X115965485Y-97502895D01*
X112761904Y-96356666D02*
X113238095Y-96356666D01*
X112666666Y-96642380D02*
X113000000Y-95642380D01*
X113333333Y-96642380D01*
X125761904Y-75292380D02*
X125761904Y-76101904D01*
X125809523Y-76197142D01*
X125857142Y-76244761D01*
X125952380Y-76292380D01*
X126142857Y-76292380D01*
X126238095Y-76244761D01*
X126285714Y-76197142D01*
X126333333Y-76101904D01*
X126333333Y-75292380D01*
X127333333Y-76292380D02*
X126761904Y-76292380D01*
X127047619Y-76292380D02*
X127047619Y-75292380D01*
X126952380Y-75435238D01*
X126857142Y-75530476D01*
X126761904Y-75578095D01*
X128285714Y-76292380D02*
X127714285Y-76292380D01*
X128000000Y-76292380D02*
X128000000Y-75292380D01*
X127904761Y-75435238D01*
X127809523Y-75530476D01*
X127714285Y-75578095D01*
X128143066Y-82856704D02*
X128143066Y-82056704D01*
X128447828Y-82056704D01*
X128524019Y-82094800D01*
X128562114Y-82132895D01*
X128600209Y-82209085D01*
X128600209Y-82323371D01*
X128562114Y-82399561D01*
X128524019Y-82437657D01*
X128447828Y-82475752D01*
X128143066Y-82475752D01*
X129324019Y-82856704D02*
X128943066Y-82856704D01*
X128943066Y-82056704D01*
X124866476Y-82856704D02*
X124866476Y-82056704D01*
X125171238Y-82056704D01*
X125247428Y-82094800D01*
X125285523Y-82132895D01*
X125323619Y-82209085D01*
X125323619Y-82323371D01*
X125285523Y-82399561D01*
X125247428Y-82437657D01*
X125171238Y-82475752D01*
X124866476Y-82475752D01*
X126123619Y-82856704D02*
X125856952Y-82475752D01*
X125666476Y-82856704D02*
X125666476Y-82056704D01*
X125971238Y-82056704D01*
X126047428Y-82094800D01*
X126085523Y-82132895D01*
X126123619Y-82209085D01*
X126123619Y-82323371D01*
X126085523Y-82399561D01*
X126047428Y-82437657D01*
X125971238Y-82475752D01*
X125666476Y-82475752D01*
X123751980Y-83318780D02*
X123847219Y-83318780D01*
X123942457Y-83366400D01*
X123990076Y-83414019D01*
X124037695Y-83509257D01*
X124085314Y-83699733D01*
X124085314Y-83937828D01*
X124037695Y-84128304D01*
X123990076Y-84223542D01*
X123942457Y-84271161D01*
X123847219Y-84318780D01*
X123751980Y-84318780D01*
X123656742Y-84271161D01*
X123609123Y-84223542D01*
X123561504Y-84128304D01*
X123513885Y-83937828D01*
X123513885Y-83699733D01*
X123561504Y-83509257D01*
X123609123Y-83414019D01*
X123656742Y-83366400D01*
X123751980Y-83318780D01*
X123024923Y-85944380D02*
X123215400Y-85944380D01*
X123310638Y-85896761D01*
X123358257Y-85849142D01*
X123453495Y-85706285D01*
X123501114Y-85515809D01*
X123501114Y-85134857D01*
X123453495Y-85039619D01*
X123405876Y-84992000D01*
X123310638Y-84944380D01*
X123120161Y-84944380D01*
X123024923Y-84992000D01*
X122977304Y-85039619D01*
X122929685Y-85134857D01*
X122929685Y-85372952D01*
X122977304Y-85468190D01*
X123024923Y-85515809D01*
X123120161Y-85563428D01*
X123310638Y-85563428D01*
X123405876Y-85515809D01*
X123453495Y-85468190D01*
X123501114Y-85372952D01*
X123348761Y-87252552D02*
X123253523Y-87204933D01*
X123205904Y-87157314D01*
X123158285Y-87062076D01*
X123158285Y-87014457D01*
X123205904Y-86919219D01*
X123253523Y-86871600D01*
X123348761Y-86823980D01*
X123539238Y-86823980D01*
X123634476Y-86871600D01*
X123682095Y-86919219D01*
X123729714Y-87014457D01*
X123729714Y-87062076D01*
X123682095Y-87157314D01*
X123634476Y-87204933D01*
X123539238Y-87252552D01*
X123348761Y-87252552D01*
X123253523Y-87300171D01*
X123205904Y-87347790D01*
X123158285Y-87443028D01*
X123158285Y-87633504D01*
X123205904Y-87728742D01*
X123253523Y-87776361D01*
X123348761Y-87823980D01*
X123539238Y-87823980D01*
X123634476Y-87776361D01*
X123682095Y-87728742D01*
X123729714Y-87633504D01*
X123729714Y-87443028D01*
X123682095Y-87347790D01*
X123634476Y-87300171D01*
X123539238Y-87252552D01*
X124126666Y-88525780D02*
X124793333Y-88525780D01*
X124364761Y-89525780D01*
X126250676Y-89262380D02*
X126060200Y-89262380D01*
X125964961Y-89310000D01*
X125917342Y-89357619D01*
X125822104Y-89500476D01*
X125774485Y-89690952D01*
X125774485Y-90071904D01*
X125822104Y-90167142D01*
X125869723Y-90214761D01*
X125964961Y-90262380D01*
X126155438Y-90262380D01*
X126250676Y-90214761D01*
X126298295Y-90167142D01*
X126345914Y-90071904D01*
X126345914Y-89833809D01*
X126298295Y-89738571D01*
X126250676Y-89690952D01*
X126155438Y-89643333D01*
X125964961Y-89643333D01*
X125869723Y-89690952D01*
X125822104Y-89738571D01*
X125774485Y-89833809D01*
X128152495Y-89262380D02*
X127676304Y-89262380D01*
X127628685Y-89738571D01*
X127676304Y-89690952D01*
X127771542Y-89643333D01*
X128009638Y-89643333D01*
X128104876Y-89690952D01*
X128152495Y-89738571D01*
X128200114Y-89833809D01*
X128200114Y-90071904D01*
X128152495Y-90167142D01*
X128104876Y-90214761D01*
X128009638Y-90262380D01*
X127771542Y-90262380D01*
X127676304Y-90214761D01*
X127628685Y-90167142D01*
X129705076Y-88782914D02*
X129705076Y-89449580D01*
X129466980Y-88401961D02*
X129228885Y-89116247D01*
X129847933Y-89116247D01*
X130298866Y-87001780D02*
X130917914Y-87001780D01*
X130584580Y-87382733D01*
X130727438Y-87382733D01*
X130822676Y-87430352D01*
X130870295Y-87477971D01*
X130917914Y-87573209D01*
X130917914Y-87811304D01*
X130870295Y-87906542D01*
X130822676Y-87954161D01*
X130727438Y-88001780D01*
X130441723Y-88001780D01*
X130346485Y-87954161D01*
X130298866Y-87906542D01*
X130575085Y-84912619D02*
X130622704Y-84865000D01*
X130717942Y-84817380D01*
X130956038Y-84817380D01*
X131051276Y-84865000D01*
X131098895Y-84912619D01*
X131146514Y-85007857D01*
X131146514Y-85103095D01*
X131098895Y-85245952D01*
X130527466Y-85817380D01*
X131146514Y-85817380D01*
X130536914Y-84217180D02*
X129965485Y-84217180D01*
X130251200Y-84217180D02*
X130251200Y-83217180D01*
X130155961Y-83360038D01*
X130060723Y-83455276D01*
X129965485Y-83502895D01*
X126761904Y-82356666D02*
X127238095Y-82356666D01*
X126666666Y-82642380D02*
X127000000Y-81642380D01*
X127333333Y-82642380D01*
X97761904Y-75292380D02*
X97761904Y-76101904D01*
X97809523Y-76197142D01*
X97857142Y-76244761D01*
X97952380Y-76292380D01*
X98142857Y-76292380D01*
X98238095Y-76244761D01*
X98285714Y-76197142D01*
X98333333Y-76101904D01*
X98333333Y-75292380D01*
X99333333Y-76292380D02*
X98761904Y-76292380D01*
X99047619Y-76292380D02*
X99047619Y-75292380D01*
X98952380Y-75435238D01*
X98857142Y-75530476D01*
X98761904Y-75578095D01*
X100285714Y-76292380D02*
X99714285Y-76292380D01*
X100000000Y-76292380D02*
X100000000Y-75292380D01*
X99904761Y-75435238D01*
X99809523Y-75530476D01*
X99714285Y-75578095D01*
X100143066Y-82856704D02*
X100143066Y-82056704D01*
X100447828Y-82056704D01*
X100524019Y-82094800D01*
X100562114Y-82132895D01*
X100600209Y-82209085D01*
X100600209Y-82323371D01*
X100562114Y-82399561D01*
X100524019Y-82437657D01*
X100447828Y-82475752D01*
X100143066Y-82475752D01*
X101324019Y-82856704D02*
X100943066Y-82856704D01*
X100943066Y-82056704D01*
X96866476Y-82856704D02*
X96866476Y-82056704D01*
X97171238Y-82056704D01*
X97247428Y-82094800D01*
X97285523Y-82132895D01*
X97323619Y-82209085D01*
X97323619Y-82323371D01*
X97285523Y-82399561D01*
X97247428Y-82437657D01*
X97171238Y-82475752D01*
X96866476Y-82475752D01*
X98123619Y-82856704D02*
X97856952Y-82475752D01*
X97666476Y-82856704D02*
X97666476Y-82056704D01*
X97971238Y-82056704D01*
X98047428Y-82094800D01*
X98085523Y-82132895D01*
X98123619Y-82209085D01*
X98123619Y-82323371D01*
X98085523Y-82399561D01*
X98047428Y-82437657D01*
X97971238Y-82475752D01*
X97666476Y-82475752D01*
X95751980Y-83318780D02*
X95847219Y-83318780D01*
X95942457Y-83366400D01*
X95990076Y-83414019D01*
X96037695Y-83509257D01*
X96085314Y-83699733D01*
X96085314Y-83937828D01*
X96037695Y-84128304D01*
X95990076Y-84223542D01*
X95942457Y-84271161D01*
X95847219Y-84318780D01*
X95751980Y-84318780D01*
X95656742Y-84271161D01*
X95609123Y-84223542D01*
X95561504Y-84128304D01*
X95513885Y-83937828D01*
X95513885Y-83699733D01*
X95561504Y-83509257D01*
X95609123Y-83414019D01*
X95656742Y-83366400D01*
X95751980Y-83318780D01*
X95024923Y-85944380D02*
X95215400Y-85944380D01*
X95310638Y-85896761D01*
X95358257Y-85849142D01*
X95453495Y-85706285D01*
X95501114Y-85515809D01*
X95501114Y-85134857D01*
X95453495Y-85039619D01*
X95405876Y-84992000D01*
X95310638Y-84944380D01*
X95120161Y-84944380D01*
X95024923Y-84992000D01*
X94977304Y-85039619D01*
X94929685Y-85134857D01*
X94929685Y-85372952D01*
X94977304Y-85468190D01*
X95024923Y-85515809D01*
X95120161Y-85563428D01*
X95310638Y-85563428D01*
X95405876Y-85515809D01*
X95453495Y-85468190D01*
X95501114Y-85372952D01*
X95348761Y-87252552D02*
X95253523Y-87204933D01*
X95205904Y-87157314D01*
X95158285Y-87062076D01*
X95158285Y-87014457D01*
X95205904Y-86919219D01*
X95253523Y-86871600D01*
X95348761Y-86823980D01*
X95539238Y-86823980D01*
X95634476Y-86871600D01*
X95682095Y-86919219D01*
X95729714Y-87014457D01*
X95729714Y-87062076D01*
X95682095Y-87157314D01*
X95634476Y-87204933D01*
X95539238Y-87252552D01*
X95348761Y-87252552D01*
X95253523Y-87300171D01*
X95205904Y-87347790D01*
X95158285Y-87443028D01*
X95158285Y-87633504D01*
X95205904Y-87728742D01*
X95253523Y-87776361D01*
X95348761Y-87823980D01*
X95539238Y-87823980D01*
X95634476Y-87776361D01*
X95682095Y-87728742D01*
X95729714Y-87633504D01*
X95729714Y-87443028D01*
X95682095Y-87347790D01*
X95634476Y-87300171D01*
X95539238Y-87252552D01*
X96126666Y-88525780D02*
X96793333Y-88525780D01*
X96364761Y-89525780D01*
X98250676Y-89262380D02*
X98060200Y-89262380D01*
X97964961Y-89310000D01*
X97917342Y-89357619D01*
X97822104Y-89500476D01*
X97774485Y-89690952D01*
X97774485Y-90071904D01*
X97822104Y-90167142D01*
X97869723Y-90214761D01*
X97964961Y-90262380D01*
X98155438Y-90262380D01*
X98250676Y-90214761D01*
X98298295Y-90167142D01*
X98345914Y-90071904D01*
X98345914Y-89833809D01*
X98298295Y-89738571D01*
X98250676Y-89690952D01*
X98155438Y-89643333D01*
X97964961Y-89643333D01*
X97869723Y-89690952D01*
X97822104Y-89738571D01*
X97774485Y-89833809D01*
X100152495Y-89262380D02*
X99676304Y-89262380D01*
X99628685Y-89738571D01*
X99676304Y-89690952D01*
X99771542Y-89643333D01*
X100009638Y-89643333D01*
X100104876Y-89690952D01*
X100152495Y-89738571D01*
X100200114Y-89833809D01*
X100200114Y-90071904D01*
X100152495Y-90167142D01*
X100104876Y-90214761D01*
X100009638Y-90262380D01*
X99771542Y-90262380D01*
X99676304Y-90214761D01*
X99628685Y-90167142D01*
X101705076Y-88782914D02*
X101705076Y-89449580D01*
X101466980Y-88401961D02*
X101228885Y-89116247D01*
X101847933Y-89116247D01*
X102298866Y-87001780D02*
X102917914Y-87001780D01*
X102584580Y-87382733D01*
X102727438Y-87382733D01*
X102822676Y-87430352D01*
X102870295Y-87477971D01*
X102917914Y-87573209D01*
X102917914Y-87811304D01*
X102870295Y-87906542D01*
X102822676Y-87954161D01*
X102727438Y-88001780D01*
X102441723Y-88001780D01*
X102346485Y-87954161D01*
X102298866Y-87906542D01*
X102575085Y-84912619D02*
X102622704Y-84865000D01*
X102717942Y-84817380D01*
X102956038Y-84817380D01*
X103051276Y-84865000D01*
X103098895Y-84912619D01*
X103146514Y-85007857D01*
X103146514Y-85103095D01*
X103098895Y-85245952D01*
X102527466Y-85817380D01*
X103146514Y-85817380D01*
X102536914Y-84217180D02*
X101965485Y-84217180D01*
X102251200Y-84217180D02*
X102251200Y-83217180D01*
X102155961Y-83360038D01*
X102060723Y-83455276D01*
X101965485Y-83502895D01*
X98761904Y-82356666D02*
X99238095Y-82356666D01*
X98666666Y-82642380D02*
X99000000Y-81642380D01*
X99333333Y-82642380D01*
X111761904Y-61292380D02*
X111761904Y-62101904D01*
X111809523Y-62197142D01*
X111857142Y-62244761D01*
X111952380Y-62292380D01*
X112142857Y-62292380D01*
X112238095Y-62244761D01*
X112285714Y-62197142D01*
X112333333Y-62101904D01*
X112333333Y-61292380D01*
X113333333Y-62292380D02*
X112761904Y-62292380D01*
X113047619Y-62292380D02*
X113047619Y-61292380D01*
X112952380Y-61435238D01*
X112857142Y-61530476D01*
X112761904Y-61578095D01*
X114285714Y-62292380D02*
X113714285Y-62292380D01*
X114000000Y-62292380D02*
X114000000Y-61292380D01*
X113904761Y-61435238D01*
X113809523Y-61530476D01*
X113714285Y-61578095D01*
X114143066Y-68856704D02*
X114143066Y-68056704D01*
X114447828Y-68056704D01*
X114524019Y-68094800D01*
X114562114Y-68132895D01*
X114600209Y-68209085D01*
X114600209Y-68323371D01*
X114562114Y-68399561D01*
X114524019Y-68437657D01*
X114447828Y-68475752D01*
X114143066Y-68475752D01*
X115324019Y-68856704D02*
X114943066Y-68856704D01*
X114943066Y-68056704D01*
X110866476Y-68856704D02*
X110866476Y-68056704D01*
X111171238Y-68056704D01*
X111247428Y-68094800D01*
X111285523Y-68132895D01*
X111323619Y-68209085D01*
X111323619Y-68323371D01*
X111285523Y-68399561D01*
X111247428Y-68437657D01*
X111171238Y-68475752D01*
X110866476Y-68475752D01*
X112123619Y-68856704D02*
X111856952Y-68475752D01*
X111666476Y-68856704D02*
X111666476Y-68056704D01*
X111971238Y-68056704D01*
X112047428Y-68094800D01*
X112085523Y-68132895D01*
X112123619Y-68209085D01*
X112123619Y-68323371D01*
X112085523Y-68399561D01*
X112047428Y-68437657D01*
X111971238Y-68475752D01*
X111666476Y-68475752D01*
X109751980Y-69318780D02*
X109847219Y-69318780D01*
X109942457Y-69366400D01*
X109990076Y-69414019D01*
X110037695Y-69509257D01*
X110085314Y-69699733D01*
X110085314Y-69937828D01*
X110037695Y-70128304D01*
X109990076Y-70223542D01*
X109942457Y-70271161D01*
X109847219Y-70318780D01*
X109751980Y-70318780D01*
X109656742Y-70271161D01*
X109609123Y-70223542D01*
X109561504Y-70128304D01*
X109513885Y-69937828D01*
X109513885Y-69699733D01*
X109561504Y-69509257D01*
X109609123Y-69414019D01*
X109656742Y-69366400D01*
X109751980Y-69318780D01*
X109024923Y-71944380D02*
X109215400Y-71944380D01*
X109310638Y-71896761D01*
X109358257Y-71849142D01*
X109453495Y-71706285D01*
X109501114Y-71515809D01*
X109501114Y-71134857D01*
X109453495Y-71039619D01*
X109405876Y-70992000D01*
X109310638Y-70944380D01*
X109120161Y-70944380D01*
X109024923Y-70992000D01*
X108977304Y-71039619D01*
X108929685Y-71134857D01*
X108929685Y-71372952D01*
X108977304Y-71468190D01*
X109024923Y-71515809D01*
X109120161Y-71563428D01*
X109310638Y-71563428D01*
X109405876Y-71515809D01*
X109453495Y-71468190D01*
X109501114Y-71372952D01*
X109348761Y-73252552D02*
X109253523Y-73204933D01*
X109205904Y-73157314D01*
X109158285Y-73062076D01*
X109158285Y-73014457D01*
X109205904Y-72919219D01*
X109253523Y-72871600D01*
X109348761Y-72823980D01*
X109539238Y-72823980D01*
X109634476Y-72871600D01*
X109682095Y-72919219D01*
X109729714Y-73014457D01*
X109729714Y-73062076D01*
X109682095Y-73157314D01*
X109634476Y-73204933D01*
X109539238Y-73252552D01*
X109348761Y-73252552D01*
X109253523Y-73300171D01*
X109205904Y-73347790D01*
X109158285Y-73443028D01*
X109158285Y-73633504D01*
X109205904Y-73728742D01*
X109253523Y-73776361D01*
X109348761Y-73823980D01*
X109539238Y-73823980D01*
X109634476Y-73776361D01*
X109682095Y-73728742D01*
X109729714Y-73633504D01*
X109729714Y-73443028D01*
X109682095Y-73347790D01*
X109634476Y-73300171D01*
X109539238Y-73252552D01*
X110126666Y-74525780D02*
X110793333Y-74525780D01*
X110364761Y-75525780D01*
X112250676Y-75262380D02*
X112060200Y-75262380D01*
X111964961Y-75310000D01*
X111917342Y-75357619D01*
X111822104Y-75500476D01*
X111774485Y-75690952D01*
X111774485Y-76071904D01*
X111822104Y-76167142D01*
X111869723Y-76214761D01*
X111964961Y-76262380D01*
X112155438Y-76262380D01*
X112250676Y-76214761D01*
X112298295Y-76167142D01*
X112345914Y-76071904D01*
X112345914Y-75833809D01*
X112298295Y-75738571D01*
X112250676Y-75690952D01*
X112155438Y-75643333D01*
X111964961Y-75643333D01*
X111869723Y-75690952D01*
X111822104Y-75738571D01*
X111774485Y-75833809D01*
X114152495Y-75262380D02*
X113676304Y-75262380D01*
X113628685Y-75738571D01*
X113676304Y-75690952D01*
X113771542Y-75643333D01*
X114009638Y-75643333D01*
X114104876Y-75690952D01*
X114152495Y-75738571D01*
X114200114Y-75833809D01*
X114200114Y-76071904D01*
X114152495Y-76167142D01*
X114104876Y-76214761D01*
X114009638Y-76262380D01*
X113771542Y-76262380D01*
X113676304Y-76214761D01*
X113628685Y-76167142D01*
X115705076Y-74782914D02*
X115705076Y-75449580D01*
X115466980Y-74401961D02*
X115228885Y-75116247D01*
X115847933Y-75116247D01*
X116298866Y-73001780D02*
X116917914Y-73001780D01*
X116584580Y-73382733D01*
X116727438Y-73382733D01*
X116822676Y-73430352D01*
X116870295Y-73477971D01*
X116917914Y-73573209D01*
X116917914Y-73811304D01*
X116870295Y-73906542D01*
X116822676Y-73954161D01*
X116727438Y-74001780D01*
X116441723Y-74001780D01*
X116346485Y-73954161D01*
X116298866Y-73906542D01*
X116575085Y-70912619D02*
X116622704Y-70865000D01*
X116717942Y-70817380D01*
X116956038Y-70817380D01*
X117051276Y-70865000D01*
X117098895Y-70912619D01*
X117146514Y-71007857D01*
X117146514Y-71103095D01*
X117098895Y-71245952D01*
X116527466Y-71817380D01*
X117146514Y-71817380D01*
X116536914Y-70217180D02*
X115965485Y-70217180D01*
X116251200Y-70217180D02*
X116251200Y-69217180D01*
X116155961Y-69360038D01*
X116060723Y-69455276D01*
X115965485Y-69502895D01*
X112761904Y-68356666D02*
X113238095Y-68356666D01*
X112666666Y-68642380D02*
X113000000Y-67642380D01*
X113333333Y-68642380D01*
X125761904Y-47292380D02*
X125761904Y-48101904D01*
X125809523Y-48197142D01*
X125857142Y-48244761D01*
X125952380Y-48292380D01*
X126142857Y-48292380D01*
X126238095Y-48244761D01*
X126285714Y-48197142D01*
X126333333Y-48101904D01*
X126333333Y-47292380D01*
X127333333Y-48292380D02*
X126761904Y-48292380D01*
X127047619Y-48292380D02*
X127047619Y-47292380D01*
X126952380Y-47435238D01*
X126857142Y-47530476D01*
X126761904Y-47578095D01*
X128285714Y-48292380D02*
X127714285Y-48292380D01*
X128000000Y-48292380D02*
X128000000Y-47292380D01*
X127904761Y-47435238D01*
X127809523Y-47530476D01*
X127714285Y-47578095D01*
X128143066Y-54856704D02*
X128143066Y-54056704D01*
X128447828Y-54056704D01*
X128524019Y-54094800D01*
X128562114Y-54132895D01*
X128600209Y-54209085D01*
X128600209Y-54323371D01*
X128562114Y-54399561D01*
X128524019Y-54437657D01*
X128447828Y-54475752D01*
X128143066Y-54475752D01*
X129324019Y-54856704D02*
X128943066Y-54856704D01*
X128943066Y-54056704D01*
X124866476Y-54856704D02*
X124866476Y-54056704D01*
X125171238Y-54056704D01*
X125247428Y-54094800D01*
X125285523Y-54132895D01*
X125323619Y-54209085D01*
X125323619Y-54323371D01*
X125285523Y-54399561D01*
X125247428Y-54437657D01*
X125171238Y-54475752D01*
X124866476Y-54475752D01*
X126123619Y-54856704D02*
X125856952Y-54475752D01*
X125666476Y-54856704D02*
X125666476Y-54056704D01*
X125971238Y-54056704D01*
X126047428Y-54094800D01*
X126085523Y-54132895D01*
X126123619Y-54209085D01*
X126123619Y-54323371D01*
X126085523Y-54399561D01*
X126047428Y-54437657D01*
X125971238Y-54475752D01*
X125666476Y-54475752D01*
X123751980Y-55318780D02*
X123847219Y-55318780D01*
X123942457Y-55366400D01*
X123990076Y-55414019D01*
X124037695Y-55509257D01*
X124085314Y-55699733D01*
X124085314Y-55937828D01*
X124037695Y-56128304D01*
X123990076Y-56223542D01*
X123942457Y-56271161D01*
X123847219Y-56318780D01*
X123751980Y-56318780D01*
X123656742Y-56271161D01*
X123609123Y-56223542D01*
X123561504Y-56128304D01*
X123513885Y-55937828D01*
X123513885Y-55699733D01*
X123561504Y-55509257D01*
X123609123Y-55414019D01*
X123656742Y-55366400D01*
X123751980Y-55318780D01*
X123024923Y-57944380D02*
X123215400Y-57944380D01*
X123310638Y-57896761D01*
X123358257Y-57849142D01*
X123453495Y-57706285D01*
X123501114Y-57515809D01*
X123501114Y-57134857D01*
X123453495Y-57039619D01*
X123405876Y-56992000D01*
X123310638Y-56944380D01*
X123120161Y-56944380D01*
X123024923Y-56992000D01*
X122977304Y-57039619D01*
X122929685Y-57134857D01*
X122929685Y-57372952D01*
X122977304Y-57468190D01*
X123024923Y-57515809D01*
X123120161Y-57563428D01*
X123310638Y-57563428D01*
X123405876Y-57515809D01*
X123453495Y-57468190D01*
X123501114Y-57372952D01*
X123348761Y-59252552D02*
X123253523Y-59204933D01*
X123205904Y-59157314D01*
X123158285Y-59062076D01*
X123158285Y-59014457D01*
X123205904Y-58919219D01*
X123253523Y-58871600D01*
X123348761Y-58823980D01*
X123539238Y-58823980D01*
X123634476Y-58871600D01*
X123682095Y-58919219D01*
X123729714Y-59014457D01*
X123729714Y-59062076D01*
X123682095Y-59157314D01*
X123634476Y-59204933D01*
X123539238Y-59252552D01*
X123348761Y-59252552D01*
X123253523Y-59300171D01*
X123205904Y-59347790D01*
X123158285Y-59443028D01*
X123158285Y-59633504D01*
X123205904Y-59728742D01*
X123253523Y-59776361D01*
X123348761Y-59823980D01*
X123539238Y-59823980D01*
X123634476Y-59776361D01*
X123682095Y-59728742D01*
X123729714Y-59633504D01*
X123729714Y-59443028D01*
X123682095Y-59347790D01*
X123634476Y-59300171D01*
X123539238Y-59252552D01*
X124126666Y-60525780D02*
X124793333Y-60525780D01*
X124364761Y-61525780D01*
X126250676Y-61262380D02*
X126060200Y-61262380D01*
X125964961Y-61310000D01*
X125917342Y-61357619D01*
X125822104Y-61500476D01*
X125774485Y-61690952D01*
X125774485Y-62071904D01*
X125822104Y-62167142D01*
X125869723Y-62214761D01*
X125964961Y-62262380D01*
X126155438Y-62262380D01*
X126250676Y-62214761D01*
X126298295Y-62167142D01*
X126345914Y-62071904D01*
X126345914Y-61833809D01*
X126298295Y-61738571D01*
X126250676Y-61690952D01*
X126155438Y-61643333D01*
X125964961Y-61643333D01*
X125869723Y-61690952D01*
X125822104Y-61738571D01*
X125774485Y-61833809D01*
X128152495Y-61262380D02*
X127676304Y-61262380D01*
X127628685Y-61738571D01*
X127676304Y-61690952D01*
X127771542Y-61643333D01*
X128009638Y-61643333D01*
X128104876Y-61690952D01*
X128152495Y-61738571D01*
X128200114Y-61833809D01*
X128200114Y-62071904D01*
X128152495Y-62167142D01*
X128104876Y-62214761D01*
X128009638Y-62262380D01*
X127771542Y-62262380D01*
X127676304Y-62214761D01*
X127628685Y-62167142D01*
X129705076Y-60782914D02*
X129705076Y-61449580D01*
X129466980Y-60401961D02*
X129228885Y-61116247D01*
X129847933Y-61116247D01*
X130298866Y-59001780D02*
X130917914Y-59001780D01*
X130584580Y-59382733D01*
X130727438Y-59382733D01*
X130822676Y-59430352D01*
X130870295Y-59477971D01*
X130917914Y-59573209D01*
X130917914Y-59811304D01*
X130870295Y-59906542D01*
X130822676Y-59954161D01*
X130727438Y-60001780D01*
X130441723Y-60001780D01*
X130346485Y-59954161D01*
X130298866Y-59906542D01*
X130575085Y-56912619D02*
X130622704Y-56865000D01*
X130717942Y-56817380D01*
X130956038Y-56817380D01*
X131051276Y-56865000D01*
X131098895Y-56912619D01*
X131146514Y-57007857D01*
X131146514Y-57103095D01*
X131098895Y-57245952D01*
X130527466Y-57817380D01*
X131146514Y-57817380D01*
X130536914Y-56217180D02*
X129965485Y-56217180D01*
X130251200Y-56217180D02*
X130251200Y-55217180D01*
X130155961Y-55360038D01*
X130060723Y-55455276D01*
X129965485Y-55502895D01*
X126761904Y-54356666D02*
X127238095Y-54356666D01*
X126666666Y-54642380D02*
X127000000Y-53642380D01*
X127333333Y-54642380D01*
X97761904Y-47292380D02*
X97761904Y-48101904D01*
X97809523Y-48197142D01*
X97857142Y-48244761D01*
X97952380Y-48292380D01*
X98142857Y-48292380D01*
X98238095Y-48244761D01*
X98285714Y-48197142D01*
X98333333Y-48101904D01*
X98333333Y-47292380D01*
X99333333Y-48292380D02*
X98761904Y-48292380D01*
X99047619Y-48292380D02*
X99047619Y-47292380D01*
X98952380Y-47435238D01*
X98857142Y-47530476D01*
X98761904Y-47578095D01*
X100285714Y-48292380D02*
X99714285Y-48292380D01*
X100000000Y-48292380D02*
X100000000Y-47292380D01*
X99904761Y-47435238D01*
X99809523Y-47530476D01*
X99714285Y-47578095D01*
X100143066Y-54856704D02*
X100143066Y-54056704D01*
X100447828Y-54056704D01*
X100524019Y-54094800D01*
X100562114Y-54132895D01*
X100600209Y-54209085D01*
X100600209Y-54323371D01*
X100562114Y-54399561D01*
X100524019Y-54437657D01*
X100447828Y-54475752D01*
X100143066Y-54475752D01*
X101324019Y-54856704D02*
X100943066Y-54856704D01*
X100943066Y-54056704D01*
X96866476Y-54856704D02*
X96866476Y-54056704D01*
X97171238Y-54056704D01*
X97247428Y-54094800D01*
X97285523Y-54132895D01*
X97323619Y-54209085D01*
X97323619Y-54323371D01*
X97285523Y-54399561D01*
X97247428Y-54437657D01*
X97171238Y-54475752D01*
X96866476Y-54475752D01*
X98123619Y-54856704D02*
X97856952Y-54475752D01*
X97666476Y-54856704D02*
X97666476Y-54056704D01*
X97971238Y-54056704D01*
X98047428Y-54094800D01*
X98085523Y-54132895D01*
X98123619Y-54209085D01*
X98123619Y-54323371D01*
X98085523Y-54399561D01*
X98047428Y-54437657D01*
X97971238Y-54475752D01*
X97666476Y-54475752D01*
X95751980Y-55318780D02*
X95847219Y-55318780D01*
X95942457Y-55366400D01*
X95990076Y-55414019D01*
X96037695Y-55509257D01*
X96085314Y-55699733D01*
X96085314Y-55937828D01*
X96037695Y-56128304D01*
X95990076Y-56223542D01*
X95942457Y-56271161D01*
X95847219Y-56318780D01*
X95751980Y-56318780D01*
X95656742Y-56271161D01*
X95609123Y-56223542D01*
X95561504Y-56128304D01*
X95513885Y-55937828D01*
X95513885Y-55699733D01*
X95561504Y-55509257D01*
X95609123Y-55414019D01*
X95656742Y-55366400D01*
X95751980Y-55318780D01*
X95024923Y-57944380D02*
X95215400Y-57944380D01*
X95310638Y-57896761D01*
X95358257Y-57849142D01*
X95453495Y-57706285D01*
X95501114Y-57515809D01*
X95501114Y-57134857D01*
X95453495Y-57039619D01*
X95405876Y-56992000D01*
X95310638Y-56944380D01*
X95120161Y-56944380D01*
X95024923Y-56992000D01*
X94977304Y-57039619D01*
X94929685Y-57134857D01*
X94929685Y-57372952D01*
X94977304Y-57468190D01*
X95024923Y-57515809D01*
X95120161Y-57563428D01*
X95310638Y-57563428D01*
X95405876Y-57515809D01*
X95453495Y-57468190D01*
X95501114Y-57372952D01*
X95348761Y-59252552D02*
X95253523Y-59204933D01*
X95205904Y-59157314D01*
X95158285Y-59062076D01*
X95158285Y-59014457D01*
X95205904Y-58919219D01*
X95253523Y-58871600D01*
X95348761Y-58823980D01*
X95539238Y-58823980D01*
X95634476Y-58871600D01*
X95682095Y-58919219D01*
X95729714Y-59014457D01*
X95729714Y-59062076D01*
X95682095Y-59157314D01*
X95634476Y-59204933D01*
X95539238Y-59252552D01*
X95348761Y-59252552D01*
X95253523Y-59300171D01*
X95205904Y-59347790D01*
X95158285Y-59443028D01*
X95158285Y-59633504D01*
X95205904Y-59728742D01*
X95253523Y-59776361D01*
X95348761Y-59823980D01*
X95539238Y-59823980D01*
X95634476Y-59776361D01*
X95682095Y-59728742D01*
X95729714Y-59633504D01*
X95729714Y-59443028D01*
X95682095Y-59347790D01*
X95634476Y-59300171D01*
X95539238Y-59252552D01*
X96126666Y-60525780D02*
X96793333Y-60525780D01*
X96364761Y-61525780D01*
X98250676Y-61262380D02*
X98060200Y-61262380D01*
X97964961Y-61310000D01*
X97917342Y-61357619D01*
X97822104Y-61500476D01*
X97774485Y-61690952D01*
X97774485Y-62071904D01*
X97822104Y-62167142D01*
X97869723Y-62214761D01*
X97964961Y-62262380D01*
X98155438Y-62262380D01*
X98250676Y-62214761D01*
X98298295Y-62167142D01*
X98345914Y-62071904D01*
X98345914Y-61833809D01*
X98298295Y-61738571D01*
X98250676Y-61690952D01*
X98155438Y-61643333D01*
X97964961Y-61643333D01*
X97869723Y-61690952D01*
X97822104Y-61738571D01*
X97774485Y-61833809D01*
X100152495Y-61262380D02*
X99676304Y-61262380D01*
X99628685Y-61738571D01*
X99676304Y-61690952D01*
X99771542Y-61643333D01*
X100009638Y-61643333D01*
X100104876Y-61690952D01*
X100152495Y-61738571D01*
X100200114Y-61833809D01*
X100200114Y-62071904D01*
X100152495Y-62167142D01*
X100104876Y-62214761D01*
X100009638Y-62262380D01*
X99771542Y-62262380D01*
X99676304Y-62214761D01*
X99628685Y-62167142D01*
X101705076Y-60782914D02*
X101705076Y-61449580D01*
X101466980Y-60401961D02*
X101228885Y-61116247D01*
X101847933Y-61116247D01*
X102298866Y-59001780D02*
X102917914Y-59001780D01*
X102584580Y-59382733D01*
X102727438Y-59382733D01*
X102822676Y-59430352D01*
X102870295Y-59477971D01*
X102917914Y-59573209D01*
X102917914Y-59811304D01*
X102870295Y-59906542D01*
X102822676Y-59954161D01*
X102727438Y-60001780D01*
X102441723Y-60001780D01*
X102346485Y-59954161D01*
X102298866Y-59906542D01*
X102575085Y-56912619D02*
X102622704Y-56865000D01*
X102717942Y-56817380D01*
X102956038Y-56817380D01*
X103051276Y-56865000D01*
X103098895Y-56912619D01*
X103146514Y-57007857D01*
X103146514Y-57103095D01*
X103098895Y-57245952D01*
X102527466Y-57817380D01*
X103146514Y-57817380D01*
X102536914Y-56217180D02*
X101965485Y-56217180D01*
X102251200Y-56217180D02*
X102251200Y-55217180D01*
X102155961Y-55360038D01*
X102060723Y-55455276D01*
X101965485Y-55502895D01*
X98761904Y-54356666D02*
X99238095Y-54356666D01*
X98666666Y-54642380D02*
X99000000Y-53642380D01*
X99333333Y-54642380D01*
X50761904Y-100372380D02*
X50761904Y-101181904D01*
X50809523Y-101277142D01*
X50857142Y-101324761D01*
X50952380Y-101372380D01*
X51142857Y-101372380D01*
X51238095Y-101324761D01*
X51285714Y-101277142D01*
X51333333Y-101181904D01*
X51333333Y-100372380D01*
X52333333Y-101372380D02*
X51761904Y-101372380D01*
X52047619Y-101372380D02*
X52047619Y-100372380D01*
X51952380Y-100515238D01*
X51857142Y-100610476D01*
X51761904Y-100658095D01*
X53285714Y-101372380D02*
X52714285Y-101372380D01*
X53000000Y-101372380D02*
X53000000Y-100372380D01*
X52904761Y-100515238D01*
X52809523Y-100610476D01*
X52714285Y-100658095D01*
X71761904Y-100372380D02*
X71761904Y-101181904D01*
X71809523Y-101277142D01*
X71857142Y-101324761D01*
X71952380Y-101372380D01*
X72142857Y-101372380D01*
X72238095Y-101324761D01*
X72285714Y-101277142D01*
X72333333Y-101181904D01*
X72333333Y-100372380D01*
X73333333Y-101372380D02*
X72761904Y-101372380D01*
X73047619Y-101372380D02*
X73047619Y-100372380D01*
X72952380Y-100515238D01*
X72857142Y-100610476D01*
X72761904Y-100658095D01*
X74285714Y-101372380D02*
X73714285Y-101372380D01*
X74000000Y-101372380D02*
X74000000Y-100372380D01*
X73904761Y-100515238D01*
X73809523Y-100610476D01*
X73714285Y-100658095D01*
X50761904Y-75372380D02*
X50761904Y-76181904D01*
X50809523Y-76277142D01*
X50857142Y-76324761D01*
X50952380Y-76372380D01*
X51142857Y-76372380D01*
X51238095Y-76324761D01*
X51285714Y-76277142D01*
X51333333Y-76181904D01*
X51333333Y-75372380D01*
X52333333Y-76372380D02*
X51761904Y-76372380D01*
X52047619Y-76372380D02*
X52047619Y-75372380D01*
X51952380Y-75515238D01*
X51857142Y-75610476D01*
X51761904Y-75658095D01*
X53285714Y-76372380D02*
X52714285Y-76372380D01*
X53000000Y-76372380D02*
X53000000Y-75372380D01*
X52904761Y-75515238D01*
X52809523Y-75610476D01*
X52714285Y-75658095D01*
X71761904Y-75372380D02*
X71761904Y-76181904D01*
X71809523Y-76277142D01*
X71857142Y-76324761D01*
X71952380Y-76372380D01*
X72142857Y-76372380D01*
X72238095Y-76324761D01*
X72285714Y-76277142D01*
X72333333Y-76181904D01*
X72333333Y-75372380D01*
X73333333Y-76372380D02*
X72761904Y-76372380D01*
X73047619Y-76372380D02*
X73047619Y-75372380D01*
X72952380Y-75515238D01*
X72857142Y-75610476D01*
X72761904Y-75658095D01*
X74285714Y-76372380D02*
X73714285Y-76372380D01*
X74000000Y-76372380D02*
X74000000Y-75372380D01*
X73904761Y-75515238D01*
X73809523Y-75610476D01*
X73714285Y-75658095D01*
M02*
